<svg xmlns="http://www.w3.org/2000/svg" width="430" height="430" style="width:100%;height:100%;transform:translate3d(0,0,0);content-visibility:visible" viewBox="0 0 430 430"><defs><clipPath id="c"><path d="M0 0h430v430H0z"/></clipPath><clipPath id="h"><path d="M0 0h430v430H0z"/></clipPath><clipPath id="f"><path d="M0 0h430v430H0z"/></clipPath><clipPath id="g"><path d="M0 0h430v430H0z"/></clipPath><clipPath id="d"><path d="M0 0h430v430H0z"/></clipPath><clipPath id="e"><path d="M0 0h430v430H0z"/></clipPath><filter id="a" width="100%" height="100%" x="0%" y="0%" filterUnits="objectBoundingBox"><feComponentTransfer in="SourceGraphic"><feFuncA tableValues="1.0 0.0" type="table"/></feComponentTransfer></filter><mask id="i" mask-type="alpha" maskUnits="userSpaceOnUse"><g filter="url(#a)"><path fill="#fff" d="M0 0h430v430H0z" opacity="0"/><use xmlns:ns1="http://www.w3.org/1999/xlink" ns1:href="#b"/></g></mask><g id="b" style="display:none"><path/><path fill-opacity="0" stroke-linecap="round" stroke-linejoin="round" class="secondary"/></g></defs><g clip-path="url(#c)"><g clip-path="url(#d)" style="display:none"><g clip-path="url(#e)" style="display:none"><path class="tertiary" style="display:none"/><path class="tertiary" style="mix-blend-mode:multiply;display:none"/><g style="display:none"><path class="tertiary"/><path class="tertiary" style="mix-blend-mode:multiply"/></g><path fill="none" class="primary" style="display:none"/><path class="secondary" style="display:none"/><path class="secondary" style="mix-blend-mode:multiply;display:none"/><path class="secondary" style="display:none"/><path class="secondary" style="mix-blend-mode:multiply;display:none"/><path fill="none" class="primary" style="display:none"/></g></g><g clip-path="url(#f)" style="display:block"><g clip-path="url(#g)" style="display:block"><path fill="#4AB3FC" d="M26.023 17.129h-52.046a3 3 0 0 1-2.884-3.824l8.695-30.434h40.424l8.695 30.434a3 3 0 0 1-2.884 3.824" class="tertiary" style="display:block" transform="translate(157 277.87)"/><g opacity=".5" style="mix-blend-mode:multiply;display:block"><path fill="#4AB3FC" d="M130.977 294.999H147l9.788-34.258h-20l-8.695 30.434a3 3 0 0 0 2.884 3.824" class="tertiary" opacity="1"/></g><g fill="#4AB3FC" style="display:block"><path d="M157 264c48.978 0 100-59.726 100-126S218.478 24 157 24 57 71.726 57 138s51.022 126 100 126" class="tertiary"/><path fill-opacity=".5" d="M49.747 101.555c8.533 0 17.129-1.813 25.506-5.158-15.515 12.647-33.139 20.157-50.506 20.157-48.978 0-100-59.726-100-126 0-51.389 23.162-91.626 62.227-107.108-23.743 20.183-37.227 52.9-37.227 92.109 0 66.274 51.022 126 100 126" class="tertiary" style="mix-blend-mode:multiply" transform="translate(132.25 147.5)"/></g><path fill="none" stroke="#121330" stroke-linecap="round" stroke-linejoin="round" stroke-width="7" d="M.5 193V78m19.712-34.259L30 78h-60l9.788-34.259M0 47c48.978 0 100-59.726 100-126S61.478-193 0-193s-100 47.726-100 114S-48.978 47 0 47" class="primary" style="display:block" transform="translate(157 217)"/><path fill="#F18AA8" d="M26.023 17.129h-52.046a3 3 0 0 1-2.884-3.824l8.695-30.434h40.424l8.695 30.434a3 3 0 0 1-2.884 3.824" class="secondary" style="display:block" transform="translate(272 327.87)"/><g opacity=".5" style="mix-blend-mode:multiply;display:block"><path fill="#F18AA8" d="M245.977 344.999H262l9.788-34.258h-20l-8.695 30.434a3 3 0 0 0 2.884 3.824" class="secondary" opacity="1"/></g><path fill="#F18AA8" d="M0 120c48.978 0 100-59.726 100-126S61.478-120 0-120-100-72.274-100-6-48.978 120 0 120" class="secondary" style="display:block" transform="translate(272 194)"/><g opacity=".5" style="mix-blend-mode:multiply;display:block"><path fill="#F18AA8" d="M297 299.002c8.533 0 17.129-1.813 25.506-5.158-15.515 12.647-33.139 20.157-50.506 20.157-48.978 0-100-59.726-100-126 0-51.389 23.162-91.626 62.227-107.108-23.743 20.183-37.227 52.9-37.227 92.109 0 66.274 51.022 126 100 126" class="secondary" opacity="1"/></g><path fill="none" stroke="#121330" stroke-linecap="round" stroke-linejoin="round" stroke-width="7" d="M.5 168v-65m-20.712-34.259L-30 103h60l-9.788-34.259M0 72c48.978 0 100-59.726 100-126S61.478-168 0-168s-100 47.726-100 114S-48.978 72 0 72" class="primary" style="display:block" transform="translate(272 242)"/></g></g><g clip-path="url(#h)" style="display:none"><g style="display:none"><path class="tertiary"/><path class="tertiary" style="mix-blend-mode:multiply"/></g><g style="display:none"><path class="tertiary"/><path class="tertiary" style="mix-blend-mode:multiply"/></g><path fill="none" class="primary" style="display:none"/><g style="display:none"><path class="secondary"/><path class="secondary" style="mix-blend-mode:multiply"/></g><path class="secondary" style="display:none"/><g mask="url(#i)" style="mix-blend-mode:multiply;display:none"><path class="secondary"/></g><path fill="none" class="primary" style="display:none"/></g></g></svg>