<svg xmlns="http://www.w3.org/2000/svg" width="430" height="430" style="width:100%;height:100%;transform:translate3d(0,0,0);content-visibility:visible" viewBox="0 0 430 430"><defs><clipPath id="g"><path d="M0 0h430v430H0z"/></clipPath><clipPath id="n"><path d="M0 0h430v430H0z"/></clipPath><clipPath id="m"><path d="M0 0h430v430H0z"/></clipPath><clipPath id="l"><path d="M0 0h430v430H0z"/></clipPath><clipPath id="j"><path d="M0 0h430v430H0z"/></clipPath><clipPath id="h"><path d="M0 0h430v430H0z"/></clipPath><filter id="a" width="100%" height="100%" x="0%" y="0%" filterUnits="objectBoundingBox"><feComponentTransfer in="SourceGraphic"><feFuncA tableValues="1.0 0.0" type="table"/></feComponentTransfer></filter><filter id="c" width="100%" height="100%" x="0%" y="0%" filterUnits="objectBoundingBox"><feComponentTransfer in="SourceGraphic"><feFuncA tableValues="1.0 0.0" type="table"/></feComponentTransfer></filter><filter id="e" width="100%" height="100%" x="0%" y="0%" filterUnits="objectBoundingBox"><feComponentTransfer in="SourceGraphic"><feFuncA tableValues="1.0 0.0" type="table"/></feComponentTransfer></filter><path id="b" style="display:none"/><path id="d" style="display:none"/><path id="f" class="secondary" style="display:none"/><mask id="o" mask-type="alpha" maskUnits="userSpaceOnUse"><g filter="url(#a)"><path fill="#fff" d="M0 0h430v430H0z" opacity="0"/><use xmlns:ns1="http://www.w3.org/1999/xlink" ns1:href="#b"/></g></mask><mask id="k" mask-type="alpha" maskUnits="userSpaceOnUse"><g filter="url(#c)"><path fill="#fff" d="M0 0h430v430H0z" opacity="0"/><use xmlns:ns2="http://www.w3.org/1999/xlink" ns2:href="#d"/></g></mask><mask id="i" mask-type="alpha" maskUnits="userSpaceOnUse"><g filter="url(#e)"><path fill="#fff" d="M0 0h430v430H0z" opacity="0"/><use xmlns:ns3="http://www.w3.org/1999/xlink" ns3:href="#f"/></g></mask></defs><g clip-path="url(#g)"><g clip-path="url(#h)" style="display:none"><path class="secondary" style="display:none"/><g mask="url(#i)" style="mix-blend-mode:multiply;display:none"><path class="secondary"/></g><path class="secondary" style="mix-blend-mode:multiply;display:none"/><path fill="none" class="primary" style="display:none"/><path fill="none" class="primary" style="display:none"/><path fill="none" class="secondary" style="display:none"/></g><g clip-path="url(#j)" style="display:none"><path class="secondary" style="display:none"/><g fill="none" style="display:none"><path class="secondary"/><path class="secondary"/></g><g mask="url(#k)" style="mix-blend-mode:multiply;display:none"><path class="secondary"/></g><path class="secondary" style="mix-blend-mode:multiply;display:none"/><path fill="none" class="primary" style="display:none"/><path fill="none" class="primary" style="display:none"/><path fill="none" class="secondary" style="display:none"/></g><g clip-path="url(#l)" style="display:block"><path fill="#EBE6EE" d="M0-167.5c92.443 0 167.5 75.057 167.5 167.5S92.443 167.5 0 167.5-167.5 92.443-167.5 0-92.443-167.5 0-167.5" class="secondary" style="display:block" transform="translate(215 215)"/><g opacity=".4" style="mix-blend-mode:multiply;display:block"><path fill="#EBE6EE" d="M382.5 215c0 92.508-74.992 167.5-167.5 167.5S47.5 307.508 47.5 215 122.492 47.5 215 47.5 382.5 122.492 382.5 215m-20 0c0-81.462-66.038-147.5-147.5-147.5S67.5 133.538 67.5 215 133.538 362.5 215 362.5 362.5 296.462 362.5 215" class="secondary" opacity="1"/></g><g opacity=".5" style="mix-blend-mode:multiply;display:block"><path fill="#EBE6EE" d="M250 367.5c16.685 0 32.8-2.439 48.008-6.981C273.54 374.507 245.203 382.5 215 382.5c-92.508 0-167.5-74.992-167.5-167.5 0-75.823 50.381-139.878 119.493-160.518C116.518 83.336 82.5 137.695 82.5 200c0 92.508 74.992 167.5 167.5 167.5" class="secondary" opacity="1"/></g><path fill="none" stroke="#911610" stroke-linecap="round" stroke-linejoin="round" stroke-width="7" d="M0 0" class="primary" style="display:block" transform="translate(215.354 215.314)"/><path fill="none" stroke="#911610" stroke-linecap="round" stroke-linejoin="round" stroke-width="7" d="M0 0" class="primary" style="display:block" transform="translate(212.146 214.731)"/><path fill="none" stroke="#911610" stroke-linecap="round" stroke-linejoin="round" stroke-width="7" d="M67.392 86.943C48.746 101.4 25.33 110-.041 110c-60.772 0-110-49.228-110-110s49.228-110 110-110S110.041-60.773 110.041.082c0 0 .001 45.6-67.698 45.6m26.551 40.075q-.746.6-1.502 1.186" class="primary" style="display:block" transform="translate(215.354 215.314)"/><path fill="none" stroke="#911610" stroke-linecap="round" stroke-linejoin="round" stroke-width="7" d="M46.424 45.471V-8.081c0-21.192-17.151-38.343-38.343-38.343H-8.081c-21.192 0-38.343 17.151-38.343 38.343V8.081c0 21.192 17.151 38.343 38.343 38.343q0 0 0 0h54.505z" class="primary" style="display:block" transform="translate(212.146 214.731)"/></g><g clip-path="url(#m)" style="display:none"><path class="secondary" style="display:none"/><path class="secondary" style="mix-blend-mode:multiply;display:none"/><path class="secondary" style="mix-blend-mode:multiply;display:none"/><path fill="none" class="primary" style="display:none"/><path fill="none" class="primary" style="display:none"/><path fill="none" class="primary" style="display:none"/><path fill="none" class="primary" style="display:none"/></g><g clip-path="url(#n)" style="display:none"><path class="secondary" style="display:none"/><g mask="url(#o)" style="mix-blend-mode:multiply;display:none"><path class="secondary"/></g><path class="secondary" style="mix-blend-mode:multiply;display:none"/><path fill="none" class="primary" style="display:none"/><path fill="none" class="primary" style="display:none"/></g></g></svg>