<?xml version="1.0" encoding="iso-8859-1"?>
<!-- Uploaded to: SVG Repo, www.svgrepo.com, Generator: SVG Repo Mixer Tools -->
<svg height="800px" width="800px" version="1.1" id="Layer_1" xmlns="http://www.w3.org/2000/svg" xmlns:xlink="http://www.w3.org/1999/xlink" 
	 viewBox="0 0 511.999 511.999" xml:space="preserve">
<g>
	<polygon style="fill:#FCD051;" points="310.397,245.334 353.065,245.334 353.065,166.696 353.065,10.668 310.397,10.668 
		310.397,129.318 	"/>
	<path style="fill:#ABB8B9;" d="M310.397,245.334V129.318c-12.296-4.071-26.433-1.237-36.174,8.503l-95.697,95.697L329.375,384.37
		l30.863-30.863l64.834-64.836c13.741-13.741,13.741-36.228,0-49.969l-50.441-50.439l-21.566-21.566v78.638H310.397z"/>
	<polygon style="fill:#FCD051;" points="329.375,384.37 178.526,233.518 120.044,250.464 61.563,267.405 129.271,335.111 
		178.524,384.37 227.78,433.624 295.489,501.331 	"/>
	<path style="fill:#ED8C18;" d="M227.78,433.624l-49.256-49.254l-49.253-49.258c-6.598,26.739,0.549,56.171,21.443,77.066
		C171.608,433.072,201.042,440.22,227.78,433.624z"/>
</g>
<g>
	<path style="fill:#000003;" d="M448.29,171.495c11.242-14.095,15.428-33.596,11.197-52.164
		c-2.612-11.459-8.342-22.876-13.883-33.922c-11.684-23.285-22.721-45.28-8.79-69.407c2.946-5.102,1.198-11.625-3.904-14.572
		c-5.102-2.944-11.625-1.198-14.572,3.904c-19.68,34.084-4.223,64.89,8.197,89.644c5.2,10.363,10.113,20.154,12.151,29.091
		c1.05,4.608,3.644,20.685-7.074,34.119c-9.577,12.005-27.727,18.649-52.631,19.337l-15.249-15.249V10.668
		C363.732,4.776,358.956,0,353.065,0h-42.668c-5.892,0-10.668,4.776-10.668,10.668v106.194c-0.175-0.002-0.352-0.011-0.527-0.011
		c-12.314,0-23.864,4.767-32.521,13.426l-93.757,93.76L58.593,257.157c-3.623,1.05-6.423,3.935-7.363,7.588
		c-0.94,3.655,0.121,7.534,2.788,10.201l63.618,63.618c-5.312,29.673,4.005,59.628,25.535,81.156
		c17.374,17.376,40.476,26.944,65.049,26.944c5.399,0,10.79-0.479,16.097-1.419l63.627,63.63c2.027,2.025,4.75,3.123,7.544,3.123
		c0.885,0,1.777-0.11,2.656-0.335c3.653-0.94,6.54-3.74,7.588-7.363l33.122-114.326l28.921-28.921c0.002,0,0.004-0.002,0.004-0.004
		c0.002-0.002,0.004-0.004,0.006-0.004l64.828-64.83c17.937-17.937,17.937-47.121,0-65.057l-33.965-33.965
		C420.764,193.738,437.408,185.136,448.29,171.495z M158.258,404.636c-12.593-12.593-19.748-28.942-20.642-46.091l66.678,66.678
		C186.896,424.277,170.674,417.052,158.258,404.636z M321.064,21.335h21.333v145.362v67.97h-21.333V129.319V21.335z
		 M290.266,481.024l-57.493-57.494l-95.959-95.96c-0.002-0.002-0.006-0.004-0.009-0.009l-54.936-54.936l35.087-10.163l51.637,51.633
		c2.083,2.083,4.813,3.126,7.543,3.126c2.731,0,5.46-1.042,7.543-3.126c4.166-4.165,4.165-10.919,0-15.087l-43.329-43.324
		l35.09-10.165l141.933,141.933L290.266,481.024z M417.527,281.128l-57.29,57.292l-26.245-26.246
		c-4.165-4.167-10.919-4.165-15.085,0c-4.167,4.165-4.167,10.919-0.002,15.085l26.246,26.245l-15.774,15.776L193.613,233.518
		l88.154-88.155c4.75-4.752,11.201-7.317,17.962-7.174v107.143c0,5.89,4.776,10.668,10.668,10.668h42.668
		c5.892,0,10.668-4.778,10.668-10.668v-52.885l3.349,3.351c0.006,0.004,0.011,0.011,0.017,0.015l50.431,50.431
		C427.145,255.861,427.145,271.511,417.527,281.128z"/>
	<path style="fill:#000003;" d="M205.389,320.725c-4.142-4.19-10.897-4.23-15.087-0.087c-4.19,4.142-4.229,10.897-0.087,15.087
		l0.181,0.181c2.086,2.11,4.836,3.169,7.586,3.169c2.71,0,5.421-1.027,7.499-3.082c4.19-4.142,4.229-10.897,0.086-15.087
		L205.389,320.725z"/>
	<path style="fill:#000003;" d="M312.19,290.364c-4.142-4.19-10.895-4.23-15.085-0.087c-4.19,4.142-4.23,10.897-0.087,15.087
		l0.179,0.181c2.088,2.11,4.838,3.169,7.588,3.169c2.708,0,5.419-1.027,7.498-3.082c4.19-4.142,4.23-10.897,0.087-15.087
		L312.19,290.364z"/>
</g>
</svg>