<svg xmlns="http://www.w3.org/2000/svg" width="430" height="430" style="width:100%;height:100%;transform:translate3d(0,0,0);content-visibility:visible" viewBox="0 0 430 430"><defs><clipPath id="r"><path d="M0 0h430v430H0z"/></clipPath><clipPath id="W"><path d="M0 0h430v430H0z"/></clipPath><clipPath id="U"><path d="M0 0h430v430H0z"/></clipPath><clipPath id="Q"><path d="M0 0h430v430H0z"/></clipPath><clipPath id="N"><path d="M0 0h430v430H0z"/></clipPath><clipPath id="O"><path d="M0 0h430v430H0z"/></clipPath><clipPath id="P"><path d="M0 0h430v430H0z"/></clipPath><clipPath id="L"><path d="M0 0h430v430H0z"/></clipPath><clipPath id="M"><path d="M0 0h430v430H0z"/></clipPath><clipPath id="s"><path d="M0 0h430v430H0z"/></clipPath><clipPath id="t"><path d="M0 0h430v430H0z"/></clipPath><clipPath id="G"><path d="M0 0h430v430H0z"/></clipPath><clipPath id="u"><path d="M0 0h430v430H0z"/></clipPath><clipPath id="B"><path d="M0 0h1192v430H0z"/></clipPath><clipPath id="w"><path d="M0 0h1192v430H0z"/></clipPath><mask id="Y" mask-type="alpha"><use xmlns:ns1="http://www.w3.org/1999/xlink" ns1:href="#a"/></mask><mask id="X" mask-type="alpha"><use xmlns:ns2="http://www.w3.org/1999/xlink" ns2:href="#b"/></mask><mask id="V" mask-type="alpha"><use xmlns:ns3="http://www.w3.org/1999/xlink" ns3:href="#c"/></mask><mask id="T" mask-type="alpha"><use xmlns:ns4="http://www.w3.org/1999/xlink" ns4:href="#d"/></mask><mask id="S" mask-type="alpha"><use xmlns:ns5="http://www.w3.org/1999/xlink" ns5:href="#e"/></mask><mask id="R" mask-type="alpha" maskUnits="userSpaceOnUse"><g filter="url(#f)"><path fill="#fff" d="M0 0h430v430H0z" opacity="0"/><use xmlns:ns6="http://www.w3.org/1999/xlink" ns6:href="#g"/></g></mask><mask id="K" mask-type="alpha"><use xmlns:ns7="http://www.w3.org/1999/xlink" ns7:href="#h"/></mask><mask id="J" mask-type="alpha"><use xmlns:ns8="http://www.w3.org/1999/xlink" ns8:href="#i"/></mask><mask id="I" mask-type="alpha"><use xmlns:ns9="http://www.w3.org/1999/xlink" ns9:href="#j"/></mask><mask id="H" mask-type="alpha"><use xmlns:ns10="http://www.w3.org/1999/xlink" ns10:href="#k"/></mask><mask id="C" mask-type="alpha"><use xmlns:ns11="http://www.w3.org/1999/xlink" ns11:href="#l"/></mask><mask id="x" mask-type="alpha"><use xmlns:ns12="http://www.w3.org/1999/xlink" ns12:href="#m"/></mask><mask id="v" mask-type="alpha" maskUnits="userSpaceOnUse"><g filter="url(#o)"><path fill="#fff" d="M0 0h430v430H0z" opacity="0"/><use xmlns:ns13="http://www.w3.org/1999/xlink" ns13:href="#p"/></g></mask><g id="a" style="display:none"><path/><path/></g><g id="b" style="display:none"><path/><path/></g><g id="c" style="display:none"><path/><path/><path/></g><g id="d" style="display:none"><path/><path/><path/></g><g id="e" style="display:none"><path/><path/></g><g id="h" style="display:none"><path/><path/><path/></g><g id="i" style="display:none"><path/><path/></g><g id="j" style="display:none"><path/><path/></g><g id="m" style="display:none"><path/><path/></g><filter id="f" width="100%" height="100%" x="0%" y="0%" filterUnits="objectBoundingBox"><feComponentTransfer in="SourceGraphic"><feFuncA tableValues="1.0 0.0" type="table"/></feComponentTransfer></filter><filter id="F" width="300%" height="300%" x="-100%" y="-100%"><feGaussianBlur result="filter_result_0"/></filter><filter id="E" width="300%" height="300%" x="-100%" y="-100%"><feGaussianBlur result="filter_result_0"/></filter><filter id="D" width="300%" height="300%" x="-100%" y="-100%"><feGaussianBlur result="filter_result_0"/></filter><filter id="A" width="300%" height="300%" x="-100%" y="-100%"><feGaussianBlur result="filter_result_0"/></filter><filter id="z" width="300%" height="300%" x="-100%" y="-100%"><feGaussianBlur result="filter_result_0"/></filter><filter id="y" width="300%" height="300%" x="-100%" y="-100%"><feGaussianBlur result="filter_result_0"/></filter><filter id="o" width="100%" height="100%" x="0%" y="0%" filterUnits="objectBoundingBox"><feComponentTransfer in="SourceGraphic"><feFuncA tableValues="1.0 0.0" type="table"/></feComponentTransfer></filter><path id="g" style="display:none"/><path id="k" style="display:none"/><path id="p" style="display:none"/><path id="l" fill="url(#q)" style="display:none"/><linearGradient id="q" gradientUnits="userSpaceOnUse" spreadMethod="pad"><stop/><stop/><stop/><stop/><stop/><stop/><stop/></linearGradient></defs><g clip-path="url(#r)"><g clip-path="url(#s)" style="display:none"><g clip-path="url(#t)" style="display:none"><g style="display:none"><path class="secondary"/><path class="secondary" style="mix-blend-mode:multiply"/></g><g clip-path="url(#u)" mask="url(#v)" style="display:none"><g clip-path="url(#w)" mask="url(#x)" style="display:none"><g filter="url(#y)" style="display:none"><path class="tertiary"/><path class="tertiary"/><path class="secondary"/><path class="quaternary"/></g><g filter="url(#z)" style="display:none"><path class="tertiary"/><path class="tertiary"/><path class="secondary"/><path class="quaternary"/></g><g filter="url(#A)" style="display:none"><path class="tertiary"/><path class="tertiary"/><path class="secondary"/><path class="quaternary"/></g></g><g clip-path="url(#B)" mask="url(#C)" style="display:none"><g filter="url(#D)" style="display:none"><path class="tertiary"/><path class="tertiary"/><path class="secondary"/><path class="quaternary"/></g><g filter="url(#E)" style="display:none"><path class="tertiary"/><path class="tertiary"/><path class="secondary"/><path class="quaternary"/></g><g filter="url(#F)" style="display:none"><path class="tertiary"/><path class="tertiary"/><path class="secondary"/><path class="quaternary"/></g></g></g><g clip-path="url(#G)" mask="url(#H)" style="display:none"><g mask="url(#I)" style="display:none"><path class="primary"/></g><g mask="url(#J)" style="display:none"><path class="primary"/><path class="primary" style="mix-blend-mode:multiply"/></g><g mask="url(#K)" style="display:none"><path class="primary"/></g></g></g></g><g clip-path="url(#L)" style="display:block"><g clip-path="url(#M)" style="display:block"><g fill="#C61F15" style="display:block"><path d="M214.612 47.5c91.722 0 166.077 74.993 166.077 167.5 0 92.509-74.355 167.5-166.077 167.5S48.535 307.51 48.535 215c0-92.507 74.355-167.5 166.077-167.5" class="secondary"/><path fill-opacity=".0026" d="M-.388-167.5C91.334-167.5 165.69-92.506 165.69 0c0 92.509-74.355 167.5-166.077 167.5S-166.465 92.51-166.465 0c0-92.507 74.355-167.5 166.077-167.5" class="secondary" style="mix-blend-mode:multiply" transform="translate(215 215)"/><path fill-opacity=".4974" d="M169.561 99.51c16.542 0 32.52-2.44 47.598-6.981-24.26 13.987-52.354 21.982-82.3 21.982-91.723 0-166.078-74.992-166.078-167.5 0-75.823 49.953-139.88 118.478-160.52C37.213-184.655 3.484-130.295 3.484-67.99c0 92.508 74.355 167.5 166.077 167.5" class="secondary" style="mix-blend-mode:multiply" transform="translate(79.875 268.125)"/></g><g style="display:block"><path fill="#C61F15" d="M214.633 47.256c229.68 10.648 210.118 332.526.247 335.993.372 0-8.992.175-1.306 0 206.032-4.705 223.366-321.878-.247-335.993-2.097-.133.249-.049 1.306 0" class="secondary"/><path fill="none" d="M9.633-168.244c229.68 10.648 210.118 332.526.247 335.993.372 0-8.992.175-1.306 0 206.032-4.705 223.366-321.878-.247-335.993-2.097-.133.249-.049 1.306 0" class="secondary" style="mix-blend-mode:multiply" transform="translate(205 215.5)"/></g><g style="display:block"><path fill="#C61F15" d="M240.5 47.529c.276 0 .5 74.992.5 167.5s-.224 167.5-.5 167.5-.5-74.992-.5-167.5.224-167.5.5-167.5" class="secondary"/><path fill="none" d="M160.73 99.538c.05 0 .098-2.439.143-6.981-.073 13.987-.158 21.981-.248 21.981-.276 0-.5-74.992-.5-167.5 0-75.823.151-139.879.357-160.519-.151 28.854-.252 83.214-.252 145.519 0 92.508.224 167.5.5 167.5" class="secondary" style="mix-blend-mode:multiply" transform="translate(79.875 268.125)"/></g><g fill="#EBE6EE" style="display:block"><path d="M125.456 150c0-13.807 11.084-25 24.757-25h128.734c13.673 0 24.757 11.193 24.757 25v130c0 13.807-11.084 25-24.757 25H150.213c-13.673 0-24.757-11.193-24.757-25zm24.757-45c-24.612 0-44.562 20.147-44.562 45v130c0 24.853 19.95 45 44.562 45h128.734c24.612 0 44.563-20.147 44.563-45V150c0-24.853-19.951-45-44.563-45z" class="primary"/><path d="M214.58 160c-30.08 0-54.465 24.624-54.465 55s24.385 55 54.465 55 54.465-24.624 54.465-55-24.385-55-54.465-55m-34.66 55c0-19.33 15.518-35 34.66-35s34.66 15.67 34.66 35-15.518 35-34.66 35-34.66-15.67-34.66-35" class="primary"/><path fill-opacity=".5" d="M-54.35-65c0-24.853 19.951-45 44.563-45H54.58v20H-9.787c-13.673 0-24.757 11.193-24.757 25V65c0 13.807 11.084 25 24.757 25H54.58v20H-9.787C-34.4 110-54.35 89.853-54.35 65z" class="primary" style="mix-blend-mode:multiply" transform="translate(160 215)"/><path fill-opacity=".5" d="M27.08-35C7.938-35-7.58-19.33-7.58 0S7.939 35 27.08 35v20C-3 55-27.385 30.376-27.385 0S-3-55 27.08-55z" class="primary" style="mix-blend-mode:multiply" transform="translate(187.5 215)"/></g><path fill="#EBE6EE" d="M109.73-92.397c0-10.728-8.617-19.425-19.246-19.425-10.63 0-19.247 8.697-19.247 19.425s8.617 19.425 19.247 19.425 19.247-8.697 19.247-19.425" class="primary" style="display:block" transform="translate(215 215.416)scale(.626)"/></g></g><g clip-path="url(#N)" style="display:none"><g clip-path="url(#O)" style="display:none"><g style="display:none"><path class="secondary"/><path class="secondary" style="mix-blend-mode:multiply"/><path class="secondary" style="mix-blend-mode:multiply"/></g><g style="display:none"><path class="secondary"/><path class="secondary" style="mix-blend-mode:multiply"/></g><g style="display:none"><path class="secondary"/><path class="secondary" style="mix-blend-mode:multiply"/></g><g style="display:none"><path class="primary"/><path class="primary"/><path class="primary" style="mix-blend-mode:multiply"/><path class="primary" style="mix-blend-mode:multiply"/></g><path class="primary" style="display:none"/></g><g clip-path="url(#P)" style="display:none"><g style="display:none"><path class="secondary"/><path class="secondary" style="mix-blend-mode:multiply"/><path class="secondary" style="mix-blend-mode:multiply"/></g><g style="display:none"><path class="secondary"/><path class="secondary" style="mix-blend-mode:multiply"/></g><g style="display:none"><path class="secondary"/><path class="secondary" style="mix-blend-mode:multiply"/></g><g style="display:none"><path class="primary"/><path class="primary"/><path class="primary" style="mix-blend-mode:multiply"/><path class="primary" style="mix-blend-mode:multiply"/></g><path class="primary" style="display:none"/></g></g><g clip-path="url(#Q)" style="display:none"><g style="display:none"><path class="secondary"/><path class="secondary" style="mix-blend-mode:multiply"/></g><g style="display:none"><path class="primary"/><path class="primary" style="mix-blend-mode:multiply"/></g><path class="primary" style="display:none"/><g mask="url(#R)" style="display:none"><path class="primary"/><path class="primary"/></g><g mask="url(#S)" style="display:none"><path class="primary"/><path class="primary" style="mix-blend-mode:multiply"/></g><g style="display:none"><path class="primary"/><path class="primary" style="mix-blend-mode:multiply"/></g><g style="display:none"><path class="primary"/><path class="primary"/></g><g style="display:none"><path class="primary"/><path class="primary"/><path class="primary"/></g><g mask="url(#T)" style="display:none"><path class="primary"/><path class="primary" style="mix-blend-mode:multiply"/></g></g><g clip-path="url(#U)" style="display:none"><g style="display:none"><path class="secondary"/><path class="secondary" style="mix-blend-mode:multiply"/></g><path class="primary" style="display:none"/><path class="primary" style="display:none"/><g style="display:none"><path class="primary"/><path class="primary"/><path class="primary"/></g><g mask="url(#V)" style="display:none"><path class="primary"/><path class="primary" style="mix-blend-mode:multiply"/></g></g><g clip-path="url(#W)" style="display:none"><g style="display:none"><path class="secondary"/><path class="secondary" style="mix-blend-mode:multiply"/></g><g style="display:none"><path class="primary"/><path class="primary"/></g><g mask="url(#X)" style="display:none"><path class="primary"/><path class="primary" style="mix-blend-mode:multiply"/></g><g style="display:none"><path class="primary"/><path class="primary"/></g><g style="display:none"><path class="primary"/><path class="primary"/></g><g mask="url(#Y)" style="display:none"><path class="primary"/><path class="primary" style="mix-blend-mode:multiply"/></g><path class="primary" style="display:none"/></g></g></svg>