<svg xmlns="http://www.w3.org/2000/svg" width="430" height="430" style="width:100%;height:100%;transform:translate3d(0,0,0);content-visibility:visible" viewBox="0 0 430 430"><defs><clipPath id="m"><path d="M0 0h430v430H0z"/></clipPath><clipPath id="B"><path d="M0 0h430v430H0z"/></clipPath><clipPath id="A"><path d="M0 0h430v430H0z"/></clipPath><clipPath id="z"><path d="M0 0h430v430H0z"/></clipPath><clipPath id="y"><path d="M0 0h430v430H0z"/></clipPath><clipPath id="t"><path d="M0 0h430v430H0z"/></clipPath><clipPath id="u"><path d="M0 0h430v430H0z"/></clipPath><clipPath id="n"><path d="M0 0h430v430H0z"/></clipPath><clipPath id="o"><path d="M0 0h430v430H0z"/></clipPath><path id="d" fill-opacity="0" stroke-linecap="round" stroke-linejoin="round" style="display:none"/><path id="g" fill-opacity="0" stroke-linecap="round" stroke-linejoin="round" style="display:none"/><path id="e" style="display:none"/><path id="i" fill-opacity="0" stroke-linecap="round" stroke-linejoin="round" style="display:none"/><path id="l" fill-opacity="0" stroke-linecap="round" stroke-linejoin="round" style="display:none"/><path id="j" style="display:none"/><path id="a" style="display:none"/><path id="b" style="display:none"/><mask id="D" mask-type="alpha"><use xmlns:ns1="http://www.w3.org/1999/xlink" ns1:href="#a"/></mask><mask id="C" mask-type="alpha"><use xmlns:ns2="http://www.w3.org/1999/xlink" ns2:href="#b"/></mask><mask id="x" mask-type="alpha" maskUnits="userSpaceOnUse"><g filter="url(#c)"><path fill="#fff" d="M0 0h430v430H0z" opacity="0"/><use xmlns:ns3="http://www.w3.org/1999/xlink" ns3:href="#d"/></g></mask><mask id="w" mask-type="alpha"><use xmlns:ns4="http://www.w3.org/1999/xlink" ns4:href="#e"/></mask><mask id="v" mask-type="alpha" maskUnits="userSpaceOnUse"><g filter="url(#f)"><path fill="#fff" d="M0 0h430v430H0z" opacity="0"/><use xmlns:ns5="http://www.w3.org/1999/xlink" ns5:href="#g"/></g></mask><mask id="s" mask-type="alpha" maskUnits="userSpaceOnUse"><g filter="url(#h)"><path fill="#fff" d="M0 0h430v430H0z" opacity="0"/><use xmlns:ns6="http://www.w3.org/1999/xlink" ns6:href="#i"/></g></mask><mask id="r" mask-type="alpha"><use xmlns:ns7="http://www.w3.org/1999/xlink" ns7:href="#j"/></mask><mask id="p" mask-type="alpha" maskUnits="userSpaceOnUse"><g filter="url(#k)"><path fill="#fff" d="M0 0h430v430H0z" opacity="0"/><use xmlns:ns8="http://www.w3.org/1999/xlink" ns8:href="#l"/></g></mask><filter id="c" width="100%" height="100%" x="0%" y="0%" filterUnits="objectBoundingBox"><feComponentTransfer in="SourceGraphic"><feFuncA tableValues="1.0 0.0" type="table"/></feComponentTransfer></filter><filter id="f" width="100%" height="100%" x="0%" y="0%" filterUnits="objectBoundingBox"><feComponentTransfer in="SourceGraphic"><feFuncA tableValues="1.0 0.0" type="table"/></feComponentTransfer></filter><filter id="h" width="100%" height="100%" x="0%" y="0%" filterUnits="objectBoundingBox"><feComponentTransfer in="SourceGraphic"><feFuncA tableValues="1.0 0.0" type="table"/></feComponentTransfer></filter><filter id="k" width="100%" height="100%" x="0%" y="0%" filterUnits="objectBoundingBox"><feComponentTransfer in="SourceGraphic"><feFuncA tableValues="1.0 0.0" type="table"/></feComponentTransfer></filter></defs><g clip-path="url(#m)"><g clip-path="url(#n)" style="display:none"><g clip-path="url(#o)" mask="url(#p)" style="display:none"><g style="display:none"><path class="tertiary"/><path class="tertiary"/><path class="tertiary" style="mix-blend-mode:multiply"/></g><g mask="url(#r)" style="display:none"><path class="secondary"/><path class="secondary"/><path class="secondary" style="mix-blend-mode:multiply"/><path fill="none" class="quaternary"/></g></g><g fill="none" mask="url(#s)" style="display:none"><path class="primary"/><path class="primary"/></g><path fill="none" class="quinary" style="display:none"/></g><g clip-path="url(#t)" style="display:none"><g clip-path="url(#u)" mask="url(#v)" style="display:none"><g style="display:none"><path class="tertiary"/><path class="tertiary"/><path class="tertiary" style="mix-blend-mode:multiply"/></g><g mask="url(#w)" style="display:none"><path class="secondary"/><path class="secondary"/><path class="secondary" style="mix-blend-mode:multiply"/><path fill="none" class="quaternary"/></g></g><g fill="none" mask="url(#x)" style="display:none"><path class="primary"/><path class="primary"/></g><path fill="none" class="quinary" style="display:none"/></g><g clip-path="url(#y)" style="display:none"><g style="display:none"><path class="tertiary"/><path class="tertiary"/><path class="tertiary" style="mix-blend-mode:multiply"/></g><g style="display:none"><path class="secondary"/><path class="secondary"/><path class="secondary" style="mix-blend-mode:multiply"/></g><g fill="none" style="display:none"><path class="quaternary"/><path class="primary"/></g><path fill="none" class="primary" style="display:none"/><path fill="none" class="primary" style="display:none"/><path class="quinary" style="display:none"/><g style="display:none"><path class="quinary"/><path class="quinary" style="mix-blend-mode:multiply"/></g><path fill="none" class="primary" style="display:none"/></g><g clip-path="url(#z)" style="display:block"><g fill="#393346" style="display:block"><path d="M285 245.827V96.173C285 57.387 253.69 26 215 26s-70 31.387-70 70.173v149.654C145 284.613 176.31 316 215 316s70-31.387 70-70.173" class="tertiary"/><path d="M215 26c-38.69 0-70 31.387-70 70.173v149.654C145 284.613 176.31 316 215 316c2 0 0-289.5 0-290" class="tertiary"/><path fill-opacity=".5" d="M0-145c-38.69 0-70 31.387-70 70.173V74.827C-70 113.613-38.69 145 0 145c2 0 0-289.5 0-290" class="tertiary" style="mix-blend-mode:multiply" transform="translate(215 171)"/></g><g style="display:block"><path fill="#636D78" d="M285 245.827H145C145 284.613 176.31 316 215 316s70-31.387 70-70.173" class="secondary"/><g fill="#636D78"><path d="m216 245.654-71 .173C145 284.613 176.31 316 215 316c0-.5.75-31.75 1-70.346" class="secondary"/><path fill-opacity=".5" d="m1 74.654-71 .173C-70 113.613-38.69 145 0 145c0-.5.75-31.75 1-70.346" class="secondary" style="mix-blend-mode:multiply" transform="translate(215 171)"/></g><path fill="none" stroke="#EBE6EE" stroke-linecap="round" stroke-linejoin="round" stroke-width="7" d="M265 181h19.5M145 181h19.5M145 211h29.5m81 0H285" class="quaternary"/></g><path fill="none" stroke="#121330" stroke-linecap="round" stroke-linejoin="round" stroke-width="7" d="M-35 90h70m70-180v25C105-7.01 57.99 40 0 40M-105-90v25C-105-7.01-57.99 40 0 40m0 50V40" class="primary" style="display:block" transform="translate(215 310)"/><path fill="none" stroke="#121330" stroke-linecap="round" stroke-linejoin="round" stroke-width="7" d="M-70 75H70M0 75v70m70-70.173V-74.827C70-113.613 38.69-145 0-145s-70 31.387-70 70.173V74.827C-70 113.613-38.69 145 0 145s70-31.387 70-70.173" class="primary" style="display:block" transform="translate(215 171)"/><path fill="none" stroke="#121330" stroke-linecap="round" stroke-width="7" d="M80 177.383v29.739M55 164v57m-25-37.174v17.348m320-13.056v7.764m25-22.614v35.964m25-43.284v52.004" class="primary" style="display:block"/></g><g clip-path="url(#A)" style="display:none"><path fill="none" class="primary" style="display:none"/><g style="display:none"><path class="tertiary"/><path class="tertiary"/><path class="tertiary" style="mix-blend-mode:multiply"/></g><g style="display:none"><path class="secondary"/><path class="secondary"/><path class="secondary" style="mix-blend-mode:multiply"/><path fill="none" class="quaternary"/></g><path fill="none" class="primary" style="display:none"/><g fill="none" style="display:none"><path class="primary"/><path class="primary"/></g></g><g clip-path="url(#B)" style="display:none"><g mask="url(#C)" style="display:none"><path class="tertiary"/><path class="tertiary"/><path class="tertiary" style="mix-blend-mode:multiply"/></g><g mask="url(#D)" style="display:none"><path class="secondary"/><path class="secondary"/><path class="secondary" style="mix-blend-mode:multiply"/></g><path fill="none" class="primary" style="display:none"/><g fill="none" style="display:none"><path class="quaternary"/><path class="quaternary"/><path class="primary"/><path class="primary"/></g><path fill="none" class="primary" style="display:none"/></g></g></svg>