<?xml version="1.0" encoding="UTF-8" standalone="no"?>
<svg width="800px" height="800px" viewBox="-20 0 104 104" version="1.1" xmlns="http://www.w3.org/2000/svg" xmlns:xlink="http://www.w3.org/1999/xlink">
    <!-- Uploaded to: SVG Repo, www.svgrepo.com, Generator: SVG Repo Mixer Tools -->
    <title>34-multimeda-mic-stand-up</title>
    <desc>Created with Sketch.</desc>
    <defs>
</defs>
    <g id="3.Multimedia" stroke="none" stroke-width="1" fill="none" fill-rule="evenodd" stroke-linecap="round" stroke-linejoin="round">
        <g id="Multimedia-(Color)" transform="translate(-718.000000, -702.000000)" stroke="#263238" stroke-width="3.5">
            <g id="34-multimeda-mic-stand-up" transform="translate(720.000000, 704.000000)">
                <rect id="Layer-1" fill="#CFD8DC" x="10" y="0" width="40" height="70" rx="20">
</rect>
                <path d="M10,20 L20,20" id="Layer-2" fill="#E2F3FB">
</path>
                <path d="M10,30 L20,30" id="Layer-3" fill="#E2F3FB">
</path>
                <path d="M10,40 L20,40" id="Layer-4" fill="#E2F3FB">
</path>
                <path d="M10,50 L20,50" id="Layer-5" fill="#E2F3FB">
</path>
                <path d="M40,50 L50,50" id="Layer-6" fill="#E2F3FB">
</path>
                <path d="M40,40 L50,40" id="Layer-7" fill="#E2F3FB">
</path>
                <path d="M40,30 L50,30" id="Layer-8" fill="#E2F3FB">
</path>
                <path d="M40,20 L50,20" id="Layer-9" fill="#E2F3FB">
</path>
                <path d="M60,49.9927367 C60,66.5652906 46.5721855,80 30,80 L30,80 C13.4314575,80 0,66.5673744 0,49.9927367" id="Layer-10">
</path>
                <path d="M30,80 L30,100" id="Layer-11" fill="#E2F3FB">
</path>
                <path d="M10,100 L50,100" id="Layer-12" fill="#E2F3FB">
</path>
                <path d="M0,50 L3,50" id="Layer-13" fill="#E2F3FB">
</path>
                <path d="M57,50 L60,50" id="Layer-14" fill="#E2F3FB">
</path>
            </g>
        </g>
    </g>
</svg>