<svg xmlns="http://www.w3.org/2000/svg" width="430" height="430" style="width:100%;height:100%;transform:translate3d(0,0,0);content-visibility:visible" viewBox="0 0 430 430"><defs><clipPath id="a"><path d="M0 0h430v430H0z"/></clipPath><clipPath id="d"><path d="M0 0h430v430H0z"/></clipPath><clipPath id="c"><path d="M0 0h430v430H0z"/></clipPath><clipPath id="b"><path d="M0 0h430v430H0z"/></clipPath></defs><g clip-path="url(#a)"><g clip-path="url(#b)" style="display:block"><g fill="#2CA48D" style="display:none"><path d="M346.931 67.121a3 3 0 0 0-4.242 0L174.957 234.852l-82.731-82.731a3 3 0 0 0-4.243 0l-55.862 55.861a3 3 0 0 0 0 4.243l140.715 140.714a3 3 0 0 0 4.242 0l225.715-225.714a3 3 0 0 0 0-4.243z" class="secondary"/><path fill-opacity=".5" d="m-42.508 24.822.043-.043v119.009a3 3 0 0 1-2.164-.879L-185.344 2.195a3 3 0 0 1 0-4.243l55.862-55.861a3 3 0 0 1 4.242-.001z" class="secondary" style="mix-blend-mode:multiply" transform="translate(217.457 210.03)"/></g><path fill="none" stroke="#121330" stroke-linecap="round" stroke-linejoin="round" stroke-width="3.5" d="M129.474-142.909a3 3 0 0 0-4.242 0L-42.5 24.822l-82.731-82.731a3 3 0 0 0-4.243 0l-55.862 55.861a3 3 0 0 0 0 4.243l140.715 140.714a3 3 0 0 0 4.242 0L185.336-82.805a3 3 0 0 0 0-4.243z" class="primary" style="display:none" transform="translate(217.457 210.03)"/><g fill="#2CA48D" style="display:block"><path d="M346.931 67.121a3 3 0 0 0-4.242 0L174.957 234.852l-82.731-82.731a3 3 0 0 0-4.243 0l-55.862 55.861a3 3 0 0 0 0 4.243l140.715 140.714a3 3 0 0 0 4.242 0l225.715-225.714a3 3 0 0 0 0-4.243z" class="secondary"/><path fill-opacity=".5" d="m-42.508 24.822.043-.043v119.009a3 3 0 0 1-2.164-.879L-185.344 2.195a3 3 0 0 1 0-4.243l55.862-55.861a3 3 0 0 1 4.242-.001z" class="secondary" style="mix-blend-mode:multiply" transform="translate(217.457 210.03)"/></g><path fill="none" stroke="#121330" stroke-linecap="round" stroke-linejoin="round" stroke-width="3.5" d="M346.931 67.121a3 3 0 0 0-4.242 0L174.957 234.852l-82.731-82.731a3 3 0 0 0-4.243 0l-55.862 55.861a3 3 0 0 0 0 4.243l140.715 140.714a3 3 0 0 0 4.242 0l225.715-225.714a3 3 0 0 0 0-4.243z" class="primary" style="display:block"/></g><g clip-path="url(#c)" style="display:none"><g style="display:none"><path class="secondary"/><path class="secondary" style="mix-blend-mode:multiply"/></g><path fill="none" class="primary" style="display:none"/></g><g clip-path="url(#d)" style="display:none"><g style="display:none"><path class="secondary"/><path class="secondary" style="mix-blend-mode:multiply"/></g><path fill="none" class="primary" style="display:none"/></g></g></svg>