<?xml version="1.0" encoding="iso-8859-1"?>
<!-- Uploaded to: SVG Repo, www.svgrepo.com, Generator: SVG Repo Mixer Tools -->
<svg height="800px" width="800px" version="1.1" id="Layer_1" xmlns="http://www.w3.org/2000/svg" xmlns:xlink="http://www.w3.org/1999/xlink" 
	 viewBox="0 0 512.001 512.001" xml:space="preserve">
<path style="fill:#36D9D9;" d="M338.675,232.961c-28.159,28.271-72.348,28.828-81.808,28.605h-4.008
	c-12.91,0-53.203-2.226-79.581-28.605c-31.054-30.943-28.606-81.363-28.495-83.478c0.445-8.57,7.234-15.36,15.804-15.805
	c1.671-0.111,42.742-2.115,73.573,20.035h43.63c30.831-22.15,71.903-20.146,73.573-20.035c8.57,0.445,15.359,7.235,15.804,15.805
	C367.281,151.597,369.73,202.018,338.675,232.961z"/>
<path style="fill:#43BFBF;" d="M351.366,133.677c-1.671-0.111-42.742-2.115-73.573,20.035h-21.791v107.854h0.867
	c9.46,0.223,53.648-0.334,81.808-28.605c31.054-30.943,28.606-81.363,28.495-83.478
	C366.724,140.912,359.936,134.122,351.366,133.677z"/>
<path style="fill:#FFC033;" d="M311.653,139.735c0,48.864-31.895,90.724-47.393,108.179c-4.394,4.949-12.123,4.949-16.518,0
	c-15.498-17.455-47.393-59.315-47.393-108.179c0-48.892,31.932-90.771,47.42-108.209c4.381-4.933,12.083-4.933,16.464,0
	C279.721,48.964,311.653,90.844,311.653,139.735z"/>
<path style="fill:#F9A926;" d="M264.259,247.914c15.499-17.455,47.394-59.315,47.394-108.179c0-48.892-31.932-90.771-47.42-108.209
	c-2.192-2.467-5.211-3.7-8.232-3.7v223.8C259.031,251.626,262.064,250.389,264.259,247.914z"/>
<path style="fill:#F26D76;" d="M503.653,190.442c-5.12-3.005-11.464-3.005-16.584,0c-50.061,28.59-89.599,57.847-158.497,50.977
	c-11.13-0.89-22.15-3.005-32.946-6.01c-11.13-3.209-24.585-7.235-39.625-7.235c-16.967,0-26.04,3.318-39.625,7.235
	c-10.797,3.117-21.704,5.231-32.722,6.233c-67.939,6.575-107.319-21.845-158.72-51.2c-5.12-3.005-11.464-3.005-16.584,0
	C3.117,193.448,0,198.901,0,204.912V343.82c0.001,76.34,60.709,140.355,136.349,140.355c41.628,0,80.25-18.477,106.408-51.089
	c3.561-4.452,8.012-10.463,13.244-10.129c4.562,0.111,10.128,6.233,13.244,10.129c26.269,32.835,65.448,51.089,107.076,51.089
	c73.754,0,135.68-63.025,135.68-140.355V204.912C512.001,198.901,508.885,193.448,503.653,190.442z M139.132,389.566
	c-30.72,0-55.652-15.026-55.652-33.391c0-18.365,24.932-33.391,55.652-33.391s55.652,15.026,55.652,33.391
	C194.784,374.54,169.852,389.566,139.132,389.566z M372.871,389.566c-30.72,0-55.652-15.026-55.652-33.391
	c0-18.365,24.932-33.391,55.652-33.391s55.652,15.026,55.652,33.391C428.523,374.54,403.591,389.566,372.871,389.566z"/>
<path style="fill:#E65C64;" d="M269.245,433.086c26.269,32.835,65.448,51.089,107.076,51.089c73.754,0,135.68-63.025,135.68-140.355
	V204.912c0-6.01-3.117-11.464-8.348-14.47c-5.12-3.005-11.464-3.005-16.584,0c-50.061,28.59-89.598,57.846-158.497,50.977
	c-11.13-0.89-22.15-3.005-32.946-6.01c-11.13-3.209-24.584-7.235-39.625-7.235v194.783
	C260.563,423.068,266.129,429.19,269.245,433.086z M372.871,322.783c30.72,0,55.652,15.026,55.652,33.391
	c0,18.365-24.932,33.391-55.652,33.391s-55.652-15.026-55.652-33.391C317.218,337.809,342.151,322.783,372.871,322.783z"/>
</svg>