<svg xmlns="http://www.w3.org/2000/svg" width="430" height="430" style="width:100%;height:100%;transform:translate3d(0,0,0);content-visibility:visible" viewBox="0 0 430 430"><defs><clipPath id="k"><path d="M0 0h430v430H0z"/></clipPath><clipPath id="G"><path d="M0 0h430v430H0z"/></clipPath><clipPath id="E"><path d="M0 0h430v430H0z"/></clipPath><clipPath id="z"><path d="M0 0h430v430H0z"/></clipPath><clipPath id="B"><path d="M0 0h430v430H0z"/></clipPath><clipPath id="w"><path d="M0 0h430v430H0z"/></clipPath><clipPath id="x"><path d="M0 0h430v430H0z"/></clipPath><clipPath id="y"><path d="M0 0h430v430H0z"/></clipPath><clipPath id="u"><path d="M0 0h430v430H0z"/></clipPath><clipPath id="v"><path d="M0 0h430v430H0z"/></clipPath><clipPath id="l"><path d="M0 0h430v430H0z"/></clipPath><clipPath id="m"><path d="M0 0h430v430H0z"/></clipPath><clipPath id="r"><path d="M0 0h430v430H0z"/></clipPath><clipPath id="n"><path d="M0 0h430v430H0z"/></clipPath><mask id="H" mask-type="alpha"><use xmlns:ns1="http://www.w3.org/1999/xlink" ns1:href="#a"/></mask><mask id="F" mask-type="alpha"><use xmlns:ns2="http://www.w3.org/1999/xlink" ns2:href="#b"/></mask><mask id="D" mask-type="alpha"><use xmlns:ns3="http://www.w3.org/1999/xlink" ns3:href="#c"/></mask><mask id="C" mask-type="alpha"><use xmlns:ns4="http://www.w3.org/1999/xlink" ns4:href="#d"/></mask><mask id="A" mask-type="alpha"><use xmlns:ns5="http://www.w3.org/1999/xlink" ns5:href="#e"/></mask><mask id="t" mask-type="alpha"><use xmlns:ns6="http://www.w3.org/1999/xlink" ns6:href="#f"/></mask><mask id="s" mask-type="alpha" maskUnits="userSpaceOnUse"><g filter="url(#g)"><path fill="#fff" d="M0 0h430v430H0z" opacity="0"/><use xmlns:ns7="http://www.w3.org/1999/xlink" ns7:href="#h"/></g></mask><mask id="q" mask-type="alpha"><use xmlns:ns8="http://www.w3.org/1999/xlink" ns8:href="#i"/></mask><mask id="o" mask-type="alpha"><use xmlns:ns9="http://www.w3.org/1999/xlink" ns9:href="#j"/></mask><g id="a" style="display:none"><path class="tertiary"/><path class="tertiary"/></g><g id="b" style="display:none"><path class="tertiary"/><path class="tertiary"/></g><g id="d" style="display:none"><path fill-opacity="0" stroke-linecap="round" stroke-linejoin="round" class="primary"/><path/></g><g id="c" style="display:none"><path/><path/></g><g id="e" style="display:none"><path class="tertiary"/><path class="tertiary"/></g><g id="f" style="display:none"><path/><path/></g><g id="i" style="display:none"><path/><path/></g><path id="h" class="primary" style="display:none"/><path id="j" class="primary" style="display:none"/><filter id="g" width="100%" height="100%" x="0%" y="0%" filterUnits="objectBoundingBox"><feComponentTransfer in="SourceGraphic"><feFuncA tableValues="1.0 0.0" type="table"/></feComponentTransfer></filter></defs><g clip-path="url(#k)"><g clip-path="url(#l)" style="display:none"><g clip-path="url(#m)" style="display:none"><g style="display:none"><path class="secondary"/><path class="secondary" style="mix-blend-mode:multiply"/></g><g clip-path="url(#n)" mask="url(#o)" style="display:none"><g style="display:none"><path class="primary"/><path class="primary"/></g><g mask="url(#q)" style="mix-blend-mode:multiply;display:none"><path class="primary"/><path class="primary"/></g><g style="display:none"><path class="primary"/><path class="primary" style="mix-blend-mode:multiply"/></g></g><g clip-path="url(#r)" mask="url(#s)" style="display:none"><path class="secondary" style="display:none"/><g mask="url(#t)" style="mix-blend-mode:multiply;display:none"><path class="secondary"/></g><g style="display:none"><path class="secondary"/><path class="secondary" style="mix-blend-mode:multiply"/></g></g></g></g><g clip-path="url(#u)" style="display:none"><g clip-path="url(#v)" style="display:none"><g style="display:none"><path class="secondary"/><path class="secondary" style="mix-blend-mode:multiply"/><path class="secondary" style="mix-blend-mode:multiply"/></g><g style="display:none"><path class="secondary"/><path class="secondary" style="mix-blend-mode:multiply"/></g><g style="display:none"><path class="secondary"/><path class="secondary" style="mix-blend-mode:multiply"/></g><g style="display:none"><path class="primary"/><path class="primary" style="mix-blend-mode:multiply"/></g><g style="display:none"><path class="primary"/><path class="primary" style="mix-blend-mode:multiply"/></g></g></g><g clip-path="url(#w)" style="display:block"><g clip-path="url(#x)" style="display:none"><g style="display:block"><g fill="#15C62D"><path d="M215 47.5c92.508 0 167.5 74.992 167.5 167.5S307.508 382.5 215 382.5 47.5 307.508 47.5 215 122.492 47.5 215 47.5" class="secondary"/><path fill-opacity=".5" d="M0-167.5c92.508 0 167.5 74.992 167.5 167.5S92.508 167.5 0 167.5-167.5 92.508-167.5 0-92.508-167.5 0-167.5" class="secondary" style="mix-blend-mode:multiply" transform="translate(215 215)"/></g><path fill="none" d="M170.247 99.509c16.684 0 32.798-2.439 48.006-6.981-24.468 13.987-52.803 21.982-83.006 21.982-92.508 0-167.5-74.992-167.5-167.5 0-75.823 50.381-139.88 119.493-160.52C36.765-184.656 2.747-130.296 2.747-67.991c0 92.508 74.992 167.5 167.5 167.5" class="secondary" style="mix-blend-mode:multiply" transform="translate(79.875 268.125)"/></g><g style="display:none"><path class="secondary"/><path class="secondary" style="mix-blend-mode:multiply"/></g><g fill="#15C62D" style="display:block"><path d="M215 47.5c92.508 0 167.5 74.992 167.5 167.5S307.508 382.5 215 382.5 47.5 307.508 47.5 215 122.492 47.5 215 47.5" class="secondary"/><path fill-opacity=".5" d="M170.247 99.509c16.684 0 32.798-2.439 48.006-6.981-24.468 13.987-52.803 21.982-83.006 21.982-92.508 0-167.5-74.992-167.5-167.5 0-75.823 50.381-139.88 119.493-160.52C36.765-184.656 2.747-130.296 2.747-67.991c0 92.508 74.992 167.5 167.5 167.5" class="secondary" style="mix-blend-mode:multiply" transform="translate(79.875 268.125)"/></g><g fill="#EBE6EE" style="display:block"><path d="M160.983 171.219c8.979-12.417 17.671-20.632 19.343-18.292 1.719 2.34 5.826 8.071 9.169 12.704 3.439 4.68 7.26 9.933 8.597 11.796 1.337 1.815-.764 6.496-4.68 10.412s-5.349 8.836-3.2 10.985l45.944 45.944c1.767 1.767 6.4.048 10.316-3.868s8.453-6.114 10.077-4.92 7.308 5.302 12.657 9.218 11.271 8.214 13.229 9.647-6.448 9.935-18.77 19.009-37.491 1.289-56.117-17.337l-29.037-29.038c-18.626-18.626-26.507-43.843-17.528-56.26" class="primary"/><path fill-opacity=".5" d="M-48.599-54.46a142 142 0 0 1 5.801-7.504c-3.723 2.56-9.696 9.061-15.801 17.504-8.979 12.417-1.098 37.634 17.528 56.26l29.037 29.038c18.626 18.626 43.796 26.41 56.118 17.336 9.009-6.634 15.924-12.962 18.226-16.445a168 168 0 0 1-8.226 6.445c-12.322 9.074-37.492 1.29-56.118-17.336L-31.071 1.8c-18.626-18.626-26.507-43.843-17.528-56.26" class="primary" style="mix-blend-mode:multiply" transform="translate(219.37 215.711)"/></g><g fill="#EBE6EE" style="display:block"><path d="M219.5 97.75c-64.621 0-117.006 52.385-117.006 117.006 0 24.17 7.339 46.652 19.908 65.307l-5.957 53.313 48.424-15.126c16.316 8.629 34.916 13.512 54.631 13.512 64.621 0 117.006-52.385 117.006-117.006S284.121 97.75 219.5 97.75m-97.006 117.006c0-53.575 43.431-97.006 97.006-97.006s97.006 43.431 97.006 97.006-43.431 97.006-97.006 97.006c-17.806 0-34.463-4.788-48.787-13.141l-4.11-2.396-28.936 10.9 5.967-31.756-2.549-3.492c-11.693-16.022-18.591-35.752-18.591-57.121" class="primary"/><path fill-opacity=".5" d="M58.503-97.813c-53.575 0-97.006 43.431-97.006 97.006 0 21.369 6.898 41.099 18.591 57.121l2.549 3.492-5.967 31.756 28.936-10.9 4.11 2.396c14.324 8.353 30.981 13.141 48.787 13.141v20c-19.715 0-38.315-4.883-54.631-13.512l-48.424 15.126 5.957-53.313C-51.164 45.845-58.503 23.363-58.503-.807c0-64.621 52.385-117.006 117.006-117.006z" class="primary" style="mix-blend-mode:multiply" transform="translate(161.25 215.563)"/></g></g><g clip-path="url(#y)" style="display:block"><g style="display:block"><path fill="#15C62D" d="M215 47.5c92.508 0 167.5 74.992 167.5 167.5S307.508 382.5 215 382.5 47.5 307.508 47.5 215 122.492 47.5 215 47.5" class="secondary"/><path fill="none" d="M0-167.5c92.508 0 167.5 74.992 167.5 167.5S92.508 167.5 0 167.5-167.5 92.508-167.5 0-92.508-167.5 0-167.5" class="secondary" style="mix-blend-mode:multiply" transform="translate(215 215)"/><path fill="#15C62D" fill-opacity=".5" d="M170.247 99.509c16.684 0 32.798-2.439 48.006-6.981-24.468 13.987-52.803 21.982-83.006 21.982-92.508 0-167.5-74.992-167.5-167.5 0-75.823 50.381-139.88 119.493-160.52C36.765-184.656 2.747-130.296 2.747-67.991c0 92.508 74.992 167.5 167.5 167.5" class="secondary" style="mix-blend-mode:multiply" transform="translate(79.875 268.125)"/></g><g style="display:block"><path fill="#15C62D" d="M214.375 47.25c231.875 10.75 212.125 332.5.25 336 .375 0-8.385.177-.625 0 208-4.75 225.5-321.75-.25-336-2.117-.134-.442-.049.625 0" class="secondary"/><path fill="none" d="M9.375-168.25c231.875 10.75 212.125 332.5.25 336 .375 0-8.385.177-.625 0 208-4.75 225.5-321.75-.25-336-2.117-.134-.442-.049.625 0" class="secondary" style="mix-blend-mode:multiply" transform="translate(205 215.5)"/></g><g style="display:block"><path fill="#15C62D" d="M240.5 47.529c.276 0 .5 74.992.5 167.5s-.224 167.5-.5 167.5-.5-74.992-.5-167.5.224-167.5.5-167.5" class="secondary"/><path fill="none" d="M160.73 99.538c.05 0 .098-2.439.143-6.981-.073 13.987-.158 21.981-.248 21.981-.276 0-.5-74.992-.5-167.5 0-75.823.151-139.879.357-160.519-.151 28.854-.252 83.214-.252 145.519 0 92.508.224 167.5.5 167.5" class="secondary" style="mix-blend-mode:multiply" transform="translate(79.875 268.125)"/></g><g fill="#EBE6EE" style="display:block"><path d="M160.983 171.219c8.979-12.417 17.671-20.632 19.343-18.292 1.719 2.34 5.826 8.071 9.169 12.704 3.439 4.68 7.26 9.933 8.597 11.796 1.337 1.815-.764 6.496-4.68 10.412s-5.349 8.836-3.2 10.985l45.944 45.944c1.767 1.767 6.4.048 10.316-3.868s8.453-6.114 10.077-4.92 7.308 5.302 12.657 9.218 11.271 8.214 13.229 9.647-6.448 9.935-18.77 19.009-37.491 1.289-56.117-17.337l-29.037-29.038c-18.626-18.626-26.507-43.843-17.528-56.26" class="primary"/><path fill-opacity=".5" d="M-48.599-54.46a142 142 0 0 1 5.801-7.504c-3.723 2.56-9.696 9.061-15.801 17.504-8.979 12.417-1.098 37.634 17.528 56.26l29.037 29.038c18.626 18.626 43.796 26.41 56.118 17.336 9.009-6.634 15.924-12.962 18.226-16.445a168 168 0 0 1-8.226 6.445c-12.322 9.074-37.492 1.29-56.118-17.336L-31.071 1.8c-18.626-18.626-26.507-43.843-17.528-56.26" class="primary" style="mix-blend-mode:multiply" transform="translate(219.37 215.711)"/></g><g fill="#EBE6EE" style="display:block"><path d="M219.5 97.75c-64.621 0-117.006 52.385-117.006 117.006 0 24.17 7.339 46.652 19.908 65.307l-5.957 53.313 48.424-15.126c16.316 8.629 34.916 13.512 54.631 13.512 64.621 0 117.006-52.385 117.006-117.006S284.121 97.75 219.5 97.75m-97.006 117.006c0-53.575 43.431-97.006 97.006-97.006s97.006 43.431 97.006 97.006-43.431 97.006-97.006 97.006c-17.806 0-34.463-4.788-48.787-13.141l-4.11-2.396-28.936 10.9 5.967-31.756-2.549-3.492c-11.693-16.022-18.591-35.752-18.591-57.121" class="primary"/><path fill-opacity=".5" d="M58.503-97.813c-53.575 0-97.006 43.431-97.006 97.006 0 21.369 6.898 41.099 18.591 57.121l2.549 3.492-5.967 31.756 28.936-10.9 4.11 2.396c14.324 8.353 30.981 13.141 48.787 13.141v20c-19.715 0-38.315-4.883-54.631-13.512l-48.424 15.126 5.957-53.313C-51.164 45.845-58.503 23.363-58.503-.807c0-64.621 52.385-117.006 117.006-117.006z" class="primary" style="mix-blend-mode:multiply" transform="translate(161.25 215.563)"/></g></g></g><g clip-path="url(#z)" style="display:none"><g style="display:none"><path class="secondary"/><path class="secondary" style="mix-blend-mode:multiply"/></g><g style="display:none"><path class="primary"/><path class="primary"/></g><g mask="url(#A)" style="mix-blend-mode:multiply;display:none"><path class="primary"/><path class="primary"/></g><g style="display:none"><path class="primary"/><path class="primary" style="mix-blend-mode:multiply"/></g><g clip-path="url(#B)" mask="url(#C)" style="display:none"><g style="display:none"><path class="primary"/><path class="primary"/></g><g mask="url(#D)" style="mix-blend-mode:multiply;display:none"><path class="primary"/><path class="primary"/></g><g style="display:none"><path class="primary"/><path class="primary" style="mix-blend-mode:multiply"/></g></g></g><g clip-path="url(#E)" style="display:none"><g style="display:none"><path class="secondary"/><path class="secondary" style="mix-blend-mode:multiply"/></g><path fill="none" class="secondary" style="display:none"/><g style="display:none"><path class="primary"/><path class="primary"/></g><g mask="url(#F)" style="mix-blend-mode:multiply;display:none"><path class="primary"/><path class="primary"/></g><g style="display:none"><path class="primary"/><path class="primary" style="mix-blend-mode:multiply"/></g></g><g clip-path="url(#G)" style="display:none"><g style="display:none"><path class="secondary"/><path class="secondary" style="mix-blend-mode:multiply"/></g><g style="display:none"><path class="primary"/><path class="primary" style="mix-blend-mode:multiply"/></g><g style="display:none"><path class="primary"/><path class="primary"/></g><g mask="url(#H)" style="mix-blend-mode:multiply;display:none"><path class="primary"/><path class="primary"/></g></g></g></svg>