<?xml version="1.0"?>
<svg xmlns="http://www.w3.org/2000/svg" xmlns:xlink="http://www.w3.org/1999/xlink" version="1.1" width="540px" height="540px" viewBox="0 0 540 540"><rect x="0" y="0" width="540" height="540" fill="#ffffff" fill-opacity="1"/><path fill="#000000" fill-opacity="1" d="M42,42L98,42L98,50L42,50ZM122,42L130,42L130,50L122,50ZM138,42L154,42L154,50L138,50ZM186,42L194,42L194,50L186,50ZM210,42L218,42L218,50L210,50ZM226,42L242,42L242,50L226,50ZM250,42L274,42L274,50L250,50ZM282,42L290,42L290,50L282,50ZM298,42L322,42L322,50L298,50ZM338,42L346,42L346,50L338,50ZM362,42L378,42L378,50L362,50ZM394,42L402,42L402,50L394,50ZM410,42L426,42L426,50L410,50ZM442,42L498,42L498,50L442,50ZM42,50L50,50L50,58L42,58ZM90,50L98,50L98,58L90,58ZM122,50L138,50L138,58L122,58ZM154,50L162,50L162,58L154,58ZM170,50L178,50L178,58L170,58ZM186,50L210,50L210,58L186,58ZM226,50L234,50L234,58L226,58ZM242,50L250,50L250,58L242,58ZM290,50L298,50L298,58L290,58ZM322,50L346,50L346,58L322,58ZM354,50L362,50L362,58L354,58ZM386,50L394,50L394,58L386,58ZM418,50L426,50L426,58L418,58ZM442,50L450,50L450,58L442,58ZM490,50L498,50L498,58L490,58ZM42,58L50,58L50,66L42,66ZM58,58L82,58L82,66L58,66ZM90,58L98,58L98,66L90,66ZM106,58L114,58L114,66L106,66ZM122,58L130,58L130,66L122,66ZM138,58L146,58L146,66L138,66ZM162,58L170,58L170,66L162,66ZM186,58L194,58L194,66L186,66ZM202,58L226,58L226,66L202,66ZM234,58L250,58L250,66L234,66ZM258,58L290,58L290,66L258,66ZM330,58L338,58L338,66L330,66ZM354,58L370,58L370,66L354,66ZM378,58L386,58L386,66L378,66ZM394,58L426,58L426,66L394,66ZM442,58L450,58L450,66L442,66ZM458,58L482,58L482,66L458,66ZM490,58L498,58L498,66L490,66ZM42,66L50,66L50,74L42,74ZM58,66L82,66L82,74L58,74ZM90,66L98,66L98,74L90,74ZM106,66L130,66L130,74L106,74ZM138,66L162,66L162,74L138,74ZM170,66L194,66L194,74L170,74ZM210,66L218,66L218,74L210,74ZM250,66L282,66L282,74L250,74ZM314,66L322,66L322,74L314,74ZM330,66L338,66L338,74L330,74ZM346,66L362,66L362,74L346,74ZM370,66L378,66L378,74L370,74ZM394,66L410,66L410,74L394,74ZM418,66L426,66L426,74L418,74ZM442,66L450,66L450,74L442,74ZM458,66L482,66L482,74L458,74ZM490,66L498,66L498,74L490,74ZM42,74L50,74L50,82L42,82ZM58,74L82,74L82,82L58,82ZM90,74L98,74L98,82L90,82ZM106,74L130,74L130,82L106,82ZM146,74L154,74L154,82L146,82ZM186,74L194,74L194,82L186,82ZM234,74L242,74L242,82L234,82ZM250,74L290,74L290,82L250,82ZM322,74L330,74L330,82L322,82ZM362,74L370,74L370,82L362,82ZM386,74L402,74L402,82L386,82ZM418,74L426,74L426,82L418,82ZM442,74L450,74L450,82L442,82ZM458,74L482,74L482,82L458,82ZM490,74L498,74L498,82L490,82ZM42,82L50,82L50,90L42,90ZM90,82L98,82L98,90L90,90ZM106,82L138,82L138,90L106,90ZM146,82L170,82L170,90L146,90ZM194,82L218,82L218,90L194,90ZM242,82L258,82L258,90L242,90ZM282,82L290,82L290,90L282,90ZM306,82L314,82L314,90L306,90ZM322,82L338,82L338,90L322,90ZM346,82L354,82L354,90L346,90ZM402,82L418,82L418,90L402,90ZM442,82L450,82L450,90L442,90ZM490,82L498,82L498,90L490,90ZM42,90L98,90L98,98L42,98ZM106,90L114,90L114,98L106,98ZM122,90L130,90L130,98L122,98ZM138,90L146,90L146,98L138,98ZM154,90L162,90L162,98L154,98ZM170,90L178,90L178,98L170,98ZM186,90L194,90L194,98L186,98ZM202,90L210,90L210,98L202,98ZM218,90L226,90L226,98L218,98ZM234,90L242,90L242,98L234,98ZM250,90L258,90L258,98L250,98ZM266,90L274,90L274,98L266,98ZM282,90L290,90L290,98L282,98ZM298,90L306,90L306,98L298,98ZM314,90L322,90L322,98L314,98ZM330,90L338,90L338,98L330,98ZM346,90L354,90L354,98L346,98ZM362,90L370,90L370,98L362,98ZM378,90L386,90L386,98L378,98ZM394,90L402,90L402,98L394,98ZM410,90L418,90L418,98L410,98ZM426,90L434,90L434,98L426,98ZM442,90L498,90L498,98L442,98ZM106,98L122,98L122,106L106,106ZM130,98L162,98L162,106L130,106ZM186,98L202,98L202,106L186,106ZM234,98L242,98L242,106L234,106ZM250,98L258,98L258,106L250,106ZM282,98L290,98L290,106L282,106ZM306,98L314,98L314,106L306,106ZM322,98L338,98L338,106L322,106ZM354,98L402,98L402,106L354,106ZM418,98L434,98L434,106L418,106ZM42,106L50,106L50,114L42,114ZM58,106L98,106L98,114L58,114ZM122,106L130,106L130,114L122,114ZM162,106L170,106L170,114L162,114ZM178,106L202,106L202,114L178,114ZM210,106L218,106L218,114L210,114ZM234,106L242,106L242,114L234,114ZM250,106L306,106L306,114L250,114ZM314,106L362,106L362,114L314,114ZM386,106L402,106L402,114L386,114ZM410,106L418,106L418,114L410,114ZM442,106L482,106L482,114L442,114ZM50,114L58,114L58,122L50,122ZM74,114L90,114L90,122L74,122ZM106,114L114,114L114,122L106,122ZM122,114L138,114L138,122L122,122ZM146,114L162,114L162,122L146,122ZM178,114L186,114L186,122L178,122ZM194,114L210,114L210,122L194,122ZM234,114L250,114L250,122L234,122ZM266,114L274,114L274,122L266,122ZM282,114L298,114L298,122L282,122ZM306,114L314,114L314,122L306,122ZM346,114L370,114L370,122L346,122ZM378,114L386,114L386,122L378,122ZM394,114L402,114L402,122L394,122ZM426,114L434,114L434,122L426,122ZM450,114L458,114L458,122L450,122ZM474,114L482,114L482,122L474,122ZM490,114L498,114L498,122L490,122ZM50,122L82,122L82,130L50,130ZM90,122L106,122L106,130L90,130ZM114,122L146,122L146,130L114,130ZM154,122L186,122L186,130L154,130ZM194,122L202,122L202,130L194,130ZM218,122L234,122L234,130L218,130ZM250,122L266,122L266,130L250,130ZM274,122L282,122L282,130L274,130ZM290,122L298,122L298,130L290,130ZM306,122L338,122L338,130L306,130ZM346,122L362,122L362,130L346,130ZM370,122L386,122L386,130L370,130ZM402,122L410,122L410,130L402,130ZM434,122L450,122L450,130L434,130ZM466,122L474,122L474,130L466,130ZM50,130L90,130L90,138L50,138ZM106,130L114,130L114,138L106,138ZM122,130L130,130L130,138L122,138ZM154,130L186,130L186,138L154,138ZM194,130L226,130L226,138L194,138ZM234,130L242,130L242,138L234,138ZM250,130L258,130L258,138L250,138ZM274,130L306,130L306,138L274,138ZM338,130L346,130L346,138L338,138ZM354,130L386,130L386,138L354,138ZM394,130L410,130L410,138L394,138ZM418,130L442,130L442,138L418,138ZM450,130L458,130L458,138L450,138ZM474,130L482,130L482,138L474,138ZM42,138L66,138L66,146L42,146ZM74,138L82,138L82,146L74,146ZM90,138L98,138L98,146L90,146ZM114,138L170,138L170,146L114,146ZM178,138L202,138L202,146L178,146ZM218,138L226,138L226,146L218,146ZM234,138L250,138L250,146L234,146ZM258,138L266,138L266,146L258,146ZM290,138L306,138L306,146L290,146ZM314,138L362,138L362,146L314,146ZM378,138L386,138L386,146L378,146ZM394,138L418,138L418,146L394,146ZM426,138L442,138L442,146L426,146ZM450,138L466,138L466,146L450,146ZM482,138L490,138L490,146L482,146ZM42,146L50,146L50,154L42,154ZM58,146L66,146L66,154L58,154ZM74,146L90,146L90,154L74,154ZM98,146L122,146L122,154L98,154ZM138,146L170,146L170,154L138,154ZM186,146L194,146L194,154L186,154ZM202,146L218,146L218,154L202,154ZM226,146L234,146L234,154L226,154ZM242,146L258,146L258,154L242,154ZM274,146L282,146L282,154L274,154ZM298,146L306,146L306,154L298,154ZM330,146L346,146L346,154L330,154ZM354,146L370,146L370,154L354,154ZM378,146L386,146L386,154L378,154ZM394,146L402,146L402,154L394,154ZM410,146L418,146L418,154L410,154ZM426,146L450,146L450,154L426,154ZM458,146L466,146L466,154L458,154ZM474,146L482,146L482,154L474,154ZM42,154L50,154L50,162L42,162ZM74,154L106,154L106,162L74,162ZM122,154L130,154L130,162L122,162ZM154,154L170,154L170,162L154,162ZM202,154L210,154L210,162L202,162ZM218,154L226,154L226,162L218,162ZM250,154L266,154L266,162L250,162ZM290,154L298,154L298,162L290,162ZM306,154L314,154L314,162L306,162ZM322,154L338,154L338,162L322,162ZM346,154L362,154L362,162L346,162ZM386,154L394,154L394,162L386,162ZM402,154L410,154L410,162L402,162ZM450,154L458,154L458,162L450,162ZM466,154L474,154L474,162L466,162ZM50,162L66,162L66,170L50,170ZM74,162L90,162L90,170L74,170ZM98,162L106,162L106,170L98,170ZM114,162L130,162L130,170L114,170ZM138,162L146,162L146,170L138,170ZM154,162L186,162L186,170L154,170ZM194,162L202,162L202,170L194,170ZM218,162L234,162L234,170L218,170ZM242,162L274,162L274,170L242,170ZM282,162L298,162L298,170L282,170ZM330,162L346,162L346,170L330,170ZM354,162L362,162L362,170L354,170ZM378,162L394,162L394,170L378,170ZM402,162L410,162L410,170L402,170ZM426,162L442,162L442,170L426,170ZM450,162L482,162L482,170L450,170ZM42,170L58,170L58,178L42,178ZM66,170L82,170L82,178L66,178ZM90,170L98,170L98,178L90,178ZM106,170L138,170L138,178L106,178ZM154,170L178,170L178,178L154,178ZM186,170L194,170L194,178L186,178ZM258,170L266,170L266,178L258,178ZM314,170L322,170L322,178L314,178ZM346,170L354,170L354,178L346,178ZM362,170L370,170L370,178L362,178ZM410,170L418,170L418,178L410,178ZM442,170L450,170L450,178L442,178ZM466,170L482,170L482,178L466,178ZM42,178L58,178L58,186L42,186ZM82,178L90,178L90,186L82,186ZM106,178L122,178L122,186L106,186ZM138,178L146,178L146,186L138,186ZM162,178L170,178L170,186L162,186ZM178,178L186,178L186,186L178,186ZM202,178L210,178L210,186L202,186ZM258,178L282,178L282,186L258,186ZM298,178L306,178L306,186L298,186ZM338,178L370,178L370,186L338,186ZM378,178L410,178L410,186L378,186ZM426,178L434,178L434,186L426,186ZM442,178L458,178L458,186L442,186ZM474,178L498,178L498,186L474,186ZM74,186L98,186L98,194L74,194ZM130,186L154,186L154,194L130,194ZM162,186L170,186L170,194L162,194ZM186,186L226,186L226,194L186,194ZM250,186L258,186L258,194L250,194ZM274,186L282,186L282,194L274,194ZM290,186L298,186L298,194L290,194ZM322,186L338,186L338,194L322,194ZM354,186L362,186L362,194L354,194ZM434,186L442,186L442,194L434,194ZM490,186L498,186L498,194L490,194ZM42,194L50,194L50,202L42,202ZM74,194L90,194L90,202L74,202ZM98,194L122,194L122,202L98,202ZM130,194L138,194L138,202L130,202ZM146,194L162,194L162,202L146,202ZM170,194L178,194L178,202L170,202ZM186,194L242,194L242,202L186,202ZM266,194L282,194L282,202L266,202ZM290,194L298,194L298,202L290,202ZM338,194L346,194L346,202L338,202ZM354,194L394,194L394,202L354,202ZM426,194L434,194L434,202L426,202ZM450,194L458,194L458,202L450,202ZM466,194L474,194L474,202L466,202ZM490,194L498,194L498,202L490,202ZM42,202L58,202L58,210L42,210ZM66,202L74,202L74,210L66,210ZM82,202L106,202L106,210L82,210ZM122,202L130,202L130,210L122,210ZM146,202L162,202L162,210L146,210ZM170,202L186,202L186,210L170,210ZM210,202L226,202L226,210L210,210ZM250,202L258,202L258,210L250,210ZM266,202L274,202L274,210L266,210ZM290,202L338,202L338,210L290,210ZM354,202L362,202L362,210L354,210ZM370,202L378,202L378,210L370,210ZM386,202L394,202L394,210L386,210ZM402,202L450,202L450,210L402,210ZM482,202L490,202L490,210L482,210ZM42,210L50,210L50,218L42,218ZM66,210L82,210L82,218L66,218ZM98,210L106,210L106,218L98,218ZM146,210L194,210L194,218L146,218ZM210,210L226,210L226,218L210,218ZM234,210L250,210L250,218L234,218ZM258,210L282,210L282,218L258,218ZM298,210L314,210L314,218L298,218ZM362,210L386,210L386,218L362,218ZM394,210L434,210L434,218L394,218ZM458,210L474,210L474,218L458,218ZM42,218L58,218L58,226L42,226ZM66,218L74,218L74,226L66,226ZM82,218L98,218L98,226L82,226ZM106,218L122,218L122,226L106,226ZM130,218L138,218L138,226L130,226ZM146,218L170,218L170,226L146,226ZM186,218L202,218L202,226L186,226ZM250,218L258,218L258,226L250,226ZM282,218L298,218L298,226L282,226ZM314,218L338,218L338,226L314,226ZM346,218L362,218L362,226L346,226ZM378,218L394,218L394,226L378,226ZM442,218L450,218L450,226L442,226ZM474,218L482,218L482,226L474,226ZM490,218L498,218L498,226L490,226ZM50,226L58,226L58,234L50,234ZM66,226L74,226L74,234L66,234ZM82,226L90,226L90,234L82,234ZM106,226L114,226L114,234L106,234ZM122,226L130,226L130,234L122,234ZM146,226L170,226L170,234L146,234ZM178,226L186,226L186,234L178,234ZM194,226L226,226L226,234L194,234ZM234,226L266,226L266,234L234,234ZM274,226L298,226L298,234L274,234ZM338,226L346,226L346,234L338,234ZM378,226L386,226L386,234L378,234ZM394,226L402,226L402,234L394,234ZM418,226L434,226L434,234L418,234ZM482,226L498,226L498,234L482,234ZM58,234L66,234L66,242L58,242ZM74,234L82,234L82,242L74,242ZM90,234L146,234L146,242L90,242ZM154,234L186,234L186,242L154,242ZM242,234L250,234L250,242L242,242ZM290,234L306,234L306,242L290,242ZM314,234L322,234L322,242L314,242ZM330,234L354,234L354,242L330,242ZM370,234L378,234L378,242L370,242ZM402,234L434,234L434,242L402,242ZM442,234L450,234L450,242L442,242ZM458,234L466,234L466,242L458,242ZM474,234L482,234L482,242L474,242ZM42,242L50,242L50,250L42,250ZM58,242L66,242L66,250L58,250ZM98,242L106,242L106,250L98,250ZM114,242L122,242L122,250L114,250ZM138,242L146,242L146,250L138,250ZM154,242L194,242L194,250L154,250ZM202,242L226,242L226,250L202,250ZM242,242L250,242L250,250L242,250ZM266,242L306,242L306,250L266,250ZM338,242L346,242L346,250L338,250ZM362,242L370,242L370,250L362,250ZM378,242L386,242L386,250L378,250ZM394,242L482,242L482,250L394,250ZM50,250L58,250L58,258L50,258ZM66,250L114,250L114,258L66,258ZM130,250L146,250L146,258L130,258ZM170,250L186,250L186,258L170,258ZM194,250L210,250L210,258L194,258ZM218,250L234,250L234,258L218,258ZM242,250L298,250L298,258L242,258ZM306,250L314,250L314,258L306,258ZM330,250L338,250L338,258L330,258ZM378,250L386,250L386,258L378,258ZM426,250L466,250L466,258L426,258ZM474,250L482,250L482,258L474,258ZM42,258L66,258L66,266L42,266ZM74,258L82,258L82,266L74,266ZM106,258L122,258L122,266L106,266ZM138,258L146,258L146,266L138,266ZM154,258L162,258L162,266L154,266ZM194,258L210,258L210,266L194,266ZM234,258L242,258L242,266L234,266ZM250,258L258,258L258,266L250,266ZM282,258L290,258L290,266L282,266ZM298,258L314,258L314,266L298,266ZM322,258L330,258L330,266L322,266ZM354,258L362,258L362,266L354,266ZM370,258L386,258L386,266L370,266ZM418,258L434,258L434,266L418,266ZM458,258L466,258L466,266L458,266ZM474,258L498,258L498,266L474,266ZM42,266L58,266L58,274L42,274ZM74,266L82,266L82,274L74,274ZM90,266L98,266L98,274L90,274ZM106,266L114,266L114,274L106,274ZM122,266L130,266L130,274L122,274ZM138,266L146,266L146,274L138,274ZM170,266L178,266L178,274L170,274ZM202,266L210,266L210,274L202,274ZM250,266L258,266L258,274L250,274ZM266,266L274,266L274,274L266,274ZM282,266L290,266L290,274L282,274ZM298,266L306,266L306,274L298,274ZM314,266L322,266L322,274L314,274ZM338,266L354,266L354,274L338,274ZM362,266L370,266L370,274L362,274ZM386,266L402,266L402,274L386,274ZM418,266L434,266L434,274L418,274ZM442,266L450,266L450,274L442,274ZM458,266L482,266L482,274L458,274ZM58,274L82,274L82,282L58,282ZM106,274L122,274L122,282L106,282ZM130,274L154,274L154,282L130,282ZM170,274L186,274L186,282L170,282ZM218,274L226,274L226,282L218,282ZM234,274L258,274L258,282L234,282ZM282,274L306,274L306,282L282,282ZM354,274L370,274L370,282L354,282ZM378,274L394,274L394,282L378,282ZM410,274L418,274L418,282L410,282ZM426,274L434,274L434,282L426,282ZM458,274L466,274L466,282L458,282ZM474,274L490,274L490,282L474,282ZM42,282L114,282L114,290L42,290ZM122,282L154,282L154,290L122,290ZM162,282L170,282L170,290L162,290ZM178,282L186,282L186,290L178,290ZM194,282L202,282L202,290L194,290ZM210,282L234,282L234,290L210,290ZM250,282L290,282L290,290L250,290ZM314,282L346,282L346,290L314,290ZM354,282L362,282L362,290L354,290ZM370,282L378,282L378,290L370,290ZM386,282L394,282L394,290L386,290ZM410,282L418,282L418,290L410,290ZM426,282L474,282L474,290L426,290ZM482,282L490,282L490,290L482,290ZM42,290L58,290L58,298L42,298ZM66,290L74,290L74,298L66,298ZM82,290L90,290L90,298L82,298ZM106,290L114,290L114,298L106,298ZM122,290L130,290L130,298L122,298ZM138,290L146,290L146,298L138,298ZM154,290L162,290L162,298L154,298ZM218,290L226,290L226,298L218,298ZM234,290L242,290L242,298L234,298ZM250,290L258,290L258,298L250,298ZM274,290L298,290L298,298L274,298ZM330,290L346,290L346,298L330,298ZM354,290L362,290L362,298L354,298ZM370,290L386,290L386,298L370,298ZM402,290L410,290L410,298L402,298ZM418,290L442,290L442,298L418,298ZM466,290L498,290L498,298L466,298ZM50,298L58,298L58,306L50,306ZM66,298L74,298L74,306L66,306ZM82,298L98,298L98,306L82,306ZM106,298L114,298L114,306L106,306ZM138,298L162,298L162,306L138,306ZM194,298L210,298L210,306L194,306ZM218,298L290,298L290,306L218,306ZM298,298L306,298L306,306L298,306ZM330,298L338,298L338,306L330,306ZM346,298L354,298L354,306L346,306ZM378,298L394,298L394,306L378,306ZM402,298L418,298L418,306L402,306ZM426,298L434,298L434,306L426,306ZM450,298L458,298L458,306L450,306ZM466,298L482,298L482,306L466,306ZM50,306L82,306L82,314L50,314ZM106,306L138,306L138,314L106,314ZM146,306L210,306L210,314L146,314ZM234,306L250,306L250,314L234,314ZM258,306L266,306L266,314L258,314ZM298,306L306,306L306,314L298,314ZM314,306L330,306L330,314L314,314ZM338,306L346,306L346,314L338,314ZM354,306L370,306L370,314L354,314ZM386,306L410,306L410,314L386,314ZM418,306L434,306L434,314L418,314ZM442,306L466,306L466,314L442,314ZM474,306L482,306L482,314L474,314ZM82,314L106,314L106,322L82,322ZM146,314L162,314L162,322L146,322ZM170,314L194,314L194,322L170,322ZM218,314L242,314L242,322L218,322ZM250,314L298,314L298,322L250,322ZM314,314L322,314L322,322L314,322ZM330,314L346,314L346,322L330,322ZM386,314L394,314L394,322L386,322ZM402,314L418,314L418,322L402,322ZM458,314L474,314L474,322L458,322ZM482,314L490,314L490,322L482,322ZM66,322L90,322L90,330L66,330ZM106,322L130,322L130,330L106,330ZM146,322L162,322L162,330L146,330ZM170,322L186,322L186,330L170,330ZM210,322L218,322L218,330L210,330ZM234,322L242,322L242,330L234,330ZM258,322L266,322L266,330L258,330ZM274,322L290,322L290,330L274,330ZM354,322L370,322L370,330L354,330ZM378,322L410,322L410,330L378,330ZM426,322L434,322L434,330L426,330ZM442,322L458,322L458,330L442,330ZM466,322L482,322L482,330L466,330ZM490,322L498,322L498,330L490,330ZM42,330L50,330L50,338L42,338ZM58,330L66,330L66,338L58,338ZM82,330L98,330L98,338L82,338ZM114,330L122,330L122,338L114,338ZM146,330L154,330L154,338L146,338ZM170,330L194,330L194,338L170,338ZM218,330L226,330L226,338L218,338ZM234,330L242,330L242,338L234,338ZM258,330L266,330L266,338L258,338ZM274,330L290,330L290,338L274,338ZM298,330L306,330L306,338L298,338ZM314,330L322,330L322,338L314,338ZM330,330L338,330L338,338L330,338ZM346,330L362,330L362,338L346,338ZM370,330L378,330L378,338L370,338ZM410,330L426,330L426,338L410,338ZM450,330L458,330L458,338L450,338ZM466,330L474,330L474,338L466,338ZM490,330L498,330L498,338L490,338ZM58,338L82,338L82,346L58,346ZM98,338L106,338L106,346L98,346ZM122,338L138,338L138,346L122,346ZM146,338L178,338L178,346L146,346ZM194,338L202,338L202,346L194,346ZM218,338L242,338L242,346L218,346ZM250,338L258,338L258,346L250,346ZM266,338L290,338L290,346L266,346ZM298,338L314,338L314,346L298,346ZM354,338L370,338L370,346L354,346ZM378,338L402,338L402,346L378,346ZM418,338L434,338L434,346L418,346ZM442,338L458,338L458,346L442,346ZM466,338L498,338L498,346L466,346ZM42,346L50,346L50,354L42,354ZM66,346L74,346L74,354L66,354ZM82,346L106,346L106,354L82,354ZM114,346L178,346L178,354L114,354ZM194,346L202,346L202,354L194,354ZM226,346L234,346L234,354L226,354ZM258,346L282,346L282,354L258,354ZM290,346L298,346L298,354L290,354ZM306,346L322,346L322,354L306,354ZM330,346L338,346L338,354L330,354ZM346,346L362,346L362,354L346,354ZM370,346L386,346L386,354L370,354ZM402,346L418,346L418,354L402,354ZM434,346L450,346L450,354L434,354ZM458,346L466,346L466,354L458,354ZM50,354L82,354L82,362L50,362ZM106,354L114,354L114,362L106,362ZM130,354L138,354L138,362L130,362ZM170,354L178,354L178,362L170,362ZM194,354L202,354L202,362L194,362ZM226,354L242,354L242,362L226,362ZM250,354L258,354L258,362L250,362ZM266,354L282,354L282,362L266,362ZM290,354L298,354L298,362L290,362ZM322,354L346,354L346,362L322,362ZM354,354L362,354L362,362L354,362ZM370,354L386,354L386,362L370,362ZM394,354L402,354L402,362L394,362ZM434,354L458,354L458,362L434,362ZM474,354L482,354L482,362L474,362ZM490,354L498,354L498,362L490,362ZM50,362L162,362L162,370L50,370ZM178,362L186,362L186,370L178,370ZM194,362L218,362L218,370L194,370ZM250,362L258,362L258,370L250,370ZM266,362L298,362L298,370L266,370ZM306,362L322,362L322,370L306,370ZM354,362L362,362L362,370L354,370ZM370,362L394,362L394,370L370,370ZM402,362L418,362L418,370L402,370ZM434,362L442,362L442,370L434,370ZM450,362L458,362L458,370L450,370ZM466,362L474,362L474,370L466,370ZM482,362L490,362L490,370L482,370ZM42,370L50,370L50,378L42,378ZM74,370L90,370L90,378L74,378ZM106,370L122,370L122,378L106,378ZM130,370L138,370L138,378L130,378ZM146,370L162,370L162,378L146,378ZM170,370L178,370L178,378L170,378ZM186,370L194,370L194,378L186,378ZM266,370L314,370L314,378L266,378ZM362,370L378,370L378,378L362,378ZM386,370L402,370L402,378L386,378ZM410,370L434,370L434,378L410,378ZM442,370L458,370L458,378L442,378ZM466,370L498,370L498,378L466,378ZM50,378L74,378L74,386L50,386ZM90,378L114,378L114,386L90,386ZM122,378L154,378L154,386L122,386ZM162,378L170,378L170,386L162,386ZM178,378L186,378L186,386L178,386ZM194,378L234,378L234,386L194,386ZM242,378L250,378L250,386L242,386ZM258,378L282,378L282,386L258,386ZM290,378L298,378L298,386L290,386ZM322,378L346,378L346,386L322,386ZM354,378L362,378L362,386L354,386ZM370,378L378,378L378,386L370,386ZM386,378L394,378L394,386L386,386ZM402,378L410,378L410,386L402,386ZM458,378L474,378L474,386L458,386ZM42,386L66,386L66,394L42,394ZM74,386L82,386L82,394L74,394ZM114,386L130,386L130,394L114,394ZM138,386L146,386L146,394L138,394ZM194,386L210,386L210,394L194,394ZM234,386L242,386L242,394L234,394ZM258,386L266,386L266,394L258,394ZM282,386L290,386L290,394L282,394ZM298,386L306,386L306,394L298,394ZM330,386L346,386L346,394L330,394ZM362,386L370,386L370,394L362,394ZM378,386L386,386L386,394L378,394ZM418,386L458,386L458,394L418,394ZM482,386L498,386L498,394L482,394ZM50,394L58,394L58,402L50,402ZM66,394L82,394L82,402L66,402ZM90,394L122,394L122,402L90,402ZM138,394L162,394L162,402L138,402ZM178,394L194,394L194,402L178,402ZM202,394L210,394L210,402L202,402ZM218,394L226,394L226,402L218,402ZM242,394L258,394L258,402L242,402ZM266,394L274,394L274,402L266,402ZM282,394L290,394L290,402L282,402ZM314,394L330,394L330,402L314,402ZM346,394L354,394L354,402L346,402ZM362,394L378,394L378,402L362,402ZM386,394L394,394L394,402L386,402ZM402,394L434,394L434,402L402,402ZM450,394L474,394L474,402L450,402ZM42,402L74,402L74,410L42,410ZM82,402L90,402L90,410L82,410ZM98,402L114,402L114,410L98,410ZM122,402L146,402L146,410L122,410ZM178,402L186,402L186,410L178,410ZM194,402L218,402L218,410L194,410ZM234,402L242,402L242,410L234,410ZM258,402L266,402L266,410L258,410ZM274,402L290,402L290,410L274,410ZM298,402L314,402L314,410L298,410ZM346,402L354,402L354,410L346,410ZM370,402L386,402L386,410L370,410ZM394,402L402,402L402,410L394,410ZM418,402L426,402L426,410L418,410ZM434,402L458,402L458,410L434,410ZM474,402L482,402L482,410L474,410ZM490,402L498,402L498,410L490,410ZM42,410L50,410L50,418L42,418ZM58,410L66,410L66,418L58,418ZM82,410L122,410L122,418L82,418ZM130,410L138,410L138,418L130,418ZM154,410L162,410L162,418L154,418ZM178,410L186,410L186,418L178,418ZM202,410L218,410L218,418L202,418ZM250,410L274,410L274,418L250,418ZM282,410L290,410L290,418L282,418ZM306,410L314,410L314,418L306,418ZM330,410L346,410L346,418L330,418ZM370,410L394,410L394,418L370,418ZM402,410L418,410L418,418L402,418ZM426,410L442,410L442,418L426,418ZM450,410L474,410L474,418L450,418ZM42,418L82,418L82,426L42,426ZM122,418L130,418L130,426L122,426ZM138,418L146,418L146,426L138,426ZM178,418L186,418L186,426L178,426ZM194,418L202,418L202,426L194,426ZM218,418L226,418L226,426L218,426ZM234,418L242,418L242,426L234,426ZM250,418L258,418L258,426L250,426ZM274,418L314,418L314,426L274,426ZM322,418L330,418L330,426L322,426ZM354,418L394,418L394,426L354,426ZM418,418L426,418L426,426L418,426ZM434,418L458,418L458,426L434,426ZM482,418L498,418L498,426L482,426ZM90,426L122,426L122,434L90,434ZM146,426L154,426L154,434L146,434ZM162,426L186,426L186,434L162,434ZM250,426L290,426L290,434L250,434ZM314,426L322,426L322,434L314,434ZM330,426L362,426L362,434L330,434ZM394,426L418,426L418,434L394,434ZM426,426L482,426L482,434L426,434ZM106,434L114,434L114,442L106,442ZM122,434L138,434L138,442L122,442ZM154,434L170,434L170,442L154,442ZM178,434L194,434L194,442L178,442ZM202,434L218,434L218,442L202,442ZM242,434L258,434L258,442L242,442ZM282,434L306,434L306,442L282,442ZM338,434L346,434L346,442L338,442ZM354,434L370,434L370,442L354,442ZM386,434L434,434L434,442L386,442ZM458,434L466,434L466,442L458,442ZM474,434L482,434L482,442L474,442ZM490,434L498,434L498,442L490,442ZM42,442L98,442L98,450L42,450ZM114,442L130,442L130,450L114,450ZM146,442L162,442L162,450L146,450ZM170,442L194,442L194,450L170,450ZM210,442L218,442L218,450L210,450ZM234,442L242,442L242,450L234,450ZM250,442L258,442L258,450L250,450ZM266,442L274,442L274,450L266,450ZM282,442L298,442L298,450L282,450ZM322,442L346,442L346,450L322,450ZM354,442L362,442L362,450L354,450ZM370,442L378,442L378,450L370,450ZM386,442L394,442L394,450L386,450ZM418,442L434,442L434,450L418,450ZM442,442L450,442L450,450L442,450ZM458,442L466,442L466,450L458,450ZM42,450L50,450L50,458L42,458ZM90,450L98,450L98,458L90,458ZM106,450L122,450L122,458L106,458ZM146,450L170,450L170,458L146,458ZM178,450L218,450L218,458L178,458ZM226,450L242,450L242,458L226,458ZM250,450L258,450L258,458L250,458ZM282,450L290,450L290,458L282,458ZM322,450L346,450L346,458L322,458ZM378,450L394,450L394,458L378,458ZM418,450L434,450L434,458L418,458ZM458,450L474,450L474,458L458,458ZM482,450L498,450L498,458L482,458ZM42,458L50,458L50,466L42,466ZM58,458L82,458L82,466L58,466ZM90,458L98,458L98,466L90,466ZM106,458L114,458L114,466L106,466ZM122,458L130,458L130,466L122,466ZM138,458L146,458L146,466L138,466ZM154,458L170,458L170,466L154,466ZM186,458L226,458L226,466L186,466ZM234,458L242,458L242,466L234,466ZM250,458L298,458L298,466L250,466ZM306,458L322,458L322,466L306,466ZM338,458L378,458L378,466L338,466ZM386,458L394,458L394,466L386,466ZM402,458L418,458L418,466L402,466ZM426,458L482,458L482,466L426,466ZM42,466L50,466L50,474L42,474ZM58,466L82,466L82,474L58,474ZM90,466L98,466L98,474L90,474ZM106,466L122,466L122,474L106,474ZM130,466L154,466L154,474L130,474ZM162,466L194,466L194,474L162,474ZM226,466L234,466L234,474L226,474ZM250,466L258,466L258,474L250,474ZM266,466L306,466L306,474L266,474ZM314,466L330,466L330,474L314,474ZM354,466L370,466L370,474L354,474ZM378,466L386,466L386,474L378,474ZM394,466L402,466L402,474L394,474ZM426,466L434,466L434,474L426,474ZM458,466L490,466L490,474L458,474ZM42,474L50,474L50,482L42,482ZM58,474L82,474L82,482L58,482ZM90,474L98,474L98,482L90,482ZM106,474L122,474L122,482L106,482ZM138,474L154,474L154,482L138,482ZM162,474L178,474L178,482L162,482ZM194,474L226,474L226,482L194,482ZM242,474L250,474L250,482L242,482ZM266,474L282,474L282,482L266,482ZM290,474L298,474L298,482L290,482ZM306,474L322,474L322,482L306,482ZM330,474L338,474L338,482L330,482ZM346,474L354,474L354,482L346,482ZM386,474L394,474L394,482L386,482ZM418,474L426,474L426,482L418,482ZM434,474L450,474L450,482L434,482ZM458,474L466,474L466,482L458,482ZM474,474L482,474L482,482L474,482ZM42,482L50,482L50,490L42,490ZM90,482L98,482L98,490L90,490ZM122,482L130,482L130,490L122,490ZM154,482L162,482L162,490L154,490ZM186,482L202,482L202,490L186,490ZM210,482L234,482L234,490L210,490ZM250,482L258,482L258,490L250,490ZM282,482L306,482L306,490L282,490ZM354,482L362,482L362,490L354,490ZM378,482L386,482L386,490L378,490ZM394,482L410,482L410,490L394,490ZM450,482L466,482L466,490L450,490ZM474,482L498,482L498,490L474,490ZM42,490L98,490L98,498L42,498ZM106,490L122,490L122,498L106,498ZM138,490L162,490L162,498L138,498ZM170,490L178,490L178,498L170,498ZM202,490L250,490L250,498L202,498ZM306,490L322,490L322,498L306,498ZM338,490L378,490L378,498L338,498ZM394,490L402,490L402,498L394,498ZM410,490L418,490L418,498L410,498ZM426,490L434,490L434,498L426,498ZM466,490L490,490L490,498L466,498Z"/></svg>
