<?xml version="1.0"?>
<svg xmlns="http://www.w3.org/2000/svg" xmlns:xlink="http://www.w3.org/1999/xlink" version="1.1" width="220px" height="220px" viewBox="0 0 220 220"><rect x="0" y="0" width="220" height="220" fill="#ffffff" fill-opacity="1"/><path fill="#000000" fill-opacity="1" d="M30,30L51,30L51,33L30,33ZM57,30L63,30L63,33L57,33ZM66,30L69,30L69,33L66,33ZM78,30L87,30L87,33L78,33ZM120,30L123,30L123,33L120,33ZM126,30L132,30L132,33L126,33ZM135,30L138,30L138,33L135,33ZM147,30L159,30L159,33L147,33ZM168,30L189,30L189,33L168,33ZM30,33L33,33L33,36L30,36ZM48,33L51,33L51,36L48,36ZM54,33L57,33L57,36L54,36ZM60,33L63,33L63,36L60,36ZM69,33L72,33L72,36L69,36ZM75,33L81,33L81,36L75,36ZM84,33L90,33L90,36L84,36ZM93,33L96,33L96,36L93,36ZM99,33L102,33L102,36L99,36ZM105,33L114,33L114,36L105,36ZM132,33L135,33L135,36L132,36ZM138,33L141,33L141,36L138,36ZM144,33L150,33L150,36L144,36ZM156,33L162,33L162,36L156,36ZM168,33L171,33L171,36L168,36ZM186,33L189,33L189,36L186,36ZM30,36L33,36L33,39L30,39ZM36,36L45,36L45,39L36,39ZM48,36L51,36L51,39L48,39ZM57,36L60,36L60,39L57,39ZM63,36L66,36L66,39L63,39ZM72,36L75,36L75,39L72,39ZM78,36L84,36L84,39L78,39ZM96,36L99,36L99,39L96,39ZM102,36L105,36L105,39L102,39ZM111,36L129,36L129,39L111,39ZM135,36L141,36L141,39L135,39ZM147,36L156,36L156,39L147,39ZM159,36L162,36L162,39L159,39ZM168,36L171,36L171,39L168,39ZM174,36L183,36L183,39L174,39ZM186,36L189,36L189,39L186,39ZM30,39L33,39L33,42L30,42ZM36,39L45,39L45,42L36,42ZM48,39L51,39L51,42L48,42ZM54,39L57,39L57,42L54,42ZM60,39L72,39L72,42L60,42ZM87,39L90,39L90,42L87,42ZM93,39L96,39L96,42L93,42ZM117,39L120,39L120,42L117,42ZM123,39L135,39L135,42L123,42ZM144,39L159,39L159,42L144,42ZM162,39L165,39L165,42L162,42ZM168,39L171,39L171,42L168,42ZM174,39L183,39L183,42L174,42ZM186,39L189,39L189,42L186,42ZM30,42L33,42L33,45L30,45ZM36,42L45,42L45,45L36,45ZM48,42L51,42L51,45L48,45ZM57,42L60,42L60,45L57,45ZM66,42L69,42L69,45L66,45ZM72,42L81,42L81,45L72,45ZM87,42L90,42L90,45L87,45ZM93,42L99,42L99,45L93,45ZM102,42L123,42L123,45L102,45ZM126,42L129,42L129,45L126,45ZM132,42L135,42L135,45L132,45ZM150,42L153,42L153,45L150,45ZM156,42L159,42L159,45L156,45ZM168,42L171,42L171,45L168,45ZM174,42L183,42L183,45L174,45ZM186,42L189,42L189,45L186,45ZM30,45L33,45L33,48L30,48ZM48,45L51,45L51,48L48,48ZM54,45L57,45L57,48L54,48ZM66,45L69,45L69,48L66,48ZM75,45L84,45L84,48L75,48ZM87,45L96,45L96,48L87,48ZM102,45L105,45L105,48L102,48ZM114,45L117,45L117,48L114,48ZM129,45L132,45L132,48L129,48ZM135,45L141,45L141,48L135,48ZM144,45L150,45L150,48L144,48ZM156,45L159,45L159,48L156,48ZM168,45L171,45L171,48L168,48ZM186,45L189,45L189,48L186,48ZM30,48L51,48L51,51L30,51ZM54,48L57,48L57,51L54,51ZM60,48L63,48L63,51L60,51ZM66,48L69,48L69,51L66,51ZM72,48L75,48L75,51L72,51ZM78,48L81,48L81,51L78,51ZM84,48L87,48L87,51L84,51ZM90,48L93,48L93,51L90,51ZM96,48L99,48L99,51L96,51ZM102,48L105,48L105,51L102,51ZM108,48L111,48L111,51L108,51ZM114,48L117,48L117,51L114,51ZM120,48L123,48L123,51L120,51ZM126,48L129,48L129,51L126,51ZM132,48L135,48L135,51L132,51ZM138,48L141,48L141,51L138,51ZM144,48L147,48L147,51L144,51ZM150,48L153,48L153,51L150,51ZM156,48L159,48L159,51L156,51ZM162,48L165,48L165,51L162,51ZM168,48L189,48L189,51L168,51ZM60,51L63,51L63,54L60,54ZM69,51L72,51L72,54L69,54ZM93,51L99,51L99,54L93,54ZM102,51L105,51L105,54L102,54ZM114,51L117,51L117,54L114,54ZM120,51L123,51L123,54L120,54ZM129,51L132,51L132,54L129,54ZM135,51L144,51L144,54L135,54ZM147,51L162,51L162,54L147,54ZM30,54L45,54L45,57L30,57ZM48,54L63,54L63,57L48,57ZM66,54L69,54L69,57L66,57ZM81,54L84,54L84,57L81,57ZM93,54L96,54L96,57L93,57ZM99,54L120,54L120,57L99,57ZM123,54L126,54L126,57L123,57ZM132,54L135,54L135,57L132,57ZM138,54L141,54L141,57L138,57ZM147,54L153,54L153,57L147,57ZM159,54L168,54L168,57L159,57ZM171,54L174,54L174,57L171,57ZM177,54L180,54L180,57L177,57ZM183,54L186,54L186,57L183,57ZM39,57L45,57L45,60L39,60ZM51,57L57,57L57,60L51,60ZM63,57L72,57L72,60L63,60ZM75,57L78,57L78,60L75,60ZM84,57L99,57L99,60L84,60ZM102,57L108,57L108,60L102,60ZM111,57L117,57L117,60L111,60ZM126,57L138,57L138,60L126,60ZM150,57L153,57L153,60L150,60ZM165,57L174,57L174,60L165,60ZM177,57L180,57L180,60L177,60ZM183,57L186,57L186,60L183,60ZM30,60L33,60L33,63L30,63ZM36,60L42,60L42,63L36,63ZM48,60L60,60L60,63L48,63ZM69,60L72,60L72,63L69,63ZM84,60L87,60L87,63L84,63ZM90,60L96,60L96,63L90,63ZM99,60L102,60L102,63L99,63ZM105,60L114,60L114,63L105,63ZM123,60L126,60L126,63L123,63ZM138,60L141,60L141,63L138,63ZM144,60L150,60L150,63L144,63ZM153,60L156,60L156,63L153,63ZM162,60L171,60L171,63L162,63ZM174,60L177,60L177,63L174,63ZM180,60L183,60L183,63L180,63ZM30,63L39,63L39,66L30,66ZM45,63L48,63L48,66L45,66ZM51,63L57,63L57,66L51,66ZM66,63L69,63L69,66L66,66ZM72,63L78,63L78,66L72,66ZM81,63L84,63L84,66L81,66ZM87,63L93,63L93,66L87,66ZM96,63L99,63L99,66L96,66ZM102,63L105,63L105,66L102,66ZM114,63L123,63L123,66L114,66ZM141,63L144,63L144,66L141,66ZM147,63L162,63L162,66L147,66ZM165,63L168,63L168,66L165,66ZM174,63L183,63L183,66L174,66ZM186,63L189,63L189,66L186,66ZM30,66L33,66L33,69L30,69ZM36,66L39,66L39,69L36,69ZM42,66L51,66L51,69L42,69ZM54,66L60,66L60,69L54,69ZM63,66L66,66L66,69L63,69ZM72,66L81,66L81,69L72,69ZM84,66L87,66L87,69L84,69ZM93,66L96,66L96,69L93,69ZM99,66L102,66L102,69L99,69ZM105,66L114,66L114,69L105,69ZM123,66L135,66L135,69L123,69ZM138,66L141,66L141,69L138,69ZM144,66L150,66L150,69L144,69ZM159,66L162,66L162,69L159,69ZM168,66L183,66L183,69L168,69ZM39,69L42,69L42,72L39,72ZM51,69L57,69L57,72L51,72ZM69,69L72,69L72,72L69,72ZM75,69L78,69L78,72L75,72ZM81,69L84,69L84,72L81,72ZM93,69L96,69L96,72L93,72ZM102,69L105,69L105,72L102,72ZM111,69L114,69L114,72L111,72ZM117,69L126,69L126,72L117,72ZM144,69L159,69L159,72L144,72ZM162,69L174,69L174,72L162,72ZM177,69L180,69L180,72L177,72ZM186,69L189,69L189,72L186,72ZM33,72L45,72L45,75L33,75ZM48,72L54,72L54,75L48,75ZM57,72L63,72L63,75L57,75ZM69,72L75,72L75,75L69,75ZM78,72L81,72L81,75L78,75ZM84,72L93,72L93,75L84,75ZM105,72L126,72L126,75L105,75ZM135,72L141,72L141,75L135,75ZM147,72L150,72L150,75L147,75ZM153,72L159,72L159,75L153,75ZM162,72L168,72L168,75L162,75ZM174,72L177,72L177,75L174,75ZM180,72L186,72L186,75L180,75ZM33,75L36,75L36,78L33,78ZM39,75L45,75L45,78L39,78ZM51,75L60,75L60,78L51,78ZM66,75L69,75L69,78L66,78ZM72,75L75,75L75,78L72,78ZM81,75L87,75L87,78L81,78ZM96,75L99,75L99,78L96,78ZM111,75L117,75L117,78L111,78ZM120,75L126,75L126,78L120,78ZM129,75L132,75L132,78L129,78ZM141,75L144,75L144,78L141,78ZM147,75L162,75L162,78L147,78ZM165,75L168,75L168,78L165,78ZM180,75L189,75L189,78L180,78ZM30,78L36,78L36,81L30,81ZM42,78L45,78L45,81L42,81ZM48,78L54,78L54,81L48,81ZM66,78L78,78L78,81L66,81ZM84,78L90,78L90,81L84,81ZM96,78L102,78L102,81L96,81ZM108,78L111,78L111,81L108,81ZM117,78L120,78L120,81L117,81ZM126,78L141,78L141,81L126,81ZM147,78L150,78L150,81L147,81ZM159,78L162,78L162,81L159,81ZM165,78L171,78L171,81L165,81ZM174,78L180,78L180,81L174,81ZM33,81L39,81L39,84L33,84ZM45,81L48,81L48,84L45,84ZM51,81L69,81L69,84L51,84ZM78,81L87,81L87,84L78,84ZM102,81L108,81L108,84L102,84ZM111,81L117,81L117,84L111,84ZM120,81L123,81L123,84L120,84ZM126,81L132,81L132,84L126,84ZM135,81L138,81L138,84L135,84ZM144,81L159,81L159,84L144,84ZM162,81L168,81L168,84L162,84ZM177,81L180,81L180,84L177,84ZM183,81L189,81L189,84L183,84ZM30,84L36,84L36,87L30,87ZM42,84L45,84L45,87L42,87ZM48,84L57,84L57,87L48,87ZM60,84L72,84L72,87L60,87ZM75,84L81,84L81,87L75,87ZM84,84L90,84L90,87L84,87ZM93,84L96,84L96,87L93,87ZM99,84L105,84L105,87L99,87ZM108,84L126,84L126,87L108,87ZM129,84L135,84L135,87L129,87ZM138,84L141,84L141,87L138,87ZM144,84L150,84L150,87L144,87ZM153,84L159,84L159,87L153,87ZM162,84L171,84L171,87L162,87ZM174,84L177,84L177,87L174,87ZM180,84L186,84L186,87L180,87ZM36,87L48,87L48,90L36,90ZM54,87L60,87L60,90L54,90ZM72,87L75,87L75,90L72,90ZM78,87L84,87L84,90L78,90ZM96,87L99,87L99,90L96,90ZM102,87L108,87L108,90L102,90ZM111,87L114,87L114,90L111,90ZM117,87L126,87L126,90L117,90ZM135,87L138,87L138,90L135,90ZM141,87L144,87L144,90L141,90ZM147,87L150,87L150,90L147,90ZM153,87L162,87L162,90L153,90ZM171,87L180,87L180,90L171,90ZM183,87L189,87L189,90L183,90ZM30,90L33,90L33,93L30,93ZM42,90L51,90L51,93L42,93ZM54,90L57,90L57,93L54,93ZM60,90L69,90L69,93L60,93ZM93,90L96,90L96,93L93,93ZM99,90L102,90L102,93L99,93ZM105,90L108,90L108,93L105,93ZM117,90L120,90L120,93L117,93ZM123,90L129,90L129,93L123,93ZM132,90L138,90L138,93L132,93ZM141,90L147,90L147,93L141,93ZM150,90L156,90L156,93L150,93ZM162,90L168,90L168,93L162,93ZM174,90L177,90L177,93L174,93ZM183,90L186,90L186,93L183,93ZM33,93L36,93L36,96L33,96ZM39,93L48,93L48,96L39,96ZM54,93L57,93L57,96L54,96ZM63,93L75,93L75,96L63,96ZM81,93L87,93L87,96L81,96ZM93,93L99,93L99,96L93,96ZM102,93L105,93L105,96L102,96ZM114,93L117,93L117,96L114,96ZM120,93L123,93L123,96L120,96ZM126,93L129,93L129,96L126,96ZM141,93L144,93L144,96L141,96ZM147,93L159,93L159,96L147,96ZM165,93L168,93L168,96L165,96ZM174,93L180,93L180,96L174,96ZM186,93L189,93L189,96L186,96ZM30,96L39,96L39,99L30,99ZM45,96L51,96L51,99L45,99ZM54,96L57,96L57,99L54,99ZM60,96L63,96L63,99L60,99ZM66,96L69,96L69,99L66,99ZM75,96L84,96L84,99L75,99ZM90,96L96,96L96,99L90,99ZM105,96L114,96L114,99L105,99ZM123,96L126,96L126,99L123,99ZM129,96L132,96L132,99L129,99ZM138,96L141,96L141,99L138,99ZM156,96L159,96L159,99L156,99ZM162,96L165,96L165,99L162,99ZM171,96L177,96L177,99L171,99ZM180,96L183,96L183,99L180,99ZM186,96L189,96L189,99L186,99ZM33,99L36,99L36,102L33,102ZM39,99L42,99L42,102L39,102ZM45,99L48,99L48,102L45,102ZM51,99L54,99L54,102L51,102ZM69,99L72,99L72,102L69,102ZM93,99L96,99L96,102L93,102ZM102,99L108,99L108,102L102,102ZM111,99L117,99L117,102L111,102ZM120,99L132,99L132,102L120,102ZM147,99L162,99L162,102L147,102ZM165,99L168,99L168,102L165,102ZM174,99L177,99L177,102L174,102ZM33,102L36,102L36,105L33,105ZM39,102L57,102L57,105L39,105ZM63,102L69,102L69,105L63,105ZM81,102L84,102L84,105L81,105ZM93,102L96,102L96,105L93,105ZM102,102L120,102L120,105L102,105ZM123,102L150,102L150,105L123,105ZM153,102L156,102L156,105L153,105ZM162,102L183,102L183,105L162,105ZM30,105L33,105L33,108L30,108ZM42,105L45,105L45,108L42,108ZM54,105L57,105L57,108L54,108ZM60,105L63,105L63,108L60,108ZM66,105L72,105L72,108L66,108ZM75,105L78,105L78,108L75,108ZM84,105L96,105L96,108L84,108ZM99,105L105,105L105,108L99,108ZM114,105L126,105L126,108L114,108ZM132,105L138,105L138,108L132,108ZM150,105L159,105L159,108L150,108ZM162,105L165,105L165,108L162,108ZM174,105L180,105L180,108L174,108ZM186,105L189,105L189,108L186,108ZM30,108L45,108L45,111L30,111ZM48,108L51,108L51,111L48,111ZM54,108L66,108L66,111L54,111ZM69,108L72,108L72,111L69,111ZM84,108L87,108L87,111L84,111ZM90,108L96,108L96,111L90,111ZM102,108L105,108L105,111L102,111ZM108,108L111,108L111,111L108,111ZM114,108L126,108L126,111L114,111ZM129,108L132,108L132,111L129,111ZM138,108L141,108L141,111L138,111ZM144,108L147,108L147,111L144,111ZM156,108L165,108L165,111L156,111ZM168,108L171,108L171,111L168,111ZM174,108L177,108L177,111L174,111ZM180,108L189,108L189,111L180,111ZM36,111L39,111L39,114L36,114ZM42,111L45,111L45,114L42,114ZM54,111L66,111L66,114L54,114ZM72,111L78,111L78,114L72,114ZM81,111L84,111L84,114L81,114ZM87,111L93,111L93,114L87,114ZM96,111L99,111L99,114L96,114ZM102,111L105,111L105,114L102,114ZM114,111L129,111L129,114L114,114ZM138,111L144,111L144,114L138,114ZM147,111L159,111L159,114L147,114ZM162,111L165,111L165,114L162,114ZM174,111L180,111L180,114L174,114ZM186,111L189,111L189,114L186,114ZM33,114L36,114L36,117L33,117ZM39,114L66,114L66,117L39,117ZM75,114L81,114L81,117L75,117ZM87,114L90,114L90,117L87,117ZM102,114L117,114L117,117L102,117ZM123,114L138,114L138,117L123,117ZM141,114L150,114L150,117L141,117ZM159,114L180,114L180,117L159,117ZM30,117L33,117L33,120L30,120ZM45,117L48,117L48,120L45,120ZM60,117L72,117L72,120L60,120ZM87,117L90,117L90,120L87,120ZM99,117L102,117L102,120L99,120ZM105,117L108,117L108,120L105,120ZM126,117L144,117L144,120L126,120ZM150,117L153,117L153,120L150,120ZM159,117L165,117L165,120L159,120ZM168,117L180,117L180,120L168,120ZM183,117L189,117L189,120L183,120ZM36,120L39,120L39,123L36,123ZM45,120L54,120L54,123L45,123ZM60,120L66,120L66,123L60,123ZM69,120L75,120L75,123L69,123ZM78,120L81,120L81,123L78,123ZM84,120L93,120L93,123L84,123ZM96,120L99,120L99,123L96,123ZM105,120L108,120L108,123L105,123ZM111,120L126,120L126,123L111,123ZM129,120L141,120L141,123L129,123ZM165,120L168,120L168,123L165,123ZM180,120L183,120L183,123L180,123ZM186,120L189,120L189,123L186,123ZM30,123L33,123L33,126L30,126ZM39,123L42,123L42,126L39,126ZM51,123L54,123L54,126L51,126ZM57,123L60,123L60,126L57,126ZM72,123L75,123L75,126L72,126ZM81,123L87,123L87,126L81,126ZM93,123L108,123L108,126L93,126ZM111,123L114,123L114,126L111,126ZM120,123L123,123L123,126L120,126ZM129,123L132,123L132,126L129,126ZM153,123L162,123L162,126L153,126ZM171,123L177,123L177,126L171,126ZM180,123L189,123L189,126L180,126ZM39,126L42,126L42,129L39,129ZM48,126L51,126L51,129L48,129ZM54,126L57,126L57,129L54,129ZM60,126L63,126L63,129L60,129ZM69,126L78,126L78,129L69,129ZM84,126L90,126L90,129L84,129ZM96,126L99,126L99,129L96,129ZM105,126L114,126L114,129L105,129ZM123,126L126,126L126,129L123,129ZM129,126L135,126L135,129L129,129ZM138,126L147,126L147,129L138,129ZM153,126L159,126L159,129L153,129ZM165,126L168,126L168,129L165,129ZM171,126L174,126L174,129L171,129ZM177,126L183,126L183,129L177,129ZM33,129L42,129L42,132L33,132ZM45,129L48,129L48,132L45,132ZM51,129L57,129L57,132L51,132ZM63,129L66,129L66,132L63,132ZM78,129L87,129L87,132L78,132ZM93,129L96,129L96,132L93,132ZM105,129L111,129L111,132L105,132ZM117,129L120,129L120,132L117,132ZM123,129L132,129L132,132L123,132ZM138,129L141,129L141,132L138,132ZM147,129L156,129L156,132L147,132ZM159,129L162,129L162,132L159,132ZM168,129L177,129L177,132L168,132ZM183,129L186,129L186,132L183,132ZM39,132L42,132L42,135L39,135ZM45,132L54,132L54,135L45,135ZM57,132L72,132L72,135L57,135ZM75,132L81,132L81,135L75,135ZM84,132L90,132L90,135L84,135ZM93,132L96,132L96,135L93,135ZM102,132L108,132L108,135L102,135ZM111,132L117,132L117,135L111,135ZM120,132L126,132L126,135L120,135ZM129,132L141,132L141,135L129,135ZM153,132L156,132L156,135L153,135ZM165,132L168,132L168,135L165,135ZM171,132L174,132L174,135L171,135ZM180,132L189,132L189,135L180,135ZM33,135L36,135L36,138L33,138ZM39,135L42,135L42,138L39,138ZM45,135L48,135L48,138L45,138ZM51,135L54,135L54,138L51,138ZM57,135L75,135L75,138L57,138ZM78,135L84,135L84,138L78,138ZM93,135L102,135L102,138L93,138ZM111,135L114,135L114,138L111,138ZM117,135L129,135L129,138L117,138ZM135,135L138,135L138,138L135,138ZM141,135L144,135L144,138L141,138ZM153,135L162,135L162,138L153,138ZM165,135L168,135L168,138L165,138ZM174,135L177,135L177,138L174,138ZM183,135L186,135L186,138L183,138ZM36,138L51,138L51,141L36,141ZM60,138L66,138L66,141L60,141ZM69,138L72,138L72,141L69,141ZM75,138L90,138L90,141L75,141ZM96,138L99,138L99,141L96,141ZM102,138L105,138L105,141L102,141ZM114,138L117,138L117,141L114,141ZM129,138L138,138L138,141L129,141ZM141,138L147,138L147,141L141,141ZM165,138L168,138L168,141L165,141ZM171,138L177,138L177,141L171,141ZM180,138L183,138L183,141L180,141ZM186,138L189,138L189,141L186,141ZM42,141L45,141L45,144L42,144ZM54,141L66,141L66,144L54,144ZM75,141L78,141L78,144L75,144ZM81,141L87,141L87,144L81,144ZM99,141L102,141L102,144L99,144ZM105,141L111,141L111,144L105,144ZM117,141L123,141L123,144L117,144ZM126,141L132,141L132,144L126,144ZM150,141L153,141L153,144L150,144ZM156,141L162,141L162,144L156,144ZM168,141L171,141L171,144L168,144ZM177,141L180,141L180,144L177,144ZM186,141L189,141L189,144L186,144ZM30,144L33,144L33,147L30,147ZM39,144L45,144L45,147L39,147ZM48,144L54,144L54,147L48,147ZM60,144L69,144L69,147L60,147ZM75,144L84,144L84,147L75,147ZM87,144L96,144L96,147L87,147ZM105,144L108,144L108,147L105,147ZM114,144L117,144L117,147L114,147ZM123,144L126,144L126,147L123,147ZM138,144L141,144L141,147L138,147ZM153,144L159,144L159,147L153,147ZM165,144L171,144L171,147L165,147ZM180,144L183,144L183,147L180,147ZM186,144L189,144L189,147L186,147ZM30,147L36,147L36,150L30,150ZM39,147L42,147L42,150L39,150ZM57,147L63,147L63,150L57,150ZM66,147L72,147L72,150L66,150ZM75,147L78,147L78,150L75,150ZM99,147L111,147L111,150L99,150ZM114,147L117,147L117,150L114,150ZM120,147L123,147L123,150L120,150ZM126,147L129,147L129,150L126,150ZM138,147L141,147L141,150L138,150ZM147,147L159,147L159,150L147,150ZM162,147L165,147L165,150L162,150ZM171,147L180,147L180,150L171,150ZM183,147L189,147L189,150L183,150ZM45,150L57,150L57,153L45,153ZM60,150L63,150L63,153L60,153ZM81,150L84,150L84,153L81,153ZM93,150L96,150L96,153L93,153ZM105,150L108,150L108,153L105,153ZM111,150L117,150L117,153L111,153ZM123,150L135,150L135,153L123,153ZM138,150L150,150L150,153L138,153ZM159,150L162,150L162,153L159,153ZM174,150L180,150L180,153L174,153ZM30,153L42,153L42,156L30,156ZM45,153L48,153L48,156L45,156ZM54,153L60,153L60,156L54,156ZM63,153L72,153L72,156L63,156ZM75,153L78,153L78,156L75,156ZM84,153L93,153L93,156L84,156ZM111,153L114,153L114,156L111,156ZM120,153L123,153L123,156L120,156ZM126,153L129,153L129,156L126,156ZM135,153L138,153L138,156L135,156ZM147,153L156,153L156,156L147,156ZM159,153L162,153L162,156L159,156ZM165,153L168,153L168,156L165,156ZM174,153L177,153L177,156L174,156ZM183,153L186,153L186,156L183,156ZM30,156L36,156L36,159L30,159ZM39,156L57,156L57,159L39,159ZM60,156L63,156L63,159L60,159ZM66,156L75,156L75,159L66,159ZM84,156L87,156L87,159L84,159ZM90,156L96,156L96,159L90,159ZM99,156L105,156L105,159L99,159ZM123,156L126,156L126,159L123,159ZM138,156L141,156L141,159L138,159ZM144,156L147,156L147,159L144,159ZM171,156L174,156L174,159L171,159ZM177,156L183,156L183,159L177,159ZM33,159L39,159L39,162L33,162ZM54,159L57,159L57,162L54,162ZM66,159L69,159L69,162L66,162ZM75,159L78,159L78,162L75,162ZM81,159L84,159L84,162L81,162ZM87,159L93,159L93,162L87,162ZM96,159L102,159L102,162L96,162ZM105,159L111,159L111,162L105,162ZM117,159L123,159L123,162L117,162ZM126,159L129,159L129,162L126,162ZM138,159L144,159L144,162L138,162ZM150,159L159,159L159,162L150,162ZM162,159L168,159L168,162L162,162ZM174,159L177,159L177,162L174,162ZM180,159L189,159L189,162L180,162ZM39,162L42,162L42,165L39,165ZM48,162L54,162L54,165L48,165ZM57,162L60,162L60,165L57,165ZM63,162L66,162L66,165L63,165ZM75,162L78,162L78,165L75,165ZM81,162L90,162L90,165L81,165ZM93,162L96,162L96,165L93,165ZM102,162L120,162L120,165L102,165ZM123,162L138,162L138,165L123,165ZM141,162L147,162L147,165L141,165ZM150,162L153,162L153,165L150,165ZM159,162L177,162L177,165L159,165ZM180,162L189,162L189,165L180,165ZM54,165L57,165L57,168L54,168ZM63,165L72,165L72,168L63,168ZM78,165L96,165L96,168L78,168ZM102,165L105,165L105,168L102,168ZM114,165L117,165L117,168L114,168ZM126,165L132,165L132,168L126,168ZM135,165L141,165L141,168L135,168ZM156,165L159,165L159,168L156,168ZM162,165L165,165L165,168L162,168ZM174,165L180,165L180,168L174,168ZM30,168L51,168L51,171L30,171ZM54,168L57,168L57,171L54,171ZM60,168L66,168L66,171L60,171ZM69,168L81,168L81,171L69,171ZM84,168L87,168L87,171L84,171ZM90,168L93,168L93,171L90,171ZM96,168L105,168L105,171L96,171ZM108,168L111,168L111,171L108,171ZM114,168L123,168L123,171L114,171ZM132,168L147,168L147,171L132,171ZM153,168L156,168L156,171L153,171ZM159,168L165,168L165,171L159,171ZM168,168L171,168L171,171L168,171ZM174,168L189,168L189,171L174,171ZM30,171L33,171L33,174L30,174ZM48,171L51,171L51,174L48,174ZM60,171L63,171L63,174L60,174ZM69,171L78,171L78,174L69,174ZM81,171L87,171L87,174L81,174ZM93,171L99,171L99,174L93,174ZM102,171L105,171L105,174L102,174ZM114,171L126,171L126,174L114,174ZM135,171L138,171L138,174L135,174ZM153,171L159,171L159,174L153,174ZM162,171L165,171L165,174L162,174ZM174,171L180,171L180,174L174,174ZM183,171L189,171L189,174L183,174ZM30,174L33,174L33,177L30,177ZM36,174L45,174L45,177L36,177ZM48,174L51,174L51,177L48,177ZM54,174L60,174L60,177L54,177ZM66,174L78,174L78,177L66,177ZM84,174L90,174L90,177L84,177ZM96,174L99,174L99,177L96,177ZM102,174L120,174L120,177L102,177ZM123,174L126,174L126,177L123,177ZM132,174L135,174L135,177L132,177ZM138,174L147,174L147,177L138,177ZM150,174L156,174L156,177L150,177ZM162,174L177,174L177,177L162,177ZM30,177L33,177L33,180L30,180ZM36,177L45,177L45,180L36,180ZM48,177L51,177L51,180L48,180ZM54,177L60,177L60,180L54,180ZM66,177L69,177L69,180L66,180ZM78,177L87,177L87,180L78,180ZM93,177L96,177L96,180L93,180ZM102,177L105,177L105,180L102,180ZM114,177L117,177L117,180L114,180ZM120,177L123,177L123,180L120,180ZM126,177L129,177L129,180L126,180ZM138,177L144,177L144,180L138,180ZM147,177L159,177L159,180L147,180ZM162,177L168,177L168,180L162,180ZM171,177L174,177L174,180L171,180ZM30,180L33,180L33,183L30,183ZM36,180L45,180L45,183L36,183ZM48,180L51,180L51,183L48,183ZM54,180L60,180L60,183L54,183ZM66,180L72,180L72,183L66,183ZM75,180L81,180L81,183L75,183ZM84,180L90,180L90,183L84,183ZM93,180L96,180L96,183L93,183ZM99,180L105,180L105,183L99,183ZM120,180L126,180L126,183L120,183ZM129,180L144,180L144,183L129,183ZM153,180L159,180L159,183L153,183ZM165,180L174,180L174,183L165,183ZM180,180L186,180L186,183L180,183ZM30,183L33,183L33,186L30,186ZM48,183L51,183L51,186L48,186ZM54,183L72,183L72,186L54,186ZM78,183L81,183L81,186L78,186ZM96,183L108,183L108,186L96,186ZM111,183L114,183L114,186L111,186ZM117,183L129,183L129,186L117,186ZM150,183L159,183L159,186L150,186ZM162,183L168,183L168,186L162,186ZM171,183L177,183L177,186L171,186ZM186,183L189,183L189,186L186,186ZM30,186L51,186L51,189L30,189ZM54,186L57,186L57,189L54,189ZM60,186L72,186L72,189L60,189ZM75,186L81,186L81,189L75,189ZM84,186L87,186L87,189L84,189ZM93,186L99,186L99,189L93,189ZM108,186L111,186L111,189L108,189ZM114,186L123,186L123,189L114,189ZM126,186L135,186L135,189L126,189ZM141,186L153,186L153,189L141,189ZM165,186L177,186L177,189L165,189ZM180,186L183,186L183,189L180,189Z"/></svg>
