<?xml version="1.0"?>
<svg xmlns="http://www.w3.org/2000/svg" xmlns:xlink="http://www.w3.org/1999/xlink" version="1.1" width="220px" height="220px" viewBox="0 0 220 220"><rect x="0" y="0" width="220" height="220" fill="#ffffff" fill-opacity="1"/><path fill="#000000" fill-opacity="1" d="M30,30L51,30L51,33L30,33ZM57,30L63,30L63,33L57,33ZM69,30L72,30L72,33L69,33ZM75,30L78,30L78,33L75,33ZM81,30L87,30L87,33L81,33ZM93,30L99,30L99,33L93,33ZM102,30L108,30L108,33L102,33ZM120,30L123,30L123,33L120,33ZM126,30L129,30L129,33L126,33ZM135,30L138,30L138,33L135,33ZM147,30L159,30L159,33L147,33ZM168,30L189,30L189,33L168,33ZM30,33L33,33L33,36L30,36ZM48,33L51,33L51,36L48,36ZM54,33L57,33L57,36L54,36ZM84,33L93,33L93,36L84,36ZM102,33L108,33L108,36L102,36ZM111,33L117,33L117,36L111,36ZM132,33L135,33L135,36L132,36ZM138,33L141,33L141,36L138,36ZM144,33L150,33L150,36L144,36ZM153,33L162,33L162,36L153,36ZM168,33L171,33L171,36L168,36ZM186,33L189,33L189,36L186,36ZM30,36L33,36L33,39L30,39ZM36,36L45,36L45,39L36,39ZM48,36L51,36L51,39L48,39ZM57,36L60,36L60,39L57,39ZM63,36L66,36L66,39L63,39ZM69,36L78,36L78,39L69,39ZM81,36L84,36L84,39L81,39ZM93,36L126,36L126,39L93,39ZM129,36L132,36L132,39L129,39ZM141,36L144,36L144,39L141,39ZM159,36L162,36L162,39L159,39ZM168,36L171,36L171,39L168,39ZM174,36L183,36L183,39L174,39ZM186,36L189,36L189,39L186,39ZM30,39L33,39L33,42L30,42ZM36,39L45,39L45,42L36,42ZM48,39L51,39L51,42L48,42ZM54,39L63,39L63,42L54,42ZM66,39L69,39L69,42L66,42ZM72,39L75,39L75,42L72,42ZM78,39L81,39L81,42L78,42ZM84,39L87,39L87,42L84,42ZM90,39L96,39L96,42L90,42ZM126,39L135,39L135,42L126,42ZM144,39L153,39L153,42L144,42ZM156,39L159,39L159,42L156,42ZM162,39L165,39L165,42L162,42ZM168,39L171,39L171,42L168,42ZM174,39L183,39L183,42L174,42ZM186,39L189,39L189,42L186,42ZM30,42L33,42L33,45L30,45ZM36,42L45,42L45,45L36,45ZM48,42L51,42L51,45L48,45ZM63,42L66,42L66,45L63,45ZM72,42L75,42L75,45L72,45ZM96,42L99,42L99,45L96,45ZM102,42L120,42L120,45L102,45ZM126,42L132,42L132,45L126,45ZM135,42L138,42L138,45L135,45ZM141,42L159,42L159,45L141,45ZM168,42L171,42L171,45L168,45ZM174,42L183,42L183,45L174,45ZM186,42L189,42L189,45L186,45ZM30,45L33,45L33,48L30,48ZM48,45L51,45L51,48L48,48ZM54,45L57,45L57,48L54,48ZM66,45L75,45L75,48L66,48ZM78,45L81,45L81,48L78,48ZM84,45L87,45L87,48L84,48ZM90,45L93,45L93,48L90,48ZM102,45L105,45L105,48L102,48ZM114,45L117,45L117,48L114,48ZM120,45L126,45L126,48L120,48ZM129,45L135,45L135,48L129,48ZM138,45L141,45L141,48L138,48ZM156,45L159,45L159,48L156,48ZM168,45L171,45L171,48L168,48ZM186,45L189,45L189,48L186,48ZM30,48L51,48L51,51L30,51ZM54,48L57,48L57,51L54,51ZM60,48L63,48L63,51L60,51ZM66,48L69,48L69,51L66,51ZM72,48L75,48L75,51L72,51ZM78,48L81,48L81,51L78,51ZM84,48L87,48L87,51L84,51ZM90,48L93,48L93,51L90,51ZM96,48L99,48L99,51L96,51ZM102,48L105,48L105,51L102,51ZM108,48L111,48L111,51L108,51ZM114,48L117,48L117,51L114,51ZM120,48L123,48L123,51L120,51ZM126,48L129,48L129,51L126,51ZM132,48L135,48L135,51L132,51ZM138,48L141,48L141,51L138,51ZM144,48L147,48L147,51L144,51ZM150,48L153,48L153,51L150,51ZM156,48L159,48L159,51L156,51ZM162,48L165,48L165,51L162,51ZM168,48L189,48L189,51L168,51ZM60,51L63,51L63,54L60,54ZM72,51L78,51L78,54L72,54ZM93,51L96,51L96,54L93,54ZM99,51L105,51L105,54L99,54ZM114,51L117,51L117,54L114,54ZM120,51L123,51L123,54L120,54ZM129,51L132,51L132,54L129,54ZM135,51L138,51L138,54L135,54ZM141,51L144,51L144,54L141,54ZM147,51L159,51L159,54L147,54ZM30,54L45,54L45,57L30,57ZM48,54L57,54L57,57L48,57ZM60,54L78,54L78,57L60,57ZM84,54L120,54L120,57L84,57ZM123,54L126,54L126,57L123,57ZM132,54L135,54L135,57L132,57ZM138,54L141,54L141,57L138,57ZM147,54L153,54L153,57L147,57ZM159,54L168,54L168,57L159,57ZM171,54L174,54L174,57L171,57ZM177,54L180,54L180,57L177,57ZM183,54L186,54L186,57L183,57ZM39,57L48,57L48,60L39,60ZM51,57L54,57L54,60L51,60ZM63,57L66,57L66,60L63,60ZM78,57L81,57L81,60L78,60ZM87,57L90,57L90,60L87,60ZM93,57L108,57L108,60L93,60ZM126,57L132,57L132,60L126,60ZM138,57L141,57L141,60L138,60ZM150,57L153,57L153,60L150,60ZM165,57L174,57L174,60L165,60ZM177,57L180,57L180,60L177,60ZM183,57L186,57L186,60L183,60ZM33,60L36,60L36,63L33,63ZM39,60L45,60L45,63L39,63ZM48,60L51,60L51,63L48,63ZM60,60L63,60L63,63L60,63ZM66,60L69,60L69,63L66,63ZM75,60L81,60L81,63L75,63ZM84,60L93,60L93,63L84,63ZM99,60L102,60L102,63L99,63ZM105,60L111,60L111,63L105,63ZM114,60L117,60L117,63L114,63ZM123,60L126,60L126,63L123,63ZM135,60L141,60L141,63L135,63ZM144,60L150,60L150,63L144,63ZM153,60L156,60L156,63L153,63ZM162,60L171,60L171,63L162,63ZM174,60L177,60L177,63L174,63ZM180,60L183,60L183,63L180,63ZM30,63L39,63L39,66L30,66ZM45,63L48,63L48,66L45,66ZM51,63L57,63L57,66L51,66ZM60,63L63,63L63,66L60,66ZM69,63L75,63L75,66L69,66ZM78,63L84,63L84,66L78,66ZM93,63L102,63L102,66L93,66ZM105,63L108,63L108,66L105,66ZM111,63L123,63L123,66L111,66ZM126,63L129,63L129,66L126,66ZM141,63L144,63L144,66L141,66ZM147,63L162,63L162,66L147,66ZM171,63L174,63L174,66L171,66ZM177,63L180,63L180,66L177,66ZM186,63L189,63L189,66L186,66ZM30,66L33,66L33,69L30,69ZM48,66L51,66L51,69L48,69ZM54,66L69,66L69,69L54,69ZM84,66L87,66L87,69L84,69ZM90,66L99,66L99,69L90,69ZM129,66L135,66L135,69L129,69ZM138,66L141,66L141,69L138,69ZM144,66L150,66L150,69L144,69ZM156,66L159,66L159,69L156,69ZM162,66L174,66L174,69L162,69ZM177,66L180,66L180,69L177,69ZM39,69L42,69L42,72L39,72ZM45,69L48,69L48,72L45,72ZM51,69L54,69L54,72L51,72ZM57,69L66,69L66,72L57,72ZM75,69L78,69L78,72L75,72ZM84,69L87,69L87,72L84,72ZM90,69L96,69L96,72L90,72ZM102,69L105,69L105,72L102,72ZM111,69L114,69L114,72L111,72ZM117,69L123,69L123,72L117,72ZM126,69L135,69L135,72L126,72ZM141,69L144,69L144,72L141,72ZM147,69L153,69L153,72L147,72ZM156,69L159,69L159,72L156,72ZM168,69L171,69L171,72L168,72ZM177,69L180,69L180,72L177,72ZM183,69L189,69L189,72L183,72ZM30,72L42,72L42,75L30,75ZM48,72L60,72L60,75L48,75ZM66,72L69,72L69,75L66,75ZM78,72L96,72L96,75L78,75ZM99,72L105,72L105,75L99,75ZM108,72L111,72L111,75L108,75ZM117,72L126,72L126,75L117,75ZM129,72L132,72L132,75L129,75ZM138,72L144,72L144,75L138,75ZM153,72L159,72L159,75L153,75ZM162,72L177,72L177,75L162,75ZM180,72L183,72L183,75L180,75ZM30,75L33,75L33,78L30,78ZM36,75L42,75L42,78L36,78ZM45,75L48,75L48,78L45,78ZM51,75L57,75L57,78L51,78ZM60,75L66,75L66,78L60,78ZM69,75L72,75L72,78L69,78ZM75,75L78,75L78,78L75,78ZM81,75L84,75L84,78L81,78ZM96,75L111,75L111,78L96,78ZM114,75L117,75L117,78L114,78ZM120,75L126,75L126,78L120,78ZM129,75L132,75L132,78L129,78ZM138,75L144,75L144,78L138,78ZM147,75L159,75L159,78L147,78ZM165,75L168,75L168,78L165,78ZM180,75L183,75L183,78L180,78ZM186,75L189,75L189,78L186,78ZM30,78L33,78L33,81L30,81ZM39,78L51,78L51,81L39,81ZM54,78L63,78L63,81L54,81ZM66,78L69,78L69,81L66,81ZM81,78L84,78L84,81L81,81ZM87,78L96,78L96,81L87,81ZM99,78L102,78L102,81L99,81ZM105,78L111,78L111,81L105,81ZM117,78L120,78L120,81L117,81ZM126,78L135,78L135,81L126,81ZM138,78L141,78L141,81L138,81ZM147,78L150,78L150,81L147,81ZM159,78L162,78L162,81L159,81ZM165,78L171,78L171,81L165,81ZM174,78L180,78L180,81L174,81ZM33,81L36,81L36,84L33,84ZM42,81L45,81L45,84L42,84ZM51,81L54,81L54,84L51,84ZM57,81L72,81L72,84L57,84ZM75,81L78,81L78,84L75,84ZM81,81L87,81L87,84L81,84ZM93,81L108,81L108,84L93,84ZM114,81L123,81L123,84L114,84ZM126,81L132,81L132,84L126,84ZM135,81L138,81L138,84L135,84ZM144,81L159,81L159,84L144,84ZM162,81L168,81L168,84L162,84ZM177,81L180,81L180,84L177,84ZM183,81L189,81L189,84L183,84ZM30,84L33,84L33,87L30,87ZM45,84L51,84L51,87L45,87ZM57,84L63,84L63,87L57,87ZM84,84L87,84L87,87L84,87ZM102,84L111,84L111,87L102,87ZM114,84L117,84L117,87L114,87ZM120,84L126,84L126,87L120,87ZM129,84L135,84L135,87L129,87ZM138,84L141,84L141,87L138,87ZM144,84L150,84L150,87L144,87ZM153,84L159,84L159,87L153,87ZM162,84L171,84L171,87L162,87ZM174,84L186,84L186,87L174,87ZM30,87L42,87L42,90L30,90ZM45,87L48,87L48,90L45,90ZM54,87L57,87L57,90L54,90ZM69,87L78,87L78,90L69,90ZM81,87L84,87L84,90L81,90ZM87,87L90,87L90,90L87,90ZM93,87L102,87L102,90L93,90ZM108,87L129,87L129,90L108,90ZM138,87L144,87L144,90L138,90ZM147,87L153,87L153,90L147,90ZM156,87L162,87L162,90L156,90ZM171,87L177,87L177,90L171,90ZM183,87L189,87L189,90L183,90ZM45,90L51,90L51,93L45,93ZM60,90L72,90L72,93L60,93ZM75,90L78,90L78,93L75,93ZM84,90L87,90L87,93L84,93ZM90,90L96,90L96,93L90,93ZM99,90L108,90L108,93L99,93ZM117,90L120,90L120,93L117,93ZM123,90L129,90L129,93L123,93ZM132,90L138,90L138,93L132,93ZM141,90L150,90L150,93L141,93ZM153,90L156,90L156,93L153,93ZM162,90L165,90L165,93L162,93ZM180,90L186,90L186,93L180,93ZM30,93L45,93L45,96L30,96ZM51,93L60,93L60,96L51,96ZM63,93L78,93L78,96L63,96ZM99,93L108,93L108,96L99,96ZM111,93L123,93L123,96L111,96ZM126,93L129,93L129,96L126,96ZM141,93L144,93L144,96L141,96ZM147,93L159,93L159,96L147,96ZM162,93L165,93L165,96L162,96ZM168,93L171,93L171,96L168,96ZM177,93L180,93L180,96L177,96ZM183,93L189,93L189,96L183,96ZM30,96L39,96L39,99L30,99ZM42,96L54,96L54,99L42,99ZM57,96L60,96L60,99L57,99ZM66,96L81,96L81,99L66,99ZM84,96L87,96L87,99L84,99ZM90,96L96,96L96,99L90,99ZM102,96L111,96L111,99L102,99ZM114,96L117,96L117,99L114,99ZM120,96L123,96L123,99L120,99ZM129,96L132,96L132,99L129,99ZM135,96L141,96L141,99L135,99ZM147,96L150,96L150,99L147,99ZM156,96L165,96L165,99L156,99ZM168,96L177,96L177,99L168,99ZM180,96L186,96L186,99L180,99ZM33,99L36,99L36,102L33,102ZM42,99L48,99L48,102L42,102ZM63,99L69,99L69,102L63,102ZM72,99L78,99L78,102L72,102ZM84,99L87,99L87,102L84,102ZM96,99L99,99L99,102L96,102ZM102,99L108,99L108,102L102,102ZM111,99L117,99L117,102L111,102ZM120,99L132,99L132,102L120,102ZM138,99L141,99L141,102L138,102ZM147,99L159,99L159,102L147,102ZM165,99L168,99L168,102L165,102ZM174,99L177,99L177,102L174,102ZM183,99L189,99L189,102L183,102ZM36,102L39,102L39,105L36,105ZM42,102L63,102L63,105L42,105ZM66,102L78,102L78,105L66,105ZM84,102L87,102L87,105L84,105ZM93,102L96,102L96,105L93,105ZM99,102L120,102L120,105L99,105ZM123,102L135,102L135,105L123,105ZM141,102L150,102L150,105L141,105ZM153,102L156,102L156,105L153,105ZM162,102L186,102L186,105L162,105ZM30,105L33,105L33,108L30,108ZM42,105L45,105L45,108L42,108ZM54,105L57,105L57,108L54,108ZM60,105L63,105L63,108L60,108ZM66,105L69,105L69,108L66,108ZM78,105L81,105L81,108L78,108ZM84,105L87,105L87,108L84,108ZM93,105L96,105L96,108L93,108ZM99,105L105,105L105,108L99,108ZM114,105L126,105L126,108L114,108ZM132,105L138,105L138,108L132,108ZM150,105L159,105L159,108L150,108ZM162,105L165,105L165,108L162,108ZM174,105L180,105L180,108L174,108ZM186,105L189,105L189,108L186,108ZM30,108L33,108L33,111L30,111ZM36,108L39,108L39,111L36,111ZM42,108L45,108L45,111L42,111ZM48,108L51,108L51,111L48,111ZM54,108L57,108L57,111L54,111ZM75,108L81,108L81,111L75,111ZM84,108L93,108L93,111L84,111ZM99,108L105,108L105,111L99,111ZM108,108L111,108L111,111L108,111ZM114,108L117,108L117,111L114,111ZM120,108L126,108L126,111L120,111ZM129,108L132,108L132,111L129,111ZM138,108L141,108L141,111L138,111ZM144,108L147,108L147,111L144,111ZM156,108L165,108L165,111L156,111ZM168,108L171,108L171,111L168,111ZM174,108L177,108L177,111L174,111ZM180,108L189,108L189,111L180,111ZM30,111L39,111L39,114L30,114ZM42,111L45,111L45,114L42,114ZM54,111L60,111L60,114L54,114ZM63,111L75,111L75,114L63,114ZM78,111L84,111L84,114L78,114ZM96,111L99,111L99,114L96,114ZM102,111L105,111L105,114L102,114ZM114,111L123,111L123,114L114,114ZM141,111L144,111L144,114L141,114ZM147,111L150,111L150,114L147,114ZM153,111L159,111L159,114L153,114ZM162,111L165,111L165,114L162,114ZM174,111L177,111L177,114L174,114ZM180,111L183,111L183,114L180,114ZM186,111L189,111L189,114L186,114ZM30,114L39,114L39,117L30,117ZM42,114L57,114L57,117L42,117ZM63,114L69,114L69,117L63,117ZM72,114L75,114L75,117L72,117ZM81,114L90,114L90,117L81,117ZM93,114L96,114L96,117L93,117ZM99,114L117,114L117,117L99,117ZM123,114L129,114L129,117L123,117ZM132,114L135,114L135,117L132,117ZM138,114L141,114L141,117L138,117ZM144,114L147,114L147,117L144,117ZM150,114L153,114L153,117L150,117ZM156,114L180,114L180,117L156,117ZM30,117L36,117L36,120L30,120ZM42,117L48,117L48,120L42,120ZM54,117L66,117L66,120L54,120ZM72,117L78,117L78,120L72,120ZM81,117L90,117L90,120L81,120ZM96,117L99,117L99,120L96,120ZM102,117L105,117L105,120L102,120ZM108,117L111,117L111,120L108,120ZM123,117L126,117L126,120L123,120ZM135,117L138,117L138,120L135,120ZM144,117L165,117L165,120L144,120ZM168,117L180,117L180,120L168,120ZM183,117L186,117L186,120L183,120ZM30,120L45,120L45,123L30,123ZM48,120L54,120L54,123L48,123ZM78,120L84,120L84,123L78,123ZM90,120L96,120L96,123L90,123ZM99,120L102,120L102,123L99,123ZM114,120L117,120L117,123L114,123ZM123,120L126,120L126,123L123,123ZM129,120L132,120L132,123L129,123ZM135,120L141,120L141,123L135,123ZM144,120L150,120L150,123L144,123ZM153,120L159,120L159,123L153,123ZM180,120L183,120L183,123L180,123ZM186,120L189,120L189,123L186,123ZM30,123L36,123L36,126L30,126ZM51,123L60,123L60,126L51,126ZM63,123L66,123L66,126L63,126ZM69,123L72,123L72,126L69,126ZM75,123L78,123L78,126L75,126ZM87,123L90,123L90,126L87,126ZM96,123L102,123L102,126L96,126ZM108,123L114,123L114,126L108,126ZM120,123L123,123L123,126L120,126ZM129,123L132,123L132,126L129,126ZM135,123L138,123L138,126L135,126ZM153,123L162,123L162,126L153,126ZM165,123L168,123L168,126L165,126ZM171,123L177,123L177,126L171,126ZM180,123L189,123L189,126L180,126ZM30,126L33,126L33,129L30,129ZM36,126L42,126L42,129L36,129ZM48,126L57,126L57,129L48,129ZM60,126L66,126L66,129L60,129ZM81,126L84,126L84,129L81,129ZM93,126L96,126L96,129L93,129ZM102,126L105,126L105,129L102,129ZM111,126L117,126L117,129L111,129ZM123,126L126,126L126,129L123,129ZM129,126L135,126L135,129L129,129ZM138,126L147,126L147,129L138,129ZM153,126L159,126L159,129L153,129ZM174,126L186,126L186,129L174,129ZM39,129L45,129L45,132L39,132ZM54,129L57,129L57,132L54,132ZM69,129L72,129L72,132L69,132ZM75,129L78,129L78,132L75,132ZM84,129L87,129L87,132L84,132ZM90,129L105,129L105,132L90,132ZM108,129L111,129L111,132L108,132ZM117,129L120,129L120,132L117,132ZM123,129L132,129L132,132L123,132ZM138,129L141,129L141,132L138,132ZM147,129L156,129L156,132L147,132ZM159,129L162,129L162,132L159,132ZM165,129L180,129L180,132L165,132ZM30,132L42,132L42,135L30,135ZM48,132L57,132L57,135L48,135ZM60,132L66,132L66,135L60,135ZM84,132L93,132L93,135L84,135ZM102,132L108,132L108,135L102,135ZM120,132L126,132L126,135L120,135ZM129,132L141,132L141,135L129,135ZM153,132L156,132L156,135L153,135ZM165,132L168,132L168,135L165,135ZM171,132L174,132L174,135L171,135ZM180,132L183,132L183,135L180,135ZM30,135L33,135L33,138L30,138ZM39,135L42,135L42,138L39,138ZM45,135L48,135L48,138L45,138ZM54,135L63,135L63,138L54,138ZM69,135L78,135L78,138L69,138ZM93,135L105,135L105,138L93,138ZM108,135L114,135L114,138L108,138ZM117,135L129,135L129,138L117,138ZM135,135L144,135L144,138L135,138ZM147,135L153,135L153,138L147,138ZM156,135L162,135L162,138L156,138ZM168,135L180,135L180,138L168,138ZM30,138L36,138L36,141L30,141ZM42,138L51,138L51,141L42,141ZM54,138L57,138L57,141L54,141ZM66,138L72,138L72,141L66,141ZM75,138L84,138L84,141L75,141ZM87,138L90,138L90,141L87,141ZM102,138L108,138L108,141L102,141ZM111,138L117,138L117,141L111,141ZM123,138L129,138L129,141L123,141ZM132,138L141,138L141,141L132,141ZM144,138L150,138L150,141L144,141ZM153,138L156,138L156,141L153,141ZM165,138L168,138L168,141L165,141ZM171,138L177,138L177,141L171,141ZM180,138L183,138L183,141L180,141ZM186,138L189,138L189,141L186,141ZM30,141L39,141L39,144L30,144ZM42,141L48,141L48,144L42,144ZM51,141L60,141L60,144L51,144ZM63,141L66,141L66,144L63,144ZM69,141L72,141L72,144L69,144ZM75,141L78,141L78,144L75,144ZM81,141L93,141L93,144L81,144ZM99,141L102,141L102,144L99,144ZM105,141L108,141L108,144L105,144ZM120,141L123,141L123,144L120,144ZM126,141L132,141L132,144L126,144ZM135,141L138,141L138,144L135,144ZM147,141L162,141L162,144L147,144ZM168,141L171,141L171,144L168,144ZM177,141L180,141L180,144L177,144ZM183,141L189,141L189,144L183,144ZM33,144L36,144L36,147L33,147ZM48,144L51,144L51,147L48,147ZM54,144L57,144L57,147L54,147ZM69,144L75,144L75,147L69,147ZM78,144L81,144L81,147L78,147ZM84,144L87,144L87,147L84,147ZM90,144L96,144L96,147L90,147ZM102,144L105,144L105,147L102,147ZM111,144L123,144L123,147L111,147ZM129,144L132,144L132,147L129,147ZM135,144L144,144L144,147L135,147ZM147,144L150,144L150,147L147,147ZM162,144L165,144L165,147L162,147ZM180,144L186,144L186,147L180,147ZM30,147L39,147L39,150L30,150ZM42,147L48,147L48,150L42,150ZM51,147L57,147L57,150L51,150ZM63,147L66,147L66,150L63,150ZM72,147L78,147L78,150L72,150ZM81,147L90,147L90,150L81,150ZM96,147L102,147L102,150L96,150ZM105,147L111,147L111,150L105,150ZM114,147L117,147L117,150L114,150ZM120,147L123,147L123,150L120,150ZM126,147L129,147L129,150L126,150ZM138,147L141,147L141,150L138,150ZM147,147L159,147L159,150L147,150ZM162,147L168,147L168,150L162,150ZM171,147L180,147L180,150L171,150ZM183,147L189,147L189,150L183,150ZM30,150L33,150L33,153L30,153ZM36,150L39,150L39,153L36,153ZM48,150L51,150L51,153L48,153ZM54,150L63,150L63,153L54,153ZM66,150L78,150L78,153L66,153ZM84,150L93,150L93,153L84,153ZM102,150L105,150L105,153L102,153ZM108,150L117,150L117,153L108,153ZM123,150L150,150L150,153L123,153ZM171,150L180,150L180,153L171,153ZM183,150L186,150L186,153L183,153ZM30,153L33,153L33,156L30,156ZM36,153L42,153L42,156L36,156ZM51,153L57,153L57,156L51,156ZM60,153L66,153L66,156L60,156ZM78,153L87,153L87,156L78,156ZM108,153L114,153L114,156L108,156ZM120,153L123,153L123,156L120,156ZM126,153L129,153L129,156L126,156ZM135,153L138,153L138,156L135,156ZM147,153L156,153L156,156L147,156ZM159,153L171,153L171,156L159,156ZM174,153L180,153L180,156L174,156ZM183,153L186,153L186,156L183,156ZM30,156L36,156L36,159L30,159ZM39,156L54,156L54,159L39,159ZM57,156L69,156L69,159L57,159ZM75,156L81,156L81,159L75,159ZM84,156L87,156L87,159L84,159ZM99,156L108,156L108,159L99,159ZM123,156L126,156L126,159L123,159ZM138,156L141,156L141,159L138,159ZM144,156L147,156L147,159L144,159ZM168,156L171,156L171,159L168,159ZM180,156L183,156L183,159L180,159ZM33,159L39,159L39,162L33,162ZM51,159L54,159L54,162L51,162ZM66,159L75,159L75,162L66,162ZM78,159L84,159L84,162L78,162ZM87,159L90,159L90,162L87,162ZM99,159L111,159L111,162L99,162ZM117,159L123,159L123,162L117,162ZM135,159L138,159L138,162L135,162ZM141,159L144,159L144,162L141,162ZM147,159L150,159L150,162L147,162ZM153,159L159,159L159,162L153,162ZM162,159L165,159L165,162L162,162ZM168,159L177,159L177,162L168,162ZM180,159L189,159L189,162L180,162ZM39,162L42,162L42,165L39,165ZM48,162L54,162L54,165L48,165ZM57,162L60,162L60,165L57,165ZM63,162L69,162L69,165L63,165ZM72,162L75,162L75,165L72,165ZM84,162L90,162L90,165L84,165ZM96,162L99,162L99,165L96,165ZM102,162L117,162L117,165L102,165ZM123,162L129,162L129,165L123,165ZM132,162L138,162L138,165L132,165ZM144,162L153,162L153,165L144,165ZM156,162L180,162L180,165L156,165ZM183,162L189,162L189,165L183,165ZM54,165L57,165L57,168L54,168ZM60,165L63,165L63,168L60,168ZM69,165L72,165L72,168L69,168ZM78,165L81,165L81,168L78,168ZM84,165L87,165L87,168L84,168ZM90,165L93,165L93,168L90,168ZM96,165L105,165L105,168L96,168ZM114,165L117,165L117,168L114,168ZM120,165L126,165L126,168L120,168ZM129,165L132,165L132,168L129,168ZM135,165L141,165L141,168L135,168ZM150,165L153,165L153,168L150,168ZM156,165L159,165L159,168L156,168ZM162,165L165,165L165,168L162,168ZM174,165L180,165L180,168L174,168ZM183,165L189,165L189,168L183,168ZM30,168L51,168L51,171L30,171ZM54,168L69,168L69,171L54,171ZM72,168L84,168L84,171L72,171ZM90,168L96,168L96,171L90,171ZM102,168L105,168L105,171L102,171ZM108,168L111,168L111,171L108,171ZM114,168L120,168L120,171L114,171ZM123,168L126,168L126,171L123,171ZM132,168L150,168L150,171L132,171ZM153,168L165,168L165,171L153,171ZM168,168L171,168L171,171L168,171ZM174,168L183,168L183,171L174,171ZM30,171L33,171L33,174L30,174ZM48,171L51,171L51,174L48,174ZM57,171L63,171L63,174L57,174ZM69,171L78,171L78,174L69,174ZM87,171L90,171L90,174L87,174ZM96,171L99,171L99,174L96,174ZM102,171L105,171L105,174L102,174ZM114,171L126,171L126,174L114,174ZM153,171L159,171L159,174L153,174ZM162,171L165,171L165,174L162,174ZM174,171L180,171L180,174L174,174ZM186,171L189,171L189,174L186,174ZM30,174L33,174L33,177L30,177ZM36,174L45,174L45,177L36,177ZM48,174L51,174L51,177L48,177ZM54,174L72,174L72,177L54,177ZM81,174L84,174L84,177L81,177ZM99,174L120,174L120,177L99,177ZM123,174L126,174L126,177L123,177ZM132,174L147,174L147,177L132,177ZM150,174L156,174L156,177L150,177ZM162,174L177,174L177,177L162,177ZM183,174L186,174L186,177L183,177ZM30,177L33,177L33,180L30,180ZM36,177L45,177L45,180L36,180ZM48,177L51,177L51,180L48,180ZM54,177L57,177L57,180L54,180ZM66,177L72,177L72,180L66,180ZM75,177L78,177L78,180L75,180ZM84,177L90,177L90,180L84,180ZM93,177L99,177L99,180L93,180ZM114,177L117,177L117,180L114,180ZM120,177L123,177L123,180L120,180ZM126,177L129,177L129,180L126,180ZM135,177L138,177L138,180L135,180ZM141,177L144,177L144,180L141,180ZM147,177L159,177L159,180L147,180ZM165,177L168,177L168,180L165,180ZM171,177L174,177L174,180L171,180ZM177,177L180,177L180,180L177,180ZM30,180L33,180L33,183L30,183ZM36,180L45,180L45,183L36,183ZM48,180L51,180L51,183L48,183ZM54,180L60,180L60,183L54,183ZM63,180L75,180L75,183L63,183ZM84,180L93,180L93,183L84,183ZM99,180L105,180L105,183L99,183ZM108,180L111,180L111,183L108,183ZM117,180L126,180L126,183L117,183ZM129,180L135,180L135,183L129,183ZM138,180L144,180L144,183L138,183ZM153,180L162,180L162,183L153,183ZM165,180L174,180L174,183L165,183ZM180,180L186,180L186,183L180,183ZM30,183L33,183L33,186L30,186ZM48,183L51,183L51,186L48,186ZM54,183L57,183L57,186L54,186ZM60,183L63,183L63,186L60,186ZM66,183L72,183L72,186L66,186ZM75,183L78,183L78,186L75,186ZM81,183L84,183L84,186L81,186ZM96,183L105,183L105,186L96,186ZM114,183L123,183L123,186L114,186ZM126,183L132,183L132,186L126,186ZM135,183L138,183L138,186L135,186ZM141,183L144,183L144,186L141,186ZM147,183L159,183L159,186L147,186ZM162,183L168,183L168,186L162,186ZM171,183L177,183L177,186L171,186ZM186,183L189,183L189,186L186,186ZM30,186L51,186L51,189L30,189ZM54,186L57,186L57,189L54,189ZM72,186L78,186L78,189L72,189ZM102,186L117,186L117,189L102,189ZM126,186L129,186L129,189L126,189ZM132,186L135,186L135,189L132,189ZM144,186L150,186L150,189L144,189ZM156,186L162,186L162,189L156,189ZM165,186L183,186L183,189L165,189Z"/></svg>
