<?xml version="1.0"?>
<svg xmlns="http://www.w3.org/2000/svg" xmlns:xlink="http://www.w3.org/1999/xlink" version="1.1" width="220px" height="220px" viewBox="0 0 220 220"><defs><rect id="block" width="3.0000000000" height="3.0000000000" fill="#000000" fill-opacity="1"/></defs><rect x="0" y="0" width="220" height="220" fill="#ffffff" fill-opacity="1"/><use x="30.0000000000" y="30.0000000000" xlink:href="#block"/><use x="33.0000000000" y="30.0000000000" xlink:href="#block"/><use x="36.0000000000" y="30.0000000000" xlink:href="#block"/><use x="39.0000000000" y="30.0000000000" xlink:href="#block"/><use x="42.0000000000" y="30.0000000000" xlink:href="#block"/><use x="45.0000000000" y="30.0000000000" xlink:href="#block"/><use x="48.0000000000" y="30.0000000000" xlink:href="#block"/><use x="60.0000000000" y="30.0000000000" xlink:href="#block"/><use x="69.0000000000" y="30.0000000000" xlink:href="#block"/><use x="75.0000000000" y="30.0000000000" xlink:href="#block"/><use x="81.0000000000" y="30.0000000000" xlink:href="#block"/><use x="84.0000000000" y="30.0000000000" xlink:href="#block"/><use x="93.0000000000" y="30.0000000000" xlink:href="#block"/><use x="96.0000000000" y="30.0000000000" xlink:href="#block"/><use x="102.0000000000" y="30.0000000000" xlink:href="#block"/><use x="105.0000000000" y="30.0000000000" xlink:href="#block"/><use x="120.0000000000" y="30.0000000000" xlink:href="#block"/><use x="126.0000000000" y="30.0000000000" xlink:href="#block"/><use x="129.0000000000" y="30.0000000000" xlink:href="#block"/><use x="138.0000000000" y="30.0000000000" xlink:href="#block"/><use x="147.0000000000" y="30.0000000000" xlink:href="#block"/><use x="150.0000000000" y="30.0000000000" xlink:href="#block"/><use x="156.0000000000" y="30.0000000000" xlink:href="#block"/><use x="168.0000000000" y="30.0000000000" xlink:href="#block"/><use x="171.0000000000" y="30.0000000000" xlink:href="#block"/><use x="174.0000000000" y="30.0000000000" xlink:href="#block"/><use x="177.0000000000" y="30.0000000000" xlink:href="#block"/><use x="180.0000000000" y="30.0000000000" xlink:href="#block"/><use x="183.0000000000" y="30.0000000000" xlink:href="#block"/><use x="186.0000000000" y="30.0000000000" xlink:href="#block"/><use x="30.0000000000" y="33.0000000000" xlink:href="#block"/><use x="48.0000000000" y="33.0000000000" xlink:href="#block"/><use x="54.0000000000" y="33.0000000000" xlink:href="#block"/><use x="63.0000000000" y="33.0000000000" xlink:href="#block"/><use x="84.0000000000" y="33.0000000000" xlink:href="#block"/><use x="102.0000000000" y="33.0000000000" xlink:href="#block"/><use x="105.0000000000" y="33.0000000000" xlink:href="#block"/><use x="111.0000000000" y="33.0000000000" xlink:href="#block"/><use x="114.0000000000" y="33.0000000000" xlink:href="#block"/><use x="135.0000000000" y="33.0000000000" xlink:href="#block"/><use x="138.0000000000" y="33.0000000000" xlink:href="#block"/><use x="144.0000000000" y="33.0000000000" xlink:href="#block"/><use x="147.0000000000" y="33.0000000000" xlink:href="#block"/><use x="156.0000000000" y="33.0000000000" xlink:href="#block"/><use x="159.0000000000" y="33.0000000000" xlink:href="#block"/><use x="168.0000000000" y="33.0000000000" xlink:href="#block"/><use x="186.0000000000" y="33.0000000000" xlink:href="#block"/><use x="30.0000000000" y="36.0000000000" xlink:href="#block"/><use x="36.0000000000" y="36.0000000000" xlink:href="#block"/><use x="39.0000000000" y="36.0000000000" xlink:href="#block"/><use x="42.0000000000" y="36.0000000000" xlink:href="#block"/><use x="48.0000000000" y="36.0000000000" xlink:href="#block"/><use x="57.0000000000" y="36.0000000000" xlink:href="#block"/><use x="60.0000000000" y="36.0000000000" xlink:href="#block"/><use x="63.0000000000" y="36.0000000000" xlink:href="#block"/><use x="66.0000000000" y="36.0000000000" xlink:href="#block"/><use x="69.0000000000" y="36.0000000000" xlink:href="#block"/><use x="72.0000000000" y="36.0000000000" xlink:href="#block"/><use x="75.0000000000" y="36.0000000000" xlink:href="#block"/><use x="81.0000000000" y="36.0000000000" xlink:href="#block"/><use x="87.0000000000" y="36.0000000000" xlink:href="#block"/><use x="93.0000000000" y="36.0000000000" xlink:href="#block"/><use x="96.0000000000" y="36.0000000000" xlink:href="#block"/><use x="99.0000000000" y="36.0000000000" xlink:href="#block"/><use x="102.0000000000" y="36.0000000000" xlink:href="#block"/><use x="105.0000000000" y="36.0000000000" xlink:href="#block"/><use x="108.0000000000" y="36.0000000000" xlink:href="#block"/><use x="111.0000000000" y="36.0000000000" xlink:href="#block"/><use x="114.0000000000" y="36.0000000000" xlink:href="#block"/><use x="117.0000000000" y="36.0000000000" xlink:href="#block"/><use x="120.0000000000" y="36.0000000000" xlink:href="#block"/><use x="123.0000000000" y="36.0000000000" xlink:href="#block"/><use x="129.0000000000" y="36.0000000000" xlink:href="#block"/><use x="141.0000000000" y="36.0000000000" xlink:href="#block"/><use x="159.0000000000" y="36.0000000000" xlink:href="#block"/><use x="168.0000000000" y="36.0000000000" xlink:href="#block"/><use x="174.0000000000" y="36.0000000000" xlink:href="#block"/><use x="177.0000000000" y="36.0000000000" xlink:href="#block"/><use x="180.0000000000" y="36.0000000000" xlink:href="#block"/><use x="186.0000000000" y="36.0000000000" xlink:href="#block"/><use x="30.0000000000" y="39.0000000000" xlink:href="#block"/><use x="36.0000000000" y="39.0000000000" xlink:href="#block"/><use x="39.0000000000" y="39.0000000000" xlink:href="#block"/><use x="42.0000000000" y="39.0000000000" xlink:href="#block"/><use x="48.0000000000" y="39.0000000000" xlink:href="#block"/><use x="54.0000000000" y="39.0000000000" xlink:href="#block"/><use x="57.0000000000" y="39.0000000000" xlink:href="#block"/><use x="60.0000000000" y="39.0000000000" xlink:href="#block"/><use x="72.0000000000" y="39.0000000000" xlink:href="#block"/><use x="75.0000000000" y="39.0000000000" xlink:href="#block"/><use x="84.0000000000" y="39.0000000000" xlink:href="#block"/><use x="90.0000000000" y="39.0000000000" xlink:href="#block"/><use x="93.0000000000" y="39.0000000000" xlink:href="#block"/><use x="126.0000000000" y="39.0000000000" xlink:href="#block"/><use x="129.0000000000" y="39.0000000000" xlink:href="#block"/><use x="132.0000000000" y="39.0000000000" xlink:href="#block"/><use x="144.0000000000" y="39.0000000000" xlink:href="#block"/><use x="147.0000000000" y="39.0000000000" xlink:href="#block"/><use x="150.0000000000" y="39.0000000000" xlink:href="#block"/><use x="153.0000000000" y="39.0000000000" xlink:href="#block"/><use x="156.0000000000" y="39.0000000000" xlink:href="#block"/><use x="162.0000000000" y="39.0000000000" xlink:href="#block"/><use x="168.0000000000" y="39.0000000000" xlink:href="#block"/><use x="174.0000000000" y="39.0000000000" xlink:href="#block"/><use x="177.0000000000" y="39.0000000000" xlink:href="#block"/><use x="180.0000000000" y="39.0000000000" xlink:href="#block"/><use x="186.0000000000" y="39.0000000000" xlink:href="#block"/><use x="30.0000000000" y="42.0000000000" xlink:href="#block"/><use x="36.0000000000" y="42.0000000000" xlink:href="#block"/><use x="39.0000000000" y="42.0000000000" xlink:href="#block"/><use x="42.0000000000" y="42.0000000000" xlink:href="#block"/><use x="48.0000000000" y="42.0000000000" xlink:href="#block"/><use x="60.0000000000" y="42.0000000000" xlink:href="#block"/><use x="63.0000000000" y="42.0000000000" xlink:href="#block"/><use x="66.0000000000" y="42.0000000000" xlink:href="#block"/><use x="72.0000000000" y="42.0000000000" xlink:href="#block"/><use x="96.0000000000" y="42.0000000000" xlink:href="#block"/><use x="102.0000000000" y="42.0000000000" xlink:href="#block"/><use x="105.0000000000" y="42.0000000000" xlink:href="#block"/><use x="108.0000000000" y="42.0000000000" xlink:href="#block"/><use x="111.0000000000" y="42.0000000000" xlink:href="#block"/><use x="114.0000000000" y="42.0000000000" xlink:href="#block"/><use x="117.0000000000" y="42.0000000000" xlink:href="#block"/><use x="126.0000000000" y="42.0000000000" xlink:href="#block"/><use x="129.0000000000" y="42.0000000000" xlink:href="#block"/><use x="135.0000000000" y="42.0000000000" xlink:href="#block"/><use x="141.0000000000" y="42.0000000000" xlink:href="#block"/><use x="144.0000000000" y="42.0000000000" xlink:href="#block"/><use x="147.0000000000" y="42.0000000000" xlink:href="#block"/><use x="150.0000000000" y="42.0000000000" xlink:href="#block"/><use x="156.0000000000" y="42.0000000000" xlink:href="#block"/><use x="168.0000000000" y="42.0000000000" xlink:href="#block"/><use x="174.0000000000" y="42.0000000000" xlink:href="#block"/><use x="177.0000000000" y="42.0000000000" xlink:href="#block"/><use x="180.0000000000" y="42.0000000000" xlink:href="#block"/><use x="186.0000000000" y="42.0000000000" xlink:href="#block"/><use x="30.0000000000" y="45.0000000000" xlink:href="#block"/><use x="48.0000000000" y="45.0000000000" xlink:href="#block"/><use x="54.0000000000" y="45.0000000000" xlink:href="#block"/><use x="60.0000000000" y="45.0000000000" xlink:href="#block"/><use x="63.0000000000" y="45.0000000000" xlink:href="#block"/><use x="66.0000000000" y="45.0000000000" xlink:href="#block"/><use x="69.0000000000" y="45.0000000000" xlink:href="#block"/><use x="72.0000000000" y="45.0000000000" xlink:href="#block"/><use x="78.0000000000" y="45.0000000000" xlink:href="#block"/><use x="84.0000000000" y="45.0000000000" xlink:href="#block"/><use x="90.0000000000" y="45.0000000000" xlink:href="#block"/><use x="102.0000000000" y="45.0000000000" xlink:href="#block"/><use x="114.0000000000" y="45.0000000000" xlink:href="#block"/><use x="120.0000000000" y="45.0000000000" xlink:href="#block"/><use x="123.0000000000" y="45.0000000000" xlink:href="#block"/><use x="129.0000000000" y="45.0000000000" xlink:href="#block"/><use x="132.0000000000" y="45.0000000000" xlink:href="#block"/><use x="138.0000000000" y="45.0000000000" xlink:href="#block"/><use x="156.0000000000" y="45.0000000000" xlink:href="#block"/><use x="168.0000000000" y="45.0000000000" xlink:href="#block"/><use x="186.0000000000" y="45.0000000000" xlink:href="#block"/><use x="30.0000000000" y="48.0000000000" xlink:href="#block"/><use x="33.0000000000" y="48.0000000000" xlink:href="#block"/><use x="36.0000000000" y="48.0000000000" xlink:href="#block"/><use x="39.0000000000" y="48.0000000000" xlink:href="#block"/><use x="42.0000000000" y="48.0000000000" xlink:href="#block"/><use x="45.0000000000" y="48.0000000000" xlink:href="#block"/><use x="48.0000000000" y="48.0000000000" xlink:href="#block"/><use x="54.0000000000" y="48.0000000000" xlink:href="#block"/><use x="60.0000000000" y="48.0000000000" xlink:href="#block"/><use x="66.0000000000" y="48.0000000000" xlink:href="#block"/><use x="72.0000000000" y="48.0000000000" xlink:href="#block"/><use x="78.0000000000" y="48.0000000000" xlink:href="#block"/><use x="84.0000000000" y="48.0000000000" xlink:href="#block"/><use x="90.0000000000" y="48.0000000000" xlink:href="#block"/><use x="96.0000000000" y="48.0000000000" xlink:href="#block"/><use x="102.0000000000" y="48.0000000000" xlink:href="#block"/><use x="108.0000000000" y="48.0000000000" xlink:href="#block"/><use x="114.0000000000" y="48.0000000000" xlink:href="#block"/><use x="120.0000000000" y="48.0000000000" xlink:href="#block"/><use x="126.0000000000" y="48.0000000000" xlink:href="#block"/><use x="132.0000000000" y="48.0000000000" xlink:href="#block"/><use x="138.0000000000" y="48.0000000000" xlink:href="#block"/><use x="144.0000000000" y="48.0000000000" xlink:href="#block"/><use x="150.0000000000" y="48.0000000000" xlink:href="#block"/><use x="156.0000000000" y="48.0000000000" xlink:href="#block"/><use x="162.0000000000" y="48.0000000000" xlink:href="#block"/><use x="168.0000000000" y="48.0000000000" xlink:href="#block"/><use x="171.0000000000" y="48.0000000000" xlink:href="#block"/><use x="174.0000000000" y="48.0000000000" xlink:href="#block"/><use x="177.0000000000" y="48.0000000000" xlink:href="#block"/><use x="180.0000000000" y="48.0000000000" xlink:href="#block"/><use x="183.0000000000" y="48.0000000000" xlink:href="#block"/><use x="186.0000000000" y="48.0000000000" xlink:href="#block"/><use x="66.0000000000" y="51.0000000000" xlink:href="#block"/><use x="72.0000000000" y="51.0000000000" xlink:href="#block"/><use x="75.0000000000" y="51.0000000000" xlink:href="#block"/><use x="93.0000000000" y="51.0000000000" xlink:href="#block"/><use x="99.0000000000" y="51.0000000000" xlink:href="#block"/><use x="102.0000000000" y="51.0000000000" xlink:href="#block"/><use x="114.0000000000" y="51.0000000000" xlink:href="#block"/><use x="120.0000000000" y="51.0000000000" xlink:href="#block"/><use x="135.0000000000" y="51.0000000000" xlink:href="#block"/><use x="141.0000000000" y="51.0000000000" xlink:href="#block"/><use x="147.0000000000" y="51.0000000000" xlink:href="#block"/><use x="150.0000000000" y="51.0000000000" xlink:href="#block"/><use x="153.0000000000" y="51.0000000000" xlink:href="#block"/><use x="156.0000000000" y="51.0000000000" xlink:href="#block"/><use x="159.0000000000" y="51.0000000000" xlink:href="#block"/><use x="30.0000000000" y="54.0000000000" xlink:href="#block"/><use x="33.0000000000" y="54.0000000000" xlink:href="#block"/><use x="36.0000000000" y="54.0000000000" xlink:href="#block"/><use x="39.0000000000" y="54.0000000000" xlink:href="#block"/><use x="42.0000000000" y="54.0000000000" xlink:href="#block"/><use x="48.0000000000" y="54.0000000000" xlink:href="#block"/><use x="51.0000000000" y="54.0000000000" xlink:href="#block"/><use x="54.0000000000" y="54.0000000000" xlink:href="#block"/><use x="60.0000000000" y="54.0000000000" xlink:href="#block"/><use x="69.0000000000" y="54.0000000000" xlink:href="#block"/><use x="72.0000000000" y="54.0000000000" xlink:href="#block"/><use x="75.0000000000" y="54.0000000000" xlink:href="#block"/><use x="84.0000000000" y="54.0000000000" xlink:href="#block"/><use x="87.0000000000" y="54.0000000000" xlink:href="#block"/><use x="93.0000000000" y="54.0000000000" xlink:href="#block"/><use x="96.0000000000" y="54.0000000000" xlink:href="#block"/><use x="99.0000000000" y="54.0000000000" xlink:href="#block"/><use x="102.0000000000" y="54.0000000000" xlink:href="#block"/><use x="105.0000000000" y="54.0000000000" xlink:href="#block"/><use x="108.0000000000" y="54.0000000000" xlink:href="#block"/><use x="111.0000000000" y="54.0000000000" xlink:href="#block"/><use x="114.0000000000" y="54.0000000000" xlink:href="#block"/><use x="117.0000000000" y="54.0000000000" xlink:href="#block"/><use x="123.0000000000" y="54.0000000000" xlink:href="#block"/><use x="129.0000000000" y="54.0000000000" xlink:href="#block"/><use x="135.0000000000" y="54.0000000000" xlink:href="#block"/><use x="138.0000000000" y="54.0000000000" xlink:href="#block"/><use x="147.0000000000" y="54.0000000000" xlink:href="#block"/><use x="150.0000000000" y="54.0000000000" xlink:href="#block"/><use x="159.0000000000" y="54.0000000000" xlink:href="#block"/><use x="162.0000000000" y="54.0000000000" xlink:href="#block"/><use x="165.0000000000" y="54.0000000000" xlink:href="#block"/><use x="171.0000000000" y="54.0000000000" xlink:href="#block"/><use x="177.0000000000" y="54.0000000000" xlink:href="#block"/><use x="183.0000000000" y="54.0000000000" xlink:href="#block"/><use x="30.0000000000" y="57.0000000000" xlink:href="#block"/><use x="33.0000000000" y="57.0000000000" xlink:href="#block"/><use x="39.0000000000" y="57.0000000000" xlink:href="#block"/><use x="42.0000000000" y="57.0000000000" xlink:href="#block"/><use x="66.0000000000" y="57.0000000000" xlink:href="#block"/><use x="78.0000000000" y="57.0000000000" xlink:href="#block"/><use x="93.0000000000" y="57.0000000000" xlink:href="#block"/><use x="96.0000000000" y="57.0000000000" xlink:href="#block"/><use x="99.0000000000" y="57.0000000000" xlink:href="#block"/><use x="102.0000000000" y="57.0000000000" xlink:href="#block"/><use x="105.0000000000" y="57.0000000000" xlink:href="#block"/><use x="126.0000000000" y="57.0000000000" xlink:href="#block"/><use x="129.0000000000" y="57.0000000000" xlink:href="#block"/><use x="135.0000000000" y="57.0000000000" xlink:href="#block"/><use x="150.0000000000" y="57.0000000000" xlink:href="#block"/><use x="165.0000000000" y="57.0000000000" xlink:href="#block"/><use x="168.0000000000" y="57.0000000000" xlink:href="#block"/><use x="171.0000000000" y="57.0000000000" xlink:href="#block"/><use x="177.0000000000" y="57.0000000000" xlink:href="#block"/><use x="183.0000000000" y="57.0000000000" xlink:href="#block"/><use x="30.0000000000" y="60.0000000000" xlink:href="#block"/><use x="33.0000000000" y="60.0000000000" xlink:href="#block"/><use x="39.0000000000" y="60.0000000000" xlink:href="#block"/><use x="45.0000000000" y="60.0000000000" xlink:href="#block"/><use x="48.0000000000" y="60.0000000000" xlink:href="#block"/><use x="51.0000000000" y="60.0000000000" xlink:href="#block"/><use x="63.0000000000" y="60.0000000000" xlink:href="#block"/><use x="75.0000000000" y="60.0000000000" xlink:href="#block"/><use x="78.0000000000" y="60.0000000000" xlink:href="#block"/><use x="84.0000000000" y="60.0000000000" xlink:href="#block"/><use x="99.0000000000" y="60.0000000000" xlink:href="#block"/><use x="105.0000000000" y="60.0000000000" xlink:href="#block"/><use x="108.0000000000" y="60.0000000000" xlink:href="#block"/><use x="114.0000000000" y="60.0000000000" xlink:href="#block"/><use x="123.0000000000" y="60.0000000000" xlink:href="#block"/><use x="138.0000000000" y="60.0000000000" xlink:href="#block"/><use x="144.0000000000" y="60.0000000000" xlink:href="#block"/><use x="147.0000000000" y="60.0000000000" xlink:href="#block"/><use x="153.0000000000" y="60.0000000000" xlink:href="#block"/><use x="162.0000000000" y="60.0000000000" xlink:href="#block"/><use x="165.0000000000" y="60.0000000000" xlink:href="#block"/><use x="168.0000000000" y="60.0000000000" xlink:href="#block"/><use x="174.0000000000" y="60.0000000000" xlink:href="#block"/><use x="180.0000000000" y="60.0000000000" xlink:href="#block"/><use x="33.0000000000" y="63.0000000000" xlink:href="#block"/><use x="39.0000000000" y="63.0000000000" xlink:href="#block"/><use x="45.0000000000" y="63.0000000000" xlink:href="#block"/><use x="57.0000000000" y="63.0000000000" xlink:href="#block"/><use x="60.0000000000" y="63.0000000000" xlink:href="#block"/><use x="63.0000000000" y="63.0000000000" xlink:href="#block"/><use x="69.0000000000" y="63.0000000000" xlink:href="#block"/><use x="72.0000000000" y="63.0000000000" xlink:href="#block"/><use x="78.0000000000" y="63.0000000000" xlink:href="#block"/><use x="81.0000000000" y="63.0000000000" xlink:href="#block"/><use x="87.0000000000" y="63.0000000000" xlink:href="#block"/><use x="93.0000000000" y="63.0000000000" xlink:href="#block"/><use x="96.0000000000" y="63.0000000000" xlink:href="#block"/><use x="99.0000000000" y="63.0000000000" xlink:href="#block"/><use x="105.0000000000" y="63.0000000000" xlink:href="#block"/><use x="111.0000000000" y="63.0000000000" xlink:href="#block"/><use x="114.0000000000" y="63.0000000000" xlink:href="#block"/><use x="117.0000000000" y="63.0000000000" xlink:href="#block"/><use x="120.0000000000" y="63.0000000000" xlink:href="#block"/><use x="126.0000000000" y="63.0000000000" xlink:href="#block"/><use x="141.0000000000" y="63.0000000000" xlink:href="#block"/><use x="147.0000000000" y="63.0000000000" xlink:href="#block"/><use x="150.0000000000" y="63.0000000000" xlink:href="#block"/><use x="156.0000000000" y="63.0000000000" xlink:href="#block"/><use x="159.0000000000" y="63.0000000000" xlink:href="#block"/><use x="171.0000000000" y="63.0000000000" xlink:href="#block"/><use x="177.0000000000" y="63.0000000000" xlink:href="#block"/><use x="186.0000000000" y="63.0000000000" xlink:href="#block"/><use x="36.0000000000" y="66.0000000000" xlink:href="#block"/><use x="45.0000000000" y="66.0000000000" xlink:href="#block"/><use x="48.0000000000" y="66.0000000000" xlink:href="#block"/><use x="51.0000000000" y="66.0000000000" xlink:href="#block"/><use x="57.0000000000" y="66.0000000000" xlink:href="#block"/><use x="60.0000000000" y="66.0000000000" xlink:href="#block"/><use x="66.0000000000" y="66.0000000000" xlink:href="#block"/><use x="69.0000000000" y="66.0000000000" xlink:href="#block"/><use x="84.0000000000" y="66.0000000000" xlink:href="#block"/><use x="90.0000000000" y="66.0000000000" xlink:href="#block"/><use x="93.0000000000" y="66.0000000000" xlink:href="#block"/><use x="96.0000000000" y="66.0000000000" xlink:href="#block"/><use x="129.0000000000" y="66.0000000000" xlink:href="#block"/><use x="132.0000000000" y="66.0000000000" xlink:href="#block"/><use x="138.0000000000" y="66.0000000000" xlink:href="#block"/><use x="144.0000000000" y="66.0000000000" xlink:href="#block"/><use x="147.0000000000" y="66.0000000000" xlink:href="#block"/><use x="153.0000000000" y="66.0000000000" xlink:href="#block"/><use x="162.0000000000" y="66.0000000000" xlink:href="#block"/><use x="165.0000000000" y="66.0000000000" xlink:href="#block"/><use x="168.0000000000" y="66.0000000000" xlink:href="#block"/><use x="171.0000000000" y="66.0000000000" xlink:href="#block"/><use x="177.0000000000" y="66.0000000000" xlink:href="#block"/><use x="33.0000000000" y="69.0000000000" xlink:href="#block"/><use x="36.0000000000" y="69.0000000000" xlink:href="#block"/><use x="39.0000000000" y="69.0000000000" xlink:href="#block"/><use x="51.0000000000" y="69.0000000000" xlink:href="#block"/><use x="54.0000000000" y="69.0000000000" xlink:href="#block"/><use x="60.0000000000" y="69.0000000000" xlink:href="#block"/><use x="63.0000000000" y="69.0000000000" xlink:href="#block"/><use x="69.0000000000" y="69.0000000000" xlink:href="#block"/><use x="75.0000000000" y="69.0000000000" xlink:href="#block"/><use x="84.0000000000" y="69.0000000000" xlink:href="#block"/><use x="90.0000000000" y="69.0000000000" xlink:href="#block"/><use x="93.0000000000" y="69.0000000000" xlink:href="#block"/><use x="102.0000000000" y="69.0000000000" xlink:href="#block"/><use x="111.0000000000" y="69.0000000000" xlink:href="#block"/><use x="117.0000000000" y="69.0000000000" xlink:href="#block"/><use x="120.0000000000" y="69.0000000000" xlink:href="#block"/><use x="126.0000000000" y="69.0000000000" xlink:href="#block"/><use x="129.0000000000" y="69.0000000000" xlink:href="#block"/><use x="132.0000000000" y="69.0000000000" xlink:href="#block"/><use x="141.0000000000" y="69.0000000000" xlink:href="#block"/><use x="147.0000000000" y="69.0000000000" xlink:href="#block"/><use x="150.0000000000" y="69.0000000000" xlink:href="#block"/><use x="153.0000000000" y="69.0000000000" xlink:href="#block"/><use x="156.0000000000" y="69.0000000000" xlink:href="#block"/><use x="168.0000000000" y="69.0000000000" xlink:href="#block"/><use x="177.0000000000" y="69.0000000000" xlink:href="#block"/><use x="183.0000000000" y="69.0000000000" xlink:href="#block"/><use x="186.0000000000" y="69.0000000000" xlink:href="#block"/><use x="30.0000000000" y="72.0000000000" xlink:href="#block"/><use x="33.0000000000" y="72.0000000000" xlink:href="#block"/><use x="42.0000000000" y="72.0000000000" xlink:href="#block"/><use x="45.0000000000" y="72.0000000000" xlink:href="#block"/><use x="48.0000000000" y="72.0000000000" xlink:href="#block"/><use x="66.0000000000" y="72.0000000000" xlink:href="#block"/><use x="78.0000000000" y="72.0000000000" xlink:href="#block"/><use x="81.0000000000" y="72.0000000000" xlink:href="#block"/><use x="84.0000000000" y="72.0000000000" xlink:href="#block"/><use x="87.0000000000" y="72.0000000000" xlink:href="#block"/><use x="90.0000000000" y="72.0000000000" xlink:href="#block"/><use x="93.0000000000" y="72.0000000000" xlink:href="#block"/><use x="99.0000000000" y="72.0000000000" xlink:href="#block"/><use x="102.0000000000" y="72.0000000000" xlink:href="#block"/><use x="108.0000000000" y="72.0000000000" xlink:href="#block"/><use x="117.0000000000" y="72.0000000000" xlink:href="#block"/><use x="120.0000000000" y="72.0000000000" xlink:href="#block"/><use x="123.0000000000" y="72.0000000000" xlink:href="#block"/><use x="129.0000000000" y="72.0000000000" xlink:href="#block"/><use x="138.0000000000" y="72.0000000000" xlink:href="#block"/><use x="141.0000000000" y="72.0000000000" xlink:href="#block"/><use x="153.0000000000" y="72.0000000000" xlink:href="#block"/><use x="156.0000000000" y="72.0000000000" xlink:href="#block"/><use x="162.0000000000" y="72.0000000000" xlink:href="#block"/><use x="165.0000000000" y="72.0000000000" xlink:href="#block"/><use x="168.0000000000" y="72.0000000000" xlink:href="#block"/><use x="171.0000000000" y="72.0000000000" xlink:href="#block"/><use x="174.0000000000" y="72.0000000000" xlink:href="#block"/><use x="180.0000000000" y="72.0000000000" xlink:href="#block"/><use x="30.0000000000" y="75.0000000000" xlink:href="#block"/><use x="33.0000000000" y="75.0000000000" xlink:href="#block"/><use x="42.0000000000" y="75.0000000000" xlink:href="#block"/><use x="45.0000000000" y="75.0000000000" xlink:href="#block"/><use x="51.0000000000" y="75.0000000000" xlink:href="#block"/><use x="54.0000000000" y="75.0000000000" xlink:href="#block"/><use x="57.0000000000" y="75.0000000000" xlink:href="#block"/><use x="63.0000000000" y="75.0000000000" xlink:href="#block"/><use x="69.0000000000" y="75.0000000000" xlink:href="#block"/><use x="75.0000000000" y="75.0000000000" xlink:href="#block"/><use x="81.0000000000" y="75.0000000000" xlink:href="#block"/><use x="96.0000000000" y="75.0000000000" xlink:href="#block"/><use x="99.0000000000" y="75.0000000000" xlink:href="#block"/><use x="102.0000000000" y="75.0000000000" xlink:href="#block"/><use x="105.0000000000" y="75.0000000000" xlink:href="#block"/><use x="108.0000000000" y="75.0000000000" xlink:href="#block"/><use x="114.0000000000" y="75.0000000000" xlink:href="#block"/><use x="120.0000000000" y="75.0000000000" xlink:href="#block"/><use x="123.0000000000" y="75.0000000000" xlink:href="#block"/><use x="129.0000000000" y="75.0000000000" xlink:href="#block"/><use x="135.0000000000" y="75.0000000000" xlink:href="#block"/><use x="141.0000000000" y="75.0000000000" xlink:href="#block"/><use x="147.0000000000" y="75.0000000000" xlink:href="#block"/><use x="150.0000000000" y="75.0000000000" xlink:href="#block"/><use x="153.0000000000" y="75.0000000000" xlink:href="#block"/><use x="156.0000000000" y="75.0000000000" xlink:href="#block"/><use x="165.0000000000" y="75.0000000000" xlink:href="#block"/><use x="180.0000000000" y="75.0000000000" xlink:href="#block"/><use x="186.0000000000" y="75.0000000000" xlink:href="#block"/><use x="30.0000000000" y="78.0000000000" xlink:href="#block"/><use x="33.0000000000" y="78.0000000000" xlink:href="#block"/><use x="42.0000000000" y="78.0000000000" xlink:href="#block"/><use x="45.0000000000" y="78.0000000000" xlink:href="#block"/><use x="48.0000000000" y="78.0000000000" xlink:href="#block"/><use x="51.0000000000" y="78.0000000000" xlink:href="#block"/><use x="54.0000000000" y="78.0000000000" xlink:href="#block"/><use x="60.0000000000" y="78.0000000000" xlink:href="#block"/><use x="63.0000000000" y="78.0000000000" xlink:href="#block"/><use x="66.0000000000" y="78.0000000000" xlink:href="#block"/><use x="81.0000000000" y="78.0000000000" xlink:href="#block"/><use x="87.0000000000" y="78.0000000000" xlink:href="#block"/><use x="90.0000000000" y="78.0000000000" xlink:href="#block"/><use x="93.0000000000" y="78.0000000000" xlink:href="#block"/><use x="99.0000000000" y="78.0000000000" xlink:href="#block"/><use x="105.0000000000" y="78.0000000000" xlink:href="#block"/><use x="108.0000000000" y="78.0000000000" xlink:href="#block"/><use x="117.0000000000" y="78.0000000000" xlink:href="#block"/><use x="126.0000000000" y="78.0000000000" xlink:href="#block"/><use x="129.0000000000" y="78.0000000000" xlink:href="#block"/><use x="132.0000000000" y="78.0000000000" xlink:href="#block"/><use x="138.0000000000" y="78.0000000000" xlink:href="#block"/><use x="147.0000000000" y="78.0000000000" xlink:href="#block"/><use x="159.0000000000" y="78.0000000000" xlink:href="#block"/><use x="165.0000000000" y="78.0000000000" xlink:href="#block"/><use x="168.0000000000" y="78.0000000000" xlink:href="#block"/><use x="174.0000000000" y="78.0000000000" xlink:href="#block"/><use x="177.0000000000" y="78.0000000000" xlink:href="#block"/><use x="30.0000000000" y="81.0000000000" xlink:href="#block"/><use x="36.0000000000" y="81.0000000000" xlink:href="#block"/><use x="39.0000000000" y="81.0000000000" xlink:href="#block"/><use x="42.0000000000" y="81.0000000000" xlink:href="#block"/><use x="45.0000000000" y="81.0000000000" xlink:href="#block"/><use x="51.0000000000" y="81.0000000000" xlink:href="#block"/><use x="60.0000000000" y="81.0000000000" xlink:href="#block"/><use x="63.0000000000" y="81.0000000000" xlink:href="#block"/><use x="69.0000000000" y="81.0000000000" xlink:href="#block"/><use x="75.0000000000" y="81.0000000000" xlink:href="#block"/><use x="81.0000000000" y="81.0000000000" xlink:href="#block"/><use x="84.0000000000" y="81.0000000000" xlink:href="#block"/><use x="87.0000000000" y="81.0000000000" xlink:href="#block"/><use x="93.0000000000" y="81.0000000000" xlink:href="#block"/><use x="96.0000000000" y="81.0000000000" xlink:href="#block"/><use x="99.0000000000" y="81.0000000000" xlink:href="#block"/><use x="102.0000000000" y="81.0000000000" xlink:href="#block"/><use x="105.0000000000" y="81.0000000000" xlink:href="#block"/><use x="114.0000000000" y="81.0000000000" xlink:href="#block"/><use x="117.0000000000" y="81.0000000000" xlink:href="#block"/><use x="120.0000000000" y="81.0000000000" xlink:href="#block"/><use x="126.0000000000" y="81.0000000000" xlink:href="#block"/><use x="129.0000000000" y="81.0000000000" xlink:href="#block"/><use x="138.0000000000" y="81.0000000000" xlink:href="#block"/><use x="144.0000000000" y="81.0000000000" xlink:href="#block"/><use x="147.0000000000" y="81.0000000000" xlink:href="#block"/><use x="150.0000000000" y="81.0000000000" xlink:href="#block"/><use x="153.0000000000" y="81.0000000000" xlink:href="#block"/><use x="156.0000000000" y="81.0000000000" xlink:href="#block"/><use x="162.0000000000" y="81.0000000000" xlink:href="#block"/><use x="165.0000000000" y="81.0000000000" xlink:href="#block"/><use x="177.0000000000" y="81.0000000000" xlink:href="#block"/><use x="183.0000000000" y="81.0000000000" xlink:href="#block"/><use x="186.0000000000" y="81.0000000000" xlink:href="#block"/><use x="33.0000000000" y="84.0000000000" xlink:href="#block"/><use x="36.0000000000" y="84.0000000000" xlink:href="#block"/><use x="39.0000000000" y="84.0000000000" xlink:href="#block"/><use x="48.0000000000" y="84.0000000000" xlink:href="#block"/><use x="54.0000000000" y="84.0000000000" xlink:href="#block"/><use x="57.0000000000" y="84.0000000000" xlink:href="#block"/><use x="63.0000000000" y="84.0000000000" xlink:href="#block"/><use x="66.0000000000" y="84.0000000000" xlink:href="#block"/><use x="84.0000000000" y="84.0000000000" xlink:href="#block"/><use x="87.0000000000" y="84.0000000000" xlink:href="#block"/><use x="90.0000000000" y="84.0000000000" xlink:href="#block"/><use x="102.0000000000" y="84.0000000000" xlink:href="#block"/><use x="105.0000000000" y="84.0000000000" xlink:href="#block"/><use x="108.0000000000" y="84.0000000000" xlink:href="#block"/><use x="114.0000000000" y="84.0000000000" xlink:href="#block"/><use x="120.0000000000" y="84.0000000000" xlink:href="#block"/><use x="123.0000000000" y="84.0000000000" xlink:href="#block"/><use x="129.0000000000" y="84.0000000000" xlink:href="#block"/><use x="132.0000000000" y="84.0000000000" xlink:href="#block"/><use x="135.0000000000" y="84.0000000000" xlink:href="#block"/><use x="138.0000000000" y="84.0000000000" xlink:href="#block"/><use x="144.0000000000" y="84.0000000000" xlink:href="#block"/><use x="147.0000000000" y="84.0000000000" xlink:href="#block"/><use x="153.0000000000" y="84.0000000000" xlink:href="#block"/><use x="156.0000000000" y="84.0000000000" xlink:href="#block"/><use x="162.0000000000" y="84.0000000000" xlink:href="#block"/><use x="165.0000000000" y="84.0000000000" xlink:href="#block"/><use x="168.0000000000" y="84.0000000000" xlink:href="#block"/><use x="174.0000000000" y="84.0000000000" xlink:href="#block"/><use x="177.0000000000" y="84.0000000000" xlink:href="#block"/><use x="180.0000000000" y="84.0000000000" xlink:href="#block"/><use x="183.0000000000" y="84.0000000000" xlink:href="#block"/><use x="33.0000000000" y="87.0000000000" xlink:href="#block"/><use x="42.0000000000" y="87.0000000000" xlink:href="#block"/><use x="45.0000000000" y="87.0000000000" xlink:href="#block"/><use x="51.0000000000" y="87.0000000000" xlink:href="#block"/><use x="54.0000000000" y="87.0000000000" xlink:href="#block"/><use x="66.0000000000" y="87.0000000000" xlink:href="#block"/><use x="69.0000000000" y="87.0000000000" xlink:href="#block"/><use x="72.0000000000" y="87.0000000000" xlink:href="#block"/><use x="75.0000000000" y="87.0000000000" xlink:href="#block"/><use x="81.0000000000" y="87.0000000000" xlink:href="#block"/><use x="93.0000000000" y="87.0000000000" xlink:href="#block"/><use x="96.0000000000" y="87.0000000000" xlink:href="#block"/><use x="99.0000000000" y="87.0000000000" xlink:href="#block"/><use x="108.0000000000" y="87.0000000000" xlink:href="#block"/><use x="111.0000000000" y="87.0000000000" xlink:href="#block"/><use x="114.0000000000" y="87.0000000000" xlink:href="#block"/><use x="117.0000000000" y="87.0000000000" xlink:href="#block"/><use x="120.0000000000" y="87.0000000000" xlink:href="#block"/><use x="123.0000000000" y="87.0000000000" xlink:href="#block"/><use x="126.0000000000" y="87.0000000000" xlink:href="#block"/><use x="138.0000000000" y="87.0000000000" xlink:href="#block"/><use x="141.0000000000" y="87.0000000000" xlink:href="#block"/><use x="147.0000000000" y="87.0000000000" xlink:href="#block"/><use x="150.0000000000" y="87.0000000000" xlink:href="#block"/><use x="156.0000000000" y="87.0000000000" xlink:href="#block"/><use x="159.0000000000" y="87.0000000000" xlink:href="#block"/><use x="171.0000000000" y="87.0000000000" xlink:href="#block"/><use x="174.0000000000" y="87.0000000000" xlink:href="#block"/><use x="183.0000000000" y="87.0000000000" xlink:href="#block"/><use x="186.0000000000" y="87.0000000000" xlink:href="#block"/><use x="30.0000000000" y="90.0000000000" xlink:href="#block"/><use x="39.0000000000" y="90.0000000000" xlink:href="#block"/><use x="48.0000000000" y="90.0000000000" xlink:href="#block"/><use x="51.0000000000" y="90.0000000000" xlink:href="#block"/><use x="54.0000000000" y="90.0000000000" xlink:href="#block"/><use x="57.0000000000" y="90.0000000000" xlink:href="#block"/><use x="60.0000000000" y="90.0000000000" xlink:href="#block"/><use x="66.0000000000" y="90.0000000000" xlink:href="#block"/><use x="69.0000000000" y="90.0000000000" xlink:href="#block"/><use x="75.0000000000" y="90.0000000000" xlink:href="#block"/><use x="84.0000000000" y="90.0000000000" xlink:href="#block"/><use x="90.0000000000" y="90.0000000000" xlink:href="#block"/><use x="93.0000000000" y="90.0000000000" xlink:href="#block"/><use x="99.0000000000" y="90.0000000000" xlink:href="#block"/><use x="102.0000000000" y="90.0000000000" xlink:href="#block"/><use x="105.0000000000" y="90.0000000000" xlink:href="#block"/><use x="117.0000000000" y="90.0000000000" xlink:href="#block"/><use x="123.0000000000" y="90.0000000000" xlink:href="#block"/><use x="126.0000000000" y="90.0000000000" xlink:href="#block"/><use x="132.0000000000" y="90.0000000000" xlink:href="#block"/><use x="135.0000000000" y="90.0000000000" xlink:href="#block"/><use x="141.0000000000" y="90.0000000000" xlink:href="#block"/><use x="144.0000000000" y="90.0000000000" xlink:href="#block"/><use x="147.0000000000" y="90.0000000000" xlink:href="#block"/><use x="153.0000000000" y="90.0000000000" xlink:href="#block"/><use x="162.0000000000" y="90.0000000000" xlink:href="#block"/><use x="180.0000000000" y="90.0000000000" xlink:href="#block"/><use x="183.0000000000" y="90.0000000000" xlink:href="#block"/><use x="33.0000000000" y="93.0000000000" xlink:href="#block"/><use x="36.0000000000" y="93.0000000000" xlink:href="#block"/><use x="42.0000000000" y="93.0000000000" xlink:href="#block"/><use x="45.0000000000" y="93.0000000000" xlink:href="#block"/><use x="51.0000000000" y="93.0000000000" xlink:href="#block"/><use x="54.0000000000" y="93.0000000000" xlink:href="#block"/><use x="60.0000000000" y="93.0000000000" xlink:href="#block"/><use x="66.0000000000" y="93.0000000000" xlink:href="#block"/><use x="75.0000000000" y="93.0000000000" xlink:href="#block"/><use x="99.0000000000" y="93.0000000000" xlink:href="#block"/><use x="102.0000000000" y="93.0000000000" xlink:href="#block"/><use x="105.0000000000" y="93.0000000000" xlink:href="#block"/><use x="111.0000000000" y="93.0000000000" xlink:href="#block"/><use x="114.0000000000" y="93.0000000000" xlink:href="#block"/><use x="117.0000000000" y="93.0000000000" xlink:href="#block"/><use x="120.0000000000" y="93.0000000000" xlink:href="#block"/><use x="126.0000000000" y="93.0000000000" xlink:href="#block"/><use x="141.0000000000" y="93.0000000000" xlink:href="#block"/><use x="147.0000000000" y="93.0000000000" xlink:href="#block"/><use x="150.0000000000" y="93.0000000000" xlink:href="#block"/><use x="153.0000000000" y="93.0000000000" xlink:href="#block"/><use x="156.0000000000" y="93.0000000000" xlink:href="#block"/><use x="162.0000000000" y="93.0000000000" xlink:href="#block"/><use x="168.0000000000" y="93.0000000000" xlink:href="#block"/><use x="177.0000000000" y="93.0000000000" xlink:href="#block"/><use x="183.0000000000" y="93.0000000000" xlink:href="#block"/><use x="186.0000000000" y="93.0000000000" xlink:href="#block"/><use x="36.0000000000" y="96.0000000000" xlink:href="#block"/><use x="42.0000000000" y="96.0000000000" xlink:href="#block"/><use x="48.0000000000" y="96.0000000000" xlink:href="#block"/><use x="51.0000000000" y="96.0000000000" xlink:href="#block"/><use x="54.0000000000" y="96.0000000000" xlink:href="#block"/><use x="57.0000000000" y="96.0000000000" xlink:href="#block"/><use x="60.0000000000" y="96.0000000000" xlink:href="#block"/><use x="66.0000000000" y="96.0000000000" xlink:href="#block"/><use x="69.0000000000" y="96.0000000000" xlink:href="#block"/><use x="72.0000000000" y="96.0000000000" xlink:href="#block"/><use x="75.0000000000" y="96.0000000000" xlink:href="#block"/><use x="78.0000000000" y="96.0000000000" xlink:href="#block"/><use x="84.0000000000" y="96.0000000000" xlink:href="#block"/><use x="90.0000000000" y="96.0000000000" xlink:href="#block"/><use x="93.0000000000" y="96.0000000000" xlink:href="#block"/><use x="102.0000000000" y="96.0000000000" xlink:href="#block"/><use x="105.0000000000" y="96.0000000000" xlink:href="#block"/><use x="108.0000000000" y="96.0000000000" xlink:href="#block"/><use x="114.0000000000" y="96.0000000000" xlink:href="#block"/><use x="120.0000000000" y="96.0000000000" xlink:href="#block"/><use x="129.0000000000" y="96.0000000000" xlink:href="#block"/><use x="135.0000000000" y="96.0000000000" xlink:href="#block"/><use x="138.0000000000" y="96.0000000000" xlink:href="#block"/><use x="147.0000000000" y="96.0000000000" xlink:href="#block"/><use x="159.0000000000" y="96.0000000000" xlink:href="#block"/><use x="162.0000000000" y="96.0000000000" xlink:href="#block"/><use x="168.0000000000" y="96.0000000000" xlink:href="#block"/><use x="171.0000000000" y="96.0000000000" xlink:href="#block"/><use x="174.0000000000" y="96.0000000000" xlink:href="#block"/><use x="180.0000000000" y="96.0000000000" xlink:href="#block"/><use x="183.0000000000" y="96.0000000000" xlink:href="#block"/><use x="30.0000000000" y="99.0000000000" xlink:href="#block"/><use x="36.0000000000" y="99.0000000000" xlink:href="#block"/><use x="45.0000000000" y="99.0000000000" xlink:href="#block"/><use x="54.0000000000" y="99.0000000000" xlink:href="#block"/><use x="57.0000000000" y="99.0000000000" xlink:href="#block"/><use x="63.0000000000" y="99.0000000000" xlink:href="#block"/><use x="66.0000000000" y="99.0000000000" xlink:href="#block"/><use x="72.0000000000" y="99.0000000000" xlink:href="#block"/><use x="75.0000000000" y="99.0000000000" xlink:href="#block"/><use x="84.0000000000" y="99.0000000000" xlink:href="#block"/><use x="96.0000000000" y="99.0000000000" xlink:href="#block"/><use x="102.0000000000" y="99.0000000000" xlink:href="#block"/><use x="105.0000000000" y="99.0000000000" xlink:href="#block"/><use x="111.0000000000" y="99.0000000000" xlink:href="#block"/><use x="114.0000000000" y="99.0000000000" xlink:href="#block"/><use x="120.0000000000" y="99.0000000000" xlink:href="#block"/><use x="123.0000000000" y="99.0000000000" xlink:href="#block"/><use x="126.0000000000" y="99.0000000000" xlink:href="#block"/><use x="129.0000000000" y="99.0000000000" xlink:href="#block"/><use x="135.0000000000" y="99.0000000000" xlink:href="#block"/><use x="147.0000000000" y="99.0000000000" xlink:href="#block"/><use x="150.0000000000" y="99.0000000000" xlink:href="#block"/><use x="153.0000000000" y="99.0000000000" xlink:href="#block"/><use x="156.0000000000" y="99.0000000000" xlink:href="#block"/><use x="165.0000000000" y="99.0000000000" xlink:href="#block"/><use x="174.0000000000" y="99.0000000000" xlink:href="#block"/><use x="183.0000000000" y="99.0000000000" xlink:href="#block"/><use x="186.0000000000" y="99.0000000000" xlink:href="#block"/><use x="30.0000000000" y="102.0000000000" xlink:href="#block"/><use x="33.0000000000" y="102.0000000000" xlink:href="#block"/><use x="36.0000000000" y="102.0000000000" xlink:href="#block"/><use x="39.0000000000" y="102.0000000000" xlink:href="#block"/><use x="42.0000000000" y="102.0000000000" xlink:href="#block"/><use x="45.0000000000" y="102.0000000000" xlink:href="#block"/><use x="48.0000000000" y="102.0000000000" xlink:href="#block"/><use x="51.0000000000" y="102.0000000000" xlink:href="#block"/><use x="54.0000000000" y="102.0000000000" xlink:href="#block"/><use x="57.0000000000" y="102.0000000000" xlink:href="#block"/><use x="63.0000000000" y="102.0000000000" xlink:href="#block"/><use x="66.0000000000" y="102.0000000000" xlink:href="#block"/><use x="69.0000000000" y="102.0000000000" xlink:href="#block"/><use x="72.0000000000" y="102.0000000000" xlink:href="#block"/><use x="75.0000000000" y="102.0000000000" xlink:href="#block"/><use x="84.0000000000" y="102.0000000000" xlink:href="#block"/><use x="87.0000000000" y="102.0000000000" xlink:href="#block"/><use x="90.0000000000" y="102.0000000000" xlink:href="#block"/><use x="93.0000000000" y="102.0000000000" xlink:href="#block"/><use x="99.0000000000" y="102.0000000000" xlink:href="#block"/><use x="102.0000000000" y="102.0000000000" xlink:href="#block"/><use x="105.0000000000" y="102.0000000000" xlink:href="#block"/><use x="108.0000000000" y="102.0000000000" xlink:href="#block"/><use x="111.0000000000" y="102.0000000000" xlink:href="#block"/><use x="114.0000000000" y="102.0000000000" xlink:href="#block"/><use x="117.0000000000" y="102.0000000000" xlink:href="#block"/><use x="123.0000000000" y="102.0000000000" xlink:href="#block"/><use x="126.0000000000" y="102.0000000000" xlink:href="#block"/><use x="129.0000000000" y="102.0000000000" xlink:href="#block"/><use x="132.0000000000" y="102.0000000000" xlink:href="#block"/><use x="138.0000000000" y="102.0000000000" xlink:href="#block"/><use x="141.0000000000" y="102.0000000000" xlink:href="#block"/><use x="144.0000000000" y="102.0000000000" xlink:href="#block"/><use x="147.0000000000" y="102.0000000000" xlink:href="#block"/><use x="153.0000000000" y="102.0000000000" xlink:href="#block"/><use x="162.0000000000" y="102.0000000000" xlink:href="#block"/><use x="165.0000000000" y="102.0000000000" xlink:href="#block"/><use x="168.0000000000" y="102.0000000000" xlink:href="#block"/><use x="171.0000000000" y="102.0000000000" xlink:href="#block"/><use x="174.0000000000" y="102.0000000000" xlink:href="#block"/><use x="177.0000000000" y="102.0000000000" xlink:href="#block"/><use x="180.0000000000" y="102.0000000000" xlink:href="#block"/><use x="183.0000000000" y="102.0000000000" xlink:href="#block"/><use x="33.0000000000" y="105.0000000000" xlink:href="#block"/><use x="42.0000000000" y="105.0000000000" xlink:href="#block"/><use x="54.0000000000" y="105.0000000000" xlink:href="#block"/><use x="57.0000000000" y="105.0000000000" xlink:href="#block"/><use x="63.0000000000" y="105.0000000000" xlink:href="#block"/><use x="78.0000000000" y="105.0000000000" xlink:href="#block"/><use x="84.0000000000" y="105.0000000000" xlink:href="#block"/><use x="93.0000000000" y="105.0000000000" xlink:href="#block"/><use x="99.0000000000" y="105.0000000000" xlink:href="#block"/><use x="102.0000000000" y="105.0000000000" xlink:href="#block"/><use x="114.0000000000" y="105.0000000000" xlink:href="#block"/><use x="117.0000000000" y="105.0000000000" xlink:href="#block"/><use x="120.0000000000" y="105.0000000000" xlink:href="#block"/><use x="123.0000000000" y="105.0000000000" xlink:href="#block"/><use x="132.0000000000" y="105.0000000000" xlink:href="#block"/><use x="135.0000000000" y="105.0000000000" xlink:href="#block"/><use x="150.0000000000" y="105.0000000000" xlink:href="#block"/><use x="153.0000000000" y="105.0000000000" xlink:href="#block"/><use x="156.0000000000" y="105.0000000000" xlink:href="#block"/><use x="162.0000000000" y="105.0000000000" xlink:href="#block"/><use x="174.0000000000" y="105.0000000000" xlink:href="#block"/><use x="177.0000000000" y="105.0000000000" xlink:href="#block"/><use x="186.0000000000" y="105.0000000000" xlink:href="#block"/><use x="36.0000000000" y="108.0000000000" xlink:href="#block"/><use x="42.0000000000" y="108.0000000000" xlink:href="#block"/><use x="48.0000000000" y="108.0000000000" xlink:href="#block"/><use x="54.0000000000" y="108.0000000000" xlink:href="#block"/><use x="57.0000000000" y="108.0000000000" xlink:href="#block"/><use x="60.0000000000" y="108.0000000000" xlink:href="#block"/><use x="75.0000000000" y="108.0000000000" xlink:href="#block"/><use x="78.0000000000" y="108.0000000000" xlink:href="#block"/><use x="84.0000000000" y="108.0000000000" xlink:href="#block"/><use x="99.0000000000" y="108.0000000000" xlink:href="#block"/><use x="102.0000000000" y="108.0000000000" xlink:href="#block"/><use x="108.0000000000" y="108.0000000000" xlink:href="#block"/><use x="114.0000000000" y="108.0000000000" xlink:href="#block"/><use x="117.0000000000" y="108.0000000000" xlink:href="#block"/><use x="120.0000000000" y="108.0000000000" xlink:href="#block"/><use x="123.0000000000" y="108.0000000000" xlink:href="#block"/><use x="129.0000000000" y="108.0000000000" xlink:href="#block"/><use x="138.0000000000" y="108.0000000000" xlink:href="#block"/><use x="144.0000000000" y="108.0000000000" xlink:href="#block"/><use x="156.0000000000" y="108.0000000000" xlink:href="#block"/><use x="159.0000000000" y="108.0000000000" xlink:href="#block"/><use x="162.0000000000" y="108.0000000000" xlink:href="#block"/><use x="168.0000000000" y="108.0000000000" xlink:href="#block"/><use x="174.0000000000" y="108.0000000000" xlink:href="#block"/><use x="180.0000000000" y="108.0000000000" xlink:href="#block"/><use x="183.0000000000" y="108.0000000000" xlink:href="#block"/><use x="186.0000000000" y="108.0000000000" xlink:href="#block"/><use x="39.0000000000" y="111.0000000000" xlink:href="#block"/><use x="42.0000000000" y="111.0000000000" xlink:href="#block"/><use x="54.0000000000" y="111.0000000000" xlink:href="#block"/><use x="63.0000000000" y="111.0000000000" xlink:href="#block"/><use x="66.0000000000" y="111.0000000000" xlink:href="#block"/><use x="69.0000000000" y="111.0000000000" xlink:href="#block"/><use x="72.0000000000" y="111.0000000000" xlink:href="#block"/><use x="78.0000000000" y="111.0000000000" xlink:href="#block"/><use x="81.0000000000" y="111.0000000000" xlink:href="#block"/><use x="87.0000000000" y="111.0000000000" xlink:href="#block"/><use x="96.0000000000" y="111.0000000000" xlink:href="#block"/><use x="102.0000000000" y="111.0000000000" xlink:href="#block"/><use x="114.0000000000" y="111.0000000000" xlink:href="#block"/><use x="117.0000000000" y="111.0000000000" xlink:href="#block"/><use x="120.0000000000" y="111.0000000000" xlink:href="#block"/><use x="141.0000000000" y="111.0000000000" xlink:href="#block"/><use x="147.0000000000" y="111.0000000000" xlink:href="#block"/><use x="156.0000000000" y="111.0000000000" xlink:href="#block"/><use x="162.0000000000" y="111.0000000000" xlink:href="#block"/><use x="174.0000000000" y="111.0000000000" xlink:href="#block"/><use x="180.0000000000" y="111.0000000000" xlink:href="#block"/><use x="186.0000000000" y="111.0000000000" xlink:href="#block"/><use x="30.0000000000" y="114.0000000000" xlink:href="#block"/><use x="33.0000000000" y="114.0000000000" xlink:href="#block"/><use x="42.0000000000" y="114.0000000000" xlink:href="#block"/><use x="45.0000000000" y="114.0000000000" xlink:href="#block"/><use x="48.0000000000" y="114.0000000000" xlink:href="#block"/><use x="51.0000000000" y="114.0000000000" xlink:href="#block"/><use x="54.0000000000" y="114.0000000000" xlink:href="#block"/><use x="66.0000000000" y="114.0000000000" xlink:href="#block"/><use x="72.0000000000" y="114.0000000000" xlink:href="#block"/><use x="78.0000000000" y="114.0000000000" xlink:href="#block"/><use x="81.0000000000" y="114.0000000000" xlink:href="#block"/><use x="84.0000000000" y="114.0000000000" xlink:href="#block"/><use x="87.0000000000" y="114.0000000000" xlink:href="#block"/><use x="93.0000000000" y="114.0000000000" xlink:href="#block"/><use x="99.0000000000" y="114.0000000000" xlink:href="#block"/><use x="102.0000000000" y="114.0000000000" xlink:href="#block"/><use x="105.0000000000" y="114.0000000000" xlink:href="#block"/><use x="108.0000000000" y="114.0000000000" xlink:href="#block"/><use x="111.0000000000" y="114.0000000000" xlink:href="#block"/><use x="114.0000000000" y="114.0000000000" xlink:href="#block"/><use x="123.0000000000" y="114.0000000000" xlink:href="#block"/><use x="126.0000000000" y="114.0000000000" xlink:href="#block"/><use x="132.0000000000" y="114.0000000000" xlink:href="#block"/><use x="138.0000000000" y="114.0000000000" xlink:href="#block"/><use x="144.0000000000" y="114.0000000000" xlink:href="#block"/><use x="150.0000000000" y="114.0000000000" xlink:href="#block"/><use x="153.0000000000" y="114.0000000000" xlink:href="#block"/><use x="159.0000000000" y="114.0000000000" xlink:href="#block"/><use x="162.0000000000" y="114.0000000000" xlink:href="#block"/><use x="165.0000000000" y="114.0000000000" xlink:href="#block"/><use x="168.0000000000" y="114.0000000000" xlink:href="#block"/><use x="171.0000000000" y="114.0000000000" xlink:href="#block"/><use x="174.0000000000" y="114.0000000000" xlink:href="#block"/><use x="177.0000000000" y="114.0000000000" xlink:href="#block"/><use x="30.0000000000" y="117.0000000000" xlink:href="#block"/><use x="33.0000000000" y="117.0000000000" xlink:href="#block"/><use x="36.0000000000" y="117.0000000000" xlink:href="#block"/><use x="51.0000000000" y="117.0000000000" xlink:href="#block"/><use x="72.0000000000" y="117.0000000000" xlink:href="#block"/><use x="75.0000000000" y="117.0000000000" xlink:href="#block"/><use x="81.0000000000" y="117.0000000000" xlink:href="#block"/><use x="84.0000000000" y="117.0000000000" xlink:href="#block"/><use x="87.0000000000" y="117.0000000000" xlink:href="#block"/><use x="96.0000000000" y="117.0000000000" xlink:href="#block"/><use x="102.0000000000" y="117.0000000000" xlink:href="#block"/><use x="108.0000000000" y="117.0000000000" xlink:href="#block"/><use x="123.0000000000" y="117.0000000000" xlink:href="#block"/><use x="135.0000000000" y="117.0000000000" xlink:href="#block"/><use x="144.0000000000" y="117.0000000000" xlink:href="#block"/><use x="147.0000000000" y="117.0000000000" xlink:href="#block"/><use x="150.0000000000" y="117.0000000000" xlink:href="#block"/><use x="159.0000000000" y="117.0000000000" xlink:href="#block"/><use x="162.0000000000" y="117.0000000000" xlink:href="#block"/><use x="168.0000000000" y="117.0000000000" xlink:href="#block"/><use x="171.0000000000" y="117.0000000000" xlink:href="#block"/><use x="174.0000000000" y="117.0000000000" xlink:href="#block"/><use x="177.0000000000" y="117.0000000000" xlink:href="#block"/><use x="183.0000000000" y="117.0000000000" xlink:href="#block"/><use x="42.0000000000" y="120.0000000000" xlink:href="#block"/><use x="45.0000000000" y="120.0000000000" xlink:href="#block"/><use x="48.0000000000" y="120.0000000000" xlink:href="#block"/><use x="51.0000000000" y="120.0000000000" xlink:href="#block"/><use x="57.0000000000" y="120.0000000000" xlink:href="#block"/><use x="60.0000000000" y="120.0000000000" xlink:href="#block"/><use x="78.0000000000" y="120.0000000000" xlink:href="#block"/><use x="81.0000000000" y="120.0000000000" xlink:href="#block"/><use x="90.0000000000" y="120.0000000000" xlink:href="#block"/><use x="93.0000000000" y="120.0000000000" xlink:href="#block"/><use x="99.0000000000" y="120.0000000000" xlink:href="#block"/><use x="114.0000000000" y="120.0000000000" xlink:href="#block"/><use x="123.0000000000" y="120.0000000000" xlink:href="#block"/><use x="129.0000000000" y="120.0000000000" xlink:href="#block"/><use x="135.0000000000" y="120.0000000000" xlink:href="#block"/><use x="138.0000000000" y="120.0000000000" xlink:href="#block"/><use x="144.0000000000" y="120.0000000000" xlink:href="#block"/><use x="147.0000000000" y="120.0000000000" xlink:href="#block"/><use x="156.0000000000" y="120.0000000000" xlink:href="#block"/><use x="180.0000000000" y="120.0000000000" xlink:href="#block"/><use x="186.0000000000" y="120.0000000000" xlink:href="#block"/><use x="33.0000000000" y="123.0000000000" xlink:href="#block"/><use x="39.0000000000" y="123.0000000000" xlink:href="#block"/><use x="51.0000000000" y="123.0000000000" xlink:href="#block"/><use x="54.0000000000" y="123.0000000000" xlink:href="#block"/><use x="57.0000000000" y="123.0000000000" xlink:href="#block"/><use x="60.0000000000" y="123.0000000000" xlink:href="#block"/><use x="63.0000000000" y="123.0000000000" xlink:href="#block"/><use x="66.0000000000" y="123.0000000000" xlink:href="#block"/><use x="69.0000000000" y="123.0000000000" xlink:href="#block"/><use x="75.0000000000" y="123.0000000000" xlink:href="#block"/><use x="87.0000000000" y="123.0000000000" xlink:href="#block"/><use x="96.0000000000" y="123.0000000000" xlink:href="#block"/><use x="99.0000000000" y="123.0000000000" xlink:href="#block"/><use x="108.0000000000" y="123.0000000000" xlink:href="#block"/><use x="111.0000000000" y="123.0000000000" xlink:href="#block"/><use x="120.0000000000" y="123.0000000000" xlink:href="#block"/><use x="129.0000000000" y="123.0000000000" xlink:href="#block"/><use x="153.0000000000" y="123.0000000000" xlink:href="#block"/><use x="156.0000000000" y="123.0000000000" xlink:href="#block"/><use x="159.0000000000" y="123.0000000000" xlink:href="#block"/><use x="171.0000000000" y="123.0000000000" xlink:href="#block"/><use x="174.0000000000" y="123.0000000000" xlink:href="#block"/><use x="180.0000000000" y="123.0000000000" xlink:href="#block"/><use x="183.0000000000" y="123.0000000000" xlink:href="#block"/><use x="186.0000000000" y="123.0000000000" xlink:href="#block"/><use x="30.0000000000" y="126.0000000000" xlink:href="#block"/><use x="48.0000000000" y="126.0000000000" xlink:href="#block"/><use x="57.0000000000" y="126.0000000000" xlink:href="#block"/><use x="63.0000000000" y="126.0000000000" xlink:href="#block"/><use x="81.0000000000" y="126.0000000000" xlink:href="#block"/><use x="87.0000000000" y="126.0000000000" xlink:href="#block"/><use x="90.0000000000" y="126.0000000000" xlink:href="#block"/><use x="93.0000000000" y="126.0000000000" xlink:href="#block"/><use x="102.0000000000" y="126.0000000000" xlink:href="#block"/><use x="111.0000000000" y="126.0000000000" xlink:href="#block"/><use x="114.0000000000" y="126.0000000000" xlink:href="#block"/><use x="123.0000000000" y="126.0000000000" xlink:href="#block"/><use x="129.0000000000" y="126.0000000000" xlink:href="#block"/><use x="132.0000000000" y="126.0000000000" xlink:href="#block"/><use x="135.0000000000" y="126.0000000000" xlink:href="#block"/><use x="138.0000000000" y="126.0000000000" xlink:href="#block"/><use x="141.0000000000" y="126.0000000000" xlink:href="#block"/><use x="144.0000000000" y="126.0000000000" xlink:href="#block"/><use x="153.0000000000" y="126.0000000000" xlink:href="#block"/><use x="156.0000000000" y="126.0000000000" xlink:href="#block"/><use x="174.0000000000" y="126.0000000000" xlink:href="#block"/><use x="177.0000000000" y="126.0000000000" xlink:href="#block"/><use x="180.0000000000" y="126.0000000000" xlink:href="#block"/><use x="183.0000000000" y="126.0000000000" xlink:href="#block"/><use x="30.0000000000" y="129.0000000000" xlink:href="#block"/><use x="36.0000000000" y="129.0000000000" xlink:href="#block"/><use x="57.0000000000" y="129.0000000000" xlink:href="#block"/><use x="60.0000000000" y="129.0000000000" xlink:href="#block"/><use x="63.0000000000" y="129.0000000000" xlink:href="#block"/><use x="66.0000000000" y="129.0000000000" xlink:href="#block"/><use x="69.0000000000" y="129.0000000000" xlink:href="#block"/><use x="75.0000000000" y="129.0000000000" xlink:href="#block"/><use x="84.0000000000" y="129.0000000000" xlink:href="#block"/><use x="93.0000000000" y="129.0000000000" xlink:href="#block"/><use x="96.0000000000" y="129.0000000000" xlink:href="#block"/><use x="99.0000000000" y="129.0000000000" xlink:href="#block"/><use x="102.0000000000" y="129.0000000000" xlink:href="#block"/><use x="108.0000000000" y="129.0000000000" xlink:href="#block"/><use x="117.0000000000" y="129.0000000000" xlink:href="#block"/><use x="123.0000000000" y="129.0000000000" xlink:href="#block"/><use x="126.0000000000" y="129.0000000000" xlink:href="#block"/><use x="129.0000000000" y="129.0000000000" xlink:href="#block"/><use x="138.0000000000" y="129.0000000000" xlink:href="#block"/><use x="147.0000000000" y="129.0000000000" xlink:href="#block"/><use x="150.0000000000" y="129.0000000000" xlink:href="#block"/><use x="153.0000000000" y="129.0000000000" xlink:href="#block"/><use x="159.0000000000" y="129.0000000000" xlink:href="#block"/><use x="165.0000000000" y="129.0000000000" xlink:href="#block"/><use x="168.0000000000" y="129.0000000000" xlink:href="#block"/><use x="171.0000000000" y="129.0000000000" xlink:href="#block"/><use x="174.0000000000" y="129.0000000000" xlink:href="#block"/><use x="177.0000000000" y="129.0000000000" xlink:href="#block"/><use x="30.0000000000" y="132.0000000000" xlink:href="#block"/><use x="42.0000000000" y="132.0000000000" xlink:href="#block"/><use x="45.0000000000" y="132.0000000000" xlink:href="#block"/><use x="48.0000000000" y="132.0000000000" xlink:href="#block"/><use x="63.0000000000" y="132.0000000000" xlink:href="#block"/><use x="66.0000000000" y="132.0000000000" xlink:href="#block"/><use x="84.0000000000" y="132.0000000000" xlink:href="#block"/><use x="87.0000000000" y="132.0000000000" xlink:href="#block"/><use x="90.0000000000" y="132.0000000000" xlink:href="#block"/><use x="102.0000000000" y="132.0000000000" xlink:href="#block"/><use x="105.0000000000" y="132.0000000000" xlink:href="#block"/><use x="120.0000000000" y="132.0000000000" xlink:href="#block"/><use x="123.0000000000" y="132.0000000000" xlink:href="#block"/><use x="129.0000000000" y="132.0000000000" xlink:href="#block"/><use x="132.0000000000" y="132.0000000000" xlink:href="#block"/><use x="135.0000000000" y="132.0000000000" xlink:href="#block"/><use x="138.0000000000" y="132.0000000000" xlink:href="#block"/><use x="153.0000000000" y="132.0000000000" xlink:href="#block"/><use x="165.0000000000" y="132.0000000000" xlink:href="#block"/><use x="171.0000000000" y="132.0000000000" xlink:href="#block"/><use x="180.0000000000" y="132.0000000000" xlink:href="#block"/><use x="30.0000000000" y="135.0000000000" xlink:href="#block"/><use x="33.0000000000" y="135.0000000000" xlink:href="#block"/><use x="36.0000000000" y="135.0000000000" xlink:href="#block"/><use x="39.0000000000" y="135.0000000000" xlink:href="#block"/><use x="51.0000000000" y="135.0000000000" xlink:href="#block"/><use x="54.0000000000" y="135.0000000000" xlink:href="#block"/><use x="63.0000000000" y="135.0000000000" xlink:href="#block"/><use x="69.0000000000" y="135.0000000000" xlink:href="#block"/><use x="72.0000000000" y="135.0000000000" xlink:href="#block"/><use x="75.0000000000" y="135.0000000000" xlink:href="#block"/><use x="93.0000000000" y="135.0000000000" xlink:href="#block"/><use x="96.0000000000" y="135.0000000000" xlink:href="#block"/><use x="99.0000000000" y="135.0000000000" xlink:href="#block"/><use x="102.0000000000" y="135.0000000000" xlink:href="#block"/><use x="108.0000000000" y="135.0000000000" xlink:href="#block"/><use x="111.0000000000" y="135.0000000000" xlink:href="#block"/><use x="117.0000000000" y="135.0000000000" xlink:href="#block"/><use x="120.0000000000" y="135.0000000000" xlink:href="#block"/><use x="123.0000000000" y="135.0000000000" xlink:href="#block"/><use x="126.0000000000" y="135.0000000000" xlink:href="#block"/><use x="135.0000000000" y="135.0000000000" xlink:href="#block"/><use x="138.0000000000" y="135.0000000000" xlink:href="#block"/><use x="141.0000000000" y="135.0000000000" xlink:href="#block"/><use x="147.0000000000" y="135.0000000000" xlink:href="#block"/><use x="150.0000000000" y="135.0000000000" xlink:href="#block"/><use x="153.0000000000" y="135.0000000000" xlink:href="#block"/><use x="156.0000000000" y="135.0000000000" xlink:href="#block"/><use x="159.0000000000" y="135.0000000000" xlink:href="#block"/><use x="168.0000000000" y="135.0000000000" xlink:href="#block"/><use x="171.0000000000" y="135.0000000000" xlink:href="#block"/><use x="174.0000000000" y="135.0000000000" xlink:href="#block"/><use x="177.0000000000" y="135.0000000000" xlink:href="#block"/><use x="45.0000000000" y="138.0000000000" xlink:href="#block"/><use x="48.0000000000" y="138.0000000000" xlink:href="#block"/><use x="51.0000000000" y="138.0000000000" xlink:href="#block"/><use x="60.0000000000" y="138.0000000000" xlink:href="#block"/><use x="69.0000000000" y="138.0000000000" xlink:href="#block"/><use x="75.0000000000" y="138.0000000000" xlink:href="#block"/><use x="81.0000000000" y="138.0000000000" xlink:href="#block"/><use x="87.0000000000" y="138.0000000000" xlink:href="#block"/><use x="102.0000000000" y="138.0000000000" xlink:href="#block"/><use x="105.0000000000" y="138.0000000000" xlink:href="#block"/><use x="111.0000000000" y="138.0000000000" xlink:href="#block"/><use x="114.0000000000" y="138.0000000000" xlink:href="#block"/><use x="123.0000000000" y="138.0000000000" xlink:href="#block"/><use x="126.0000000000" y="138.0000000000" xlink:href="#block"/><use x="132.0000000000" y="138.0000000000" xlink:href="#block"/><use x="135.0000000000" y="138.0000000000" xlink:href="#block"/><use x="138.0000000000" y="138.0000000000" xlink:href="#block"/><use x="144.0000000000" y="138.0000000000" xlink:href="#block"/><use x="147.0000000000" y="138.0000000000" xlink:href="#block"/><use x="156.0000000000" y="138.0000000000" xlink:href="#block"/><use x="165.0000000000" y="138.0000000000" xlink:href="#block"/><use x="171.0000000000" y="138.0000000000" xlink:href="#block"/><use x="174.0000000000" y="138.0000000000" xlink:href="#block"/><use x="180.0000000000" y="138.0000000000" xlink:href="#block"/><use x="186.0000000000" y="138.0000000000" xlink:href="#block"/><use x="33.0000000000" y="141.0000000000" xlink:href="#block"/><use x="45.0000000000" y="141.0000000000" xlink:href="#block"/><use x="51.0000000000" y="141.0000000000" xlink:href="#block"/><use x="54.0000000000" y="141.0000000000" xlink:href="#block"/><use x="60.0000000000" y="141.0000000000" xlink:href="#block"/><use x="63.0000000000" y="141.0000000000" xlink:href="#block"/><use x="66.0000000000" y="141.0000000000" xlink:href="#block"/><use x="69.0000000000" y="141.0000000000" xlink:href="#block"/><use x="75.0000000000" y="141.0000000000" xlink:href="#block"/><use x="81.0000000000" y="141.0000000000" xlink:href="#block"/><use x="84.0000000000" y="141.0000000000" xlink:href="#block"/><use x="87.0000000000" y="141.0000000000" xlink:href="#block"/><use x="90.0000000000" y="141.0000000000" xlink:href="#block"/><use x="99.0000000000" y="141.0000000000" xlink:href="#block"/><use x="105.0000000000" y="141.0000000000" xlink:href="#block"/><use x="120.0000000000" y="141.0000000000" xlink:href="#block"/><use x="126.0000000000" y="141.0000000000" xlink:href="#block"/><use x="129.0000000000" y="141.0000000000" xlink:href="#block"/><use x="135.0000000000" y="141.0000000000" xlink:href="#block"/><use x="147.0000000000" y="141.0000000000" xlink:href="#block"/><use x="150.0000000000" y="141.0000000000" xlink:href="#block"/><use x="156.0000000000" y="141.0000000000" xlink:href="#block"/><use x="159.0000000000" y="141.0000000000" xlink:href="#block"/><use x="168.0000000000" y="141.0000000000" xlink:href="#block"/><use x="177.0000000000" y="141.0000000000" xlink:href="#block"/><use x="183.0000000000" y="141.0000000000" xlink:href="#block"/><use x="186.0000000000" y="141.0000000000" xlink:href="#block"/><use x="30.0000000000" y="144.0000000000" xlink:href="#block"/><use x="39.0000000000" y="144.0000000000" xlink:href="#block"/><use x="42.0000000000" y="144.0000000000" xlink:href="#block"/><use x="45.0000000000" y="144.0000000000" xlink:href="#block"/><use x="48.0000000000" y="144.0000000000" xlink:href="#block"/><use x="51.0000000000" y="144.0000000000" xlink:href="#block"/><use x="54.0000000000" y="144.0000000000" xlink:href="#block"/><use x="69.0000000000" y="144.0000000000" xlink:href="#block"/><use x="72.0000000000" y="144.0000000000" xlink:href="#block"/><use x="78.0000000000" y="144.0000000000" xlink:href="#block"/><use x="84.0000000000" y="144.0000000000" xlink:href="#block"/><use x="90.0000000000" y="144.0000000000" xlink:href="#block"/><use x="93.0000000000" y="144.0000000000" xlink:href="#block"/><use x="102.0000000000" y="144.0000000000" xlink:href="#block"/><use x="111.0000000000" y="144.0000000000" xlink:href="#block"/><use x="114.0000000000" y="144.0000000000" xlink:href="#block"/><use x="117.0000000000" y="144.0000000000" xlink:href="#block"/><use x="120.0000000000" y="144.0000000000" xlink:href="#block"/><use x="129.0000000000" y="144.0000000000" xlink:href="#block"/><use x="135.0000000000" y="144.0000000000" xlink:href="#block"/><use x="138.0000000000" y="144.0000000000" xlink:href="#block"/><use x="141.0000000000" y="144.0000000000" xlink:href="#block"/><use x="147.0000000000" y="144.0000000000" xlink:href="#block"/><use x="153.0000000000" y="144.0000000000" xlink:href="#block"/><use x="162.0000000000" y="144.0000000000" xlink:href="#block"/><use x="165.0000000000" y="144.0000000000" xlink:href="#block"/><use x="180.0000000000" y="144.0000000000" xlink:href="#block"/><use x="183.0000000000" y="144.0000000000" xlink:href="#block"/><use x="30.0000000000" y="147.0000000000" xlink:href="#block"/><use x="33.0000000000" y="147.0000000000" xlink:href="#block"/><use x="36.0000000000" y="147.0000000000" xlink:href="#block"/><use x="51.0000000000" y="147.0000000000" xlink:href="#block"/><use x="54.0000000000" y="147.0000000000" xlink:href="#block"/><use x="57.0000000000" y="147.0000000000" xlink:href="#block"/><use x="66.0000000000" y="147.0000000000" xlink:href="#block"/><use x="72.0000000000" y="147.0000000000" xlink:href="#block"/><use x="75.0000000000" y="147.0000000000" xlink:href="#block"/><use x="81.0000000000" y="147.0000000000" xlink:href="#block"/><use x="84.0000000000" y="147.0000000000" xlink:href="#block"/><use x="87.0000000000" y="147.0000000000" xlink:href="#block"/><use x="96.0000000000" y="147.0000000000" xlink:href="#block"/><use x="99.0000000000" y="147.0000000000" xlink:href="#block"/><use x="105.0000000000" y="147.0000000000" xlink:href="#block"/><use x="108.0000000000" y="147.0000000000" xlink:href="#block"/><use x="114.0000000000" y="147.0000000000" xlink:href="#block"/><use x="120.0000000000" y="147.0000000000" xlink:href="#block"/><use x="126.0000000000" y="147.0000000000" xlink:href="#block"/><use x="135.0000000000" y="147.0000000000" xlink:href="#block"/><use x="138.0000000000" y="147.0000000000" xlink:href="#block"/><use x="147.0000000000" y="147.0000000000" xlink:href="#block"/><use x="150.0000000000" y="147.0000000000" xlink:href="#block"/><use x="153.0000000000" y="147.0000000000" xlink:href="#block"/><use x="156.0000000000" y="147.0000000000" xlink:href="#block"/><use x="162.0000000000" y="147.0000000000" xlink:href="#block"/><use x="165.0000000000" y="147.0000000000" xlink:href="#block"/><use x="168.0000000000" y="147.0000000000" xlink:href="#block"/><use x="171.0000000000" y="147.0000000000" xlink:href="#block"/><use x="174.0000000000" y="147.0000000000" xlink:href="#block"/><use x="177.0000000000" y="147.0000000000" xlink:href="#block"/><use x="183.0000000000" y="147.0000000000" xlink:href="#block"/><use x="186.0000000000" y="147.0000000000" xlink:href="#block"/><use x="30.0000000000" y="150.0000000000" xlink:href="#block"/><use x="36.0000000000" y="150.0000000000" xlink:href="#block"/><use x="42.0000000000" y="150.0000000000" xlink:href="#block"/><use x="45.0000000000" y="150.0000000000" xlink:href="#block"/><use x="48.0000000000" y="150.0000000000" xlink:href="#block"/><use x="51.0000000000" y="150.0000000000" xlink:href="#block"/><use x="57.0000000000" y="150.0000000000" xlink:href="#block"/><use x="66.0000000000" y="150.0000000000" xlink:href="#block"/><use x="69.0000000000" y="150.0000000000" xlink:href="#block"/><use x="72.0000000000" y="150.0000000000" xlink:href="#block"/><use x="75.0000000000" y="150.0000000000" xlink:href="#block"/><use x="84.0000000000" y="150.0000000000" xlink:href="#block"/><use x="90.0000000000" y="150.0000000000" xlink:href="#block"/><use x="102.0000000000" y="150.0000000000" xlink:href="#block"/><use x="108.0000000000" y="150.0000000000" xlink:href="#block"/><use x="111.0000000000" y="150.0000000000" xlink:href="#block"/><use x="114.0000000000" y="150.0000000000" xlink:href="#block"/><use x="123.0000000000" y="150.0000000000" xlink:href="#block"/><use x="126.0000000000" y="150.0000000000" xlink:href="#block"/><use x="129.0000000000" y="150.0000000000" xlink:href="#block"/><use x="132.0000000000" y="150.0000000000" xlink:href="#block"/><use x="141.0000000000" y="150.0000000000" xlink:href="#block"/><use x="144.0000000000" y="150.0000000000" xlink:href="#block"/><use x="147.0000000000" y="150.0000000000" xlink:href="#block"/><use x="171.0000000000" y="150.0000000000" xlink:href="#block"/><use x="174.0000000000" y="150.0000000000" xlink:href="#block"/><use x="177.0000000000" y="150.0000000000" xlink:href="#block"/><use x="183.0000000000" y="150.0000000000" xlink:href="#block"/><use x="30.0000000000" y="153.0000000000" xlink:href="#block"/><use x="36.0000000000" y="153.0000000000" xlink:href="#block"/><use x="45.0000000000" y="153.0000000000" xlink:href="#block"/><use x="54.0000000000" y="153.0000000000" xlink:href="#block"/><use x="57.0000000000" y="153.0000000000" xlink:href="#block"/><use x="60.0000000000" y="153.0000000000" xlink:href="#block"/><use x="63.0000000000" y="153.0000000000" xlink:href="#block"/><use x="66.0000000000" y="153.0000000000" xlink:href="#block"/><use x="78.0000000000" y="153.0000000000" xlink:href="#block"/><use x="81.0000000000" y="153.0000000000" xlink:href="#block"/><use x="84.0000000000" y="153.0000000000" xlink:href="#block"/><use x="87.0000000000" y="153.0000000000" xlink:href="#block"/><use x="108.0000000000" y="153.0000000000" xlink:href="#block"/><use x="111.0000000000" y="153.0000000000" xlink:href="#block"/><use x="120.0000000000" y="153.0000000000" xlink:href="#block"/><use x="126.0000000000" y="153.0000000000" xlink:href="#block"/><use x="135.0000000000" y="153.0000000000" xlink:href="#block"/><use x="147.0000000000" y="153.0000000000" xlink:href="#block"/><use x="150.0000000000" y="153.0000000000" xlink:href="#block"/><use x="153.0000000000" y="153.0000000000" xlink:href="#block"/><use x="159.0000000000" y="153.0000000000" xlink:href="#block"/><use x="162.0000000000" y="153.0000000000" xlink:href="#block"/><use x="165.0000000000" y="153.0000000000" xlink:href="#block"/><use x="168.0000000000" y="153.0000000000" xlink:href="#block"/><use x="174.0000000000" y="153.0000000000" xlink:href="#block"/><use x="177.0000000000" y="153.0000000000" xlink:href="#block"/><use x="183.0000000000" y="153.0000000000" xlink:href="#block"/><use x="30.0000000000" y="156.0000000000" xlink:href="#block"/><use x="33.0000000000" y="156.0000000000" xlink:href="#block"/><use x="39.0000000000" y="156.0000000000" xlink:href="#block"/><use x="42.0000000000" y="156.0000000000" xlink:href="#block"/><use x="45.0000000000" y="156.0000000000" xlink:href="#block"/><use x="48.0000000000" y="156.0000000000" xlink:href="#block"/><use x="54.0000000000" y="156.0000000000" xlink:href="#block"/><use x="57.0000000000" y="156.0000000000" xlink:href="#block"/><use x="69.0000000000" y="156.0000000000" xlink:href="#block"/><use x="75.0000000000" y="156.0000000000" xlink:href="#block"/><use x="78.0000000000" y="156.0000000000" xlink:href="#block"/><use x="84.0000000000" y="156.0000000000" xlink:href="#block"/><use x="99.0000000000" y="156.0000000000" xlink:href="#block"/><use x="102.0000000000" y="156.0000000000" xlink:href="#block"/><use x="105.0000000000" y="156.0000000000" xlink:href="#block"/><use x="123.0000000000" y="156.0000000000" xlink:href="#block"/><use x="138.0000000000" y="156.0000000000" xlink:href="#block"/><use x="144.0000000000" y="156.0000000000" xlink:href="#block"/><use x="168.0000000000" y="156.0000000000" xlink:href="#block"/><use x="180.0000000000" y="156.0000000000" xlink:href="#block"/><use x="33.0000000000" y="159.0000000000" xlink:href="#block"/><use x="36.0000000000" y="159.0000000000" xlink:href="#block"/><use x="63.0000000000" y="159.0000000000" xlink:href="#block"/><use x="69.0000000000" y="159.0000000000" xlink:href="#block"/><use x="78.0000000000" y="159.0000000000" xlink:href="#block"/><use x="81.0000000000" y="159.0000000000" xlink:href="#block"/><use x="87.0000000000" y="159.0000000000" xlink:href="#block"/><use x="99.0000000000" y="159.0000000000" xlink:href="#block"/><use x="102.0000000000" y="159.0000000000" xlink:href="#block"/><use x="105.0000000000" y="159.0000000000" xlink:href="#block"/><use x="108.0000000000" y="159.0000000000" xlink:href="#block"/><use x="117.0000000000" y="159.0000000000" xlink:href="#block"/><use x="120.0000000000" y="159.0000000000" xlink:href="#block"/><use x="135.0000000000" y="159.0000000000" xlink:href="#block"/><use x="141.0000000000" y="159.0000000000" xlink:href="#block"/><use x="147.0000000000" y="159.0000000000" xlink:href="#block"/><use x="150.0000000000" y="159.0000000000" xlink:href="#block"/><use x="156.0000000000" y="159.0000000000" xlink:href="#block"/><use x="162.0000000000" y="159.0000000000" xlink:href="#block"/><use x="168.0000000000" y="159.0000000000" xlink:href="#block"/><use x="171.0000000000" y="159.0000000000" xlink:href="#block"/><use x="174.0000000000" y="159.0000000000" xlink:href="#block"/><use x="180.0000000000" y="159.0000000000" xlink:href="#block"/><use x="183.0000000000" y="159.0000000000" xlink:href="#block"/><use x="186.0000000000" y="159.0000000000" xlink:href="#block"/><use x="39.0000000000" y="162.0000000000" xlink:href="#block"/><use x="48.0000000000" y="162.0000000000" xlink:href="#block"/><use x="51.0000000000" y="162.0000000000" xlink:href="#block"/><use x="60.0000000000" y="162.0000000000" xlink:href="#block"/><use x="63.0000000000" y="162.0000000000" xlink:href="#block"/><use x="66.0000000000" y="162.0000000000" xlink:href="#block"/><use x="69.0000000000" y="162.0000000000" xlink:href="#block"/><use x="84.0000000000" y="162.0000000000" xlink:href="#block"/><use x="87.0000000000" y="162.0000000000" xlink:href="#block"/><use x="96.0000000000" y="162.0000000000" xlink:href="#block"/><use x="102.0000000000" y="162.0000000000" xlink:href="#block"/><use x="105.0000000000" y="162.0000000000" xlink:href="#block"/><use x="108.0000000000" y="162.0000000000" xlink:href="#block"/><use x="111.0000000000" y="162.0000000000" xlink:href="#block"/><use x="114.0000000000" y="162.0000000000" xlink:href="#block"/><use x="123.0000000000" y="162.0000000000" xlink:href="#block"/><use x="126.0000000000" y="162.0000000000" xlink:href="#block"/><use x="132.0000000000" y="162.0000000000" xlink:href="#block"/><use x="135.0000000000" y="162.0000000000" xlink:href="#block"/><use x="144.0000000000" y="162.0000000000" xlink:href="#block"/><use x="147.0000000000" y="162.0000000000" xlink:href="#block"/><use x="153.0000000000" y="162.0000000000" xlink:href="#block"/><use x="159.0000000000" y="162.0000000000" xlink:href="#block"/><use x="162.0000000000" y="162.0000000000" xlink:href="#block"/><use x="165.0000000000" y="162.0000000000" xlink:href="#block"/><use x="168.0000000000" y="162.0000000000" xlink:href="#block"/><use x="171.0000000000" y="162.0000000000" xlink:href="#block"/><use x="174.0000000000" y="162.0000000000" xlink:href="#block"/><use x="177.0000000000" y="162.0000000000" xlink:href="#block"/><use x="183.0000000000" y="162.0000000000" xlink:href="#block"/><use x="186.0000000000" y="162.0000000000" xlink:href="#block"/><use x="54.0000000000" y="165.0000000000" xlink:href="#block"/><use x="57.0000000000" y="165.0000000000" xlink:href="#block"/><use x="60.0000000000" y="165.0000000000" xlink:href="#block"/><use x="63.0000000000" y="165.0000000000" xlink:href="#block"/><use x="66.0000000000" y="165.0000000000" xlink:href="#block"/><use x="72.0000000000" y="165.0000000000" xlink:href="#block"/><use x="78.0000000000" y="165.0000000000" xlink:href="#block"/><use x="84.0000000000" y="165.0000000000" xlink:href="#block"/><use x="90.0000000000" y="165.0000000000" xlink:href="#block"/><use x="96.0000000000" y="165.0000000000" xlink:href="#block"/><use x="99.0000000000" y="165.0000000000" xlink:href="#block"/><use x="102.0000000000" y="165.0000000000" xlink:href="#block"/><use x="114.0000000000" y="165.0000000000" xlink:href="#block"/><use x="120.0000000000" y="165.0000000000" xlink:href="#block"/><use x="123.0000000000" y="165.0000000000" xlink:href="#block"/><use x="129.0000000000" y="165.0000000000" xlink:href="#block"/><use x="135.0000000000" y="165.0000000000" xlink:href="#block"/><use x="138.0000000000" y="165.0000000000" xlink:href="#block"/><use x="147.0000000000" y="165.0000000000" xlink:href="#block"/><use x="153.0000000000" y="165.0000000000" xlink:href="#block"/><use x="156.0000000000" y="165.0000000000" xlink:href="#block"/><use x="162.0000000000" y="165.0000000000" xlink:href="#block"/><use x="174.0000000000" y="165.0000000000" xlink:href="#block"/><use x="177.0000000000" y="165.0000000000" xlink:href="#block"/><use x="30.0000000000" y="168.0000000000" xlink:href="#block"/><use x="33.0000000000" y="168.0000000000" xlink:href="#block"/><use x="36.0000000000" y="168.0000000000" xlink:href="#block"/><use x="39.0000000000" y="168.0000000000" xlink:href="#block"/><use x="42.0000000000" y="168.0000000000" xlink:href="#block"/><use x="45.0000000000" y="168.0000000000" xlink:href="#block"/><use x="48.0000000000" y="168.0000000000" xlink:href="#block"/><use x="54.0000000000" y="168.0000000000" xlink:href="#block"/><use x="57.0000000000" y="168.0000000000" xlink:href="#block"/><use x="66.0000000000" y="168.0000000000" xlink:href="#block"/><use x="72.0000000000" y="168.0000000000" xlink:href="#block"/><use x="75.0000000000" y="168.0000000000" xlink:href="#block"/><use x="78.0000000000" y="168.0000000000" xlink:href="#block"/><use x="81.0000000000" y="168.0000000000" xlink:href="#block"/><use x="90.0000000000" y="168.0000000000" xlink:href="#block"/><use x="102.0000000000" y="168.0000000000" xlink:href="#block"/><use x="108.0000000000" y="168.0000000000" xlink:href="#block"/><use x="114.0000000000" y="168.0000000000" xlink:href="#block"/><use x="117.0000000000" y="168.0000000000" xlink:href="#block"/><use x="123.0000000000" y="168.0000000000" xlink:href="#block"/><use x="132.0000000000" y="168.0000000000" xlink:href="#block"/><use x="135.0000000000" y="168.0000000000" xlink:href="#block"/><use x="138.0000000000" y="168.0000000000" xlink:href="#block"/><use x="141.0000000000" y="168.0000000000" xlink:href="#block"/><use x="144.0000000000" y="168.0000000000" xlink:href="#block"/><use x="156.0000000000" y="168.0000000000" xlink:href="#block"/><use x="159.0000000000" y="168.0000000000" xlink:href="#block"/><use x="162.0000000000" y="168.0000000000" xlink:href="#block"/><use x="168.0000000000" y="168.0000000000" xlink:href="#block"/><use x="174.0000000000" y="168.0000000000" xlink:href="#block"/><use x="177.0000000000" y="168.0000000000" xlink:href="#block"/><use x="180.0000000000" y="168.0000000000" xlink:href="#block"/><use x="30.0000000000" y="171.0000000000" xlink:href="#block"/><use x="48.0000000000" y="171.0000000000" xlink:href="#block"/><use x="57.0000000000" y="171.0000000000" xlink:href="#block"/><use x="66.0000000000" y="171.0000000000" xlink:href="#block"/><use x="69.0000000000" y="171.0000000000" xlink:href="#block"/><use x="75.0000000000" y="171.0000000000" xlink:href="#block"/><use x="87.0000000000" y="171.0000000000" xlink:href="#block"/><use x="93.0000000000" y="171.0000000000" xlink:href="#block"/><use x="102.0000000000" y="171.0000000000" xlink:href="#block"/><use x="114.0000000000" y="171.0000000000" xlink:href="#block"/><use x="117.0000000000" y="171.0000000000" xlink:href="#block"/><use x="120.0000000000" y="171.0000000000" xlink:href="#block"/><use x="123.0000000000" y="171.0000000000" xlink:href="#block"/><use x="135.0000000000" y="171.0000000000" xlink:href="#block"/><use x="138.0000000000" y="171.0000000000" xlink:href="#block"/><use x="153.0000000000" y="171.0000000000" xlink:href="#block"/><use x="156.0000000000" y="171.0000000000" xlink:href="#block"/><use x="162.0000000000" y="171.0000000000" xlink:href="#block"/><use x="174.0000000000" y="171.0000000000" xlink:href="#block"/><use x="177.0000000000" y="171.0000000000" xlink:href="#block"/><use x="186.0000000000" y="171.0000000000" xlink:href="#block"/><use x="30.0000000000" y="174.0000000000" xlink:href="#block"/><use x="36.0000000000" y="174.0000000000" xlink:href="#block"/><use x="39.0000000000" y="174.0000000000" xlink:href="#block"/><use x="42.0000000000" y="174.0000000000" xlink:href="#block"/><use x="48.0000000000" y="174.0000000000" xlink:href="#block"/><use x="54.0000000000" y="174.0000000000" xlink:href="#block"/><use x="60.0000000000" y="174.0000000000" xlink:href="#block"/><use x="63.0000000000" y="174.0000000000" xlink:href="#block"/><use x="66.0000000000" y="174.0000000000" xlink:href="#block"/><use x="81.0000000000" y="174.0000000000" xlink:href="#block"/><use x="87.0000000000" y="174.0000000000" xlink:href="#block"/><use x="93.0000000000" y="174.0000000000" xlink:href="#block"/><use x="99.0000000000" y="174.0000000000" xlink:href="#block"/><use x="102.0000000000" y="174.0000000000" xlink:href="#block"/><use x="105.0000000000" y="174.0000000000" xlink:href="#block"/><use x="108.0000000000" y="174.0000000000" xlink:href="#block"/><use x="111.0000000000" y="174.0000000000" xlink:href="#block"/><use x="114.0000000000" y="174.0000000000" xlink:href="#block"/><use x="117.0000000000" y="174.0000000000" xlink:href="#block"/><use x="123.0000000000" y="174.0000000000" xlink:href="#block"/><use x="132.0000000000" y="174.0000000000" xlink:href="#block"/><use x="138.0000000000" y="174.0000000000" xlink:href="#block"/><use x="141.0000000000" y="174.0000000000" xlink:href="#block"/><use x="144.0000000000" y="174.0000000000" xlink:href="#block"/><use x="150.0000000000" y="174.0000000000" xlink:href="#block"/><use x="153.0000000000" y="174.0000000000" xlink:href="#block"/><use x="162.0000000000" y="174.0000000000" xlink:href="#block"/><use x="165.0000000000" y="174.0000000000" xlink:href="#block"/><use x="168.0000000000" y="174.0000000000" xlink:href="#block"/><use x="171.0000000000" y="174.0000000000" xlink:href="#block"/><use x="174.0000000000" y="174.0000000000" xlink:href="#block"/><use x="183.0000000000" y="174.0000000000" xlink:href="#block"/><use x="30.0000000000" y="177.0000000000" xlink:href="#block"/><use x="36.0000000000" y="177.0000000000" xlink:href="#block"/><use x="39.0000000000" y="177.0000000000" xlink:href="#block"/><use x="42.0000000000" y="177.0000000000" xlink:href="#block"/><use x="48.0000000000" y="177.0000000000" xlink:href="#block"/><use x="54.0000000000" y="177.0000000000" xlink:href="#block"/><use x="60.0000000000" y="177.0000000000" xlink:href="#block"/><use x="69.0000000000" y="177.0000000000" xlink:href="#block"/><use x="75.0000000000" y="177.0000000000" xlink:href="#block"/><use x="84.0000000000" y="177.0000000000" xlink:href="#block"/><use x="90.0000000000" y="177.0000000000" xlink:href="#block"/><use x="114.0000000000" y="177.0000000000" xlink:href="#block"/><use x="120.0000000000" y="177.0000000000" xlink:href="#block"/><use x="126.0000000000" y="177.0000000000" xlink:href="#block"/><use x="138.0000000000" y="177.0000000000" xlink:href="#block"/><use x="141.0000000000" y="177.0000000000" xlink:href="#block"/><use x="147.0000000000" y="177.0000000000" xlink:href="#block"/><use x="150.0000000000" y="177.0000000000" xlink:href="#block"/><use x="153.0000000000" y="177.0000000000" xlink:href="#block"/><use x="156.0000000000" y="177.0000000000" xlink:href="#block"/><use x="165.0000000000" y="177.0000000000" xlink:href="#block"/><use x="171.0000000000" y="177.0000000000" xlink:href="#block"/><use x="177.0000000000" y="177.0000000000" xlink:href="#block"/><use x="30.0000000000" y="180.0000000000" xlink:href="#block"/><use x="36.0000000000" y="180.0000000000" xlink:href="#block"/><use x="39.0000000000" y="180.0000000000" xlink:href="#block"/><use x="42.0000000000" y="180.0000000000" xlink:href="#block"/><use x="48.0000000000" y="180.0000000000" xlink:href="#block"/><use x="54.0000000000" y="180.0000000000" xlink:href="#block"/><use x="57.0000000000" y="180.0000000000" xlink:href="#block"/><use x="63.0000000000" y="180.0000000000" xlink:href="#block"/><use x="72.0000000000" y="180.0000000000" xlink:href="#block"/><use x="84.0000000000" y="180.0000000000" xlink:href="#block"/><use x="87.0000000000" y="180.0000000000" xlink:href="#block"/><use x="90.0000000000" y="180.0000000000" xlink:href="#block"/><use x="99.0000000000" y="180.0000000000" xlink:href="#block"/><use x="102.0000000000" y="180.0000000000" xlink:href="#block"/><use x="108.0000000000" y="180.0000000000" xlink:href="#block"/><use x="117.0000000000" y="180.0000000000" xlink:href="#block"/><use x="120.0000000000" y="180.0000000000" xlink:href="#block"/><use x="123.0000000000" y="180.0000000000" xlink:href="#block"/><use x="129.0000000000" y="180.0000000000" xlink:href="#block"/><use x="132.0000000000" y="180.0000000000" xlink:href="#block"/><use x="135.0000000000" y="180.0000000000" xlink:href="#block"/><use x="138.0000000000" y="180.0000000000" xlink:href="#block"/><use x="141.0000000000" y="180.0000000000" xlink:href="#block"/><use x="153.0000000000" y="180.0000000000" xlink:href="#block"/><use x="156.0000000000" y="180.0000000000" xlink:href="#block"/><use x="159.0000000000" y="180.0000000000" xlink:href="#block"/><use x="165.0000000000" y="180.0000000000" xlink:href="#block"/><use x="168.0000000000" y="180.0000000000" xlink:href="#block"/><use x="171.0000000000" y="180.0000000000" xlink:href="#block"/><use x="180.0000000000" y="180.0000000000" xlink:href="#block"/><use x="183.0000000000" y="180.0000000000" xlink:href="#block"/><use x="30.0000000000" y="183.0000000000" xlink:href="#block"/><use x="48.0000000000" y="183.0000000000" xlink:href="#block"/><use x="54.0000000000" y="183.0000000000" xlink:href="#block"/><use x="57.0000000000" y="183.0000000000" xlink:href="#block"/><use x="63.0000000000" y="183.0000000000" xlink:href="#block"/><use x="66.0000000000" y="183.0000000000" xlink:href="#block"/><use x="69.0000000000" y="183.0000000000" xlink:href="#block"/><use x="72.0000000000" y="183.0000000000" xlink:href="#block"/><use x="75.0000000000" y="183.0000000000" xlink:href="#block"/><use x="81.0000000000" y="183.0000000000" xlink:href="#block"/><use x="96.0000000000" y="183.0000000000" xlink:href="#block"/><use x="114.0000000000" y="183.0000000000" xlink:href="#block"/><use x="117.0000000000" y="183.0000000000" xlink:href="#block"/><use x="120.0000000000" y="183.0000000000" xlink:href="#block"/><use x="126.0000000000" y="183.0000000000" xlink:href="#block"/><use x="129.0000000000" y="183.0000000000" xlink:href="#block"/><use x="135.0000000000" y="183.0000000000" xlink:href="#block"/><use x="141.0000000000" y="183.0000000000" xlink:href="#block"/><use x="150.0000000000" y="183.0000000000" xlink:href="#block"/><use x="156.0000000000" y="183.0000000000" xlink:href="#block"/><use x="162.0000000000" y="183.0000000000" xlink:href="#block"/><use x="165.0000000000" y="183.0000000000" xlink:href="#block"/><use x="171.0000000000" y="183.0000000000" xlink:href="#block"/><use x="174.0000000000" y="183.0000000000" xlink:href="#block"/><use x="186.0000000000" y="183.0000000000" xlink:href="#block"/><use x="30.0000000000" y="186.0000000000" xlink:href="#block"/><use x="33.0000000000" y="186.0000000000" xlink:href="#block"/><use x="36.0000000000" y="186.0000000000" xlink:href="#block"/><use x="39.0000000000" y="186.0000000000" xlink:href="#block"/><use x="42.0000000000" y="186.0000000000" xlink:href="#block"/><use x="45.0000000000" y="186.0000000000" xlink:href="#block"/><use x="48.0000000000" y="186.0000000000" xlink:href="#block"/><use x="54.0000000000" y="186.0000000000" xlink:href="#block"/><use x="57.0000000000" y="186.0000000000" xlink:href="#block"/><use x="69.0000000000" y="186.0000000000" xlink:href="#block"/><use x="102.0000000000" y="186.0000000000" xlink:href="#block"/><use x="105.0000000000" y="186.0000000000" xlink:href="#block"/><use x="108.0000000000" y="186.0000000000" xlink:href="#block"/><use x="111.0000000000" y="186.0000000000" xlink:href="#block"/><use x="114.0000000000" y="186.0000000000" xlink:href="#block"/><use x="126.0000000000" y="186.0000000000" xlink:href="#block"/><use x="132.0000000000" y="186.0000000000" xlink:href="#block"/><use x="144.0000000000" y="186.0000000000" xlink:href="#block"/><use x="147.0000000000" y="186.0000000000" xlink:href="#block"/><use x="153.0000000000" y="186.0000000000" xlink:href="#block"/><use x="159.0000000000" y="186.0000000000" xlink:href="#block"/><use x="165.0000000000" y="186.0000000000" xlink:href="#block"/><use x="168.0000000000" y="186.0000000000" xlink:href="#block"/><use x="171.0000000000" y="186.0000000000" xlink:href="#block"/><use x="174.0000000000" y="186.0000000000" xlink:href="#block"/><use x="177.0000000000" y="186.0000000000" xlink:href="#block"/><use x="180.0000000000" y="186.0000000000" xlink:href="#block"/></svg>
